<svg width="130" height="50" viewBox="0 0 130 50" fill="none" xmlns="http://www.w3.org/2000/svg">
<g clip-path="url(#clip0_2541_3378)">
<path d="M9.42982 0.000183105C13.7179 0.000183105 16.3521 2.3569 18.4223 5.40474C21.4344 9.83218 24.1726 14.4398 27.9898 18.2899C29.8545 20.1646 30.6432 20.1435 32.5106 18.1999C36.3442 14.1987 40.2846 10.2903 43.0092 5.41004C44.1428 3.38167 46.714 2.815 49.5071 3.55644C51.6456 4.10457 53.179 5.84431 53.2886 7.80911C53.4146 10.1208 52.3494 11.7996 49.8411 12.7317C45.0932 14.4979 40.6544 16.9603 36.681 20.0323C33.7127 22.3202 33.8881 23.1728 36.9877 25.2382C40.5009 27.579 44.381 29.136 48.3324 30.5342C52.2399 31.919 53.587 34.2413 52.4014 37.6837C51.402 40.5753 47.1823 42.4157 44.0278 41.3353C41.8591 40.5913 40.3202 39.1402 39.6877 37.0562C38.4308 32.9015 35.3064 30.1715 32.2122 27.3858C31.1662 26.443 30.2105 26.7396 29.2001 27.571C24.5368 31.3312 21.3769 36.1532 18.5126 41.2056C17.8582 42.3575 17.2175 43.5173 16.6314 44.7009C14.9884 48.0003 7.869 51.3209 3.72053 49.4673C1.16025 48.3313 -0.186978 46.5439 -0.586766 44.0336C-0.970123 41.6107 0.270312 39.7677 2.20901 38.3563C5.26491 36.1373 8.95883 35.1788 12.3406 33.5662C17.1472 31.2602 21.553 28.2442 25.3994 24.6265C26.7412 23.3793 26.3578 22.622 25.1256 21.6608C20.7273 18.203 15.6272 15.677 10.1555 14.2464C8.69721 13.8967 7.27759 13.4107 5.91661 12.7953C2.4883 11.1509 1.36287 9.29464 1.86125 5.87608C2.25829 3.13275 4.84048 0.675422 7.8827 0.167007C8.44678 0.071679 9.02181 0.042551 9.42982 0.000183105Z" fill="#F39E2F"/>
<path d="M118.681 7.22439C121.045 7.22439 123.408 7.21115 125.771 7.22439C128.556 7.24558 129.618 8.16972 129.604 10.5132C129.604 12.952 128.577 13.8735 125.839 13.8814C121.543 13.8973 117.244 13.8311 112.95 13.9079C107.851 14.0032 103.73 17.4166 103.366 21.7116C102.956 26.478 106.855 30.7677 111.929 31.0218C113.846 31.1173 115.795 31.0934 117.726 31.0218C120.171 30.916 121.348 29.6978 121.447 27.3544C121.466 26.8698 121.447 26.3853 121.447 25.9007C121.447 22.228 121.995 21.7168 125.793 21.7566C128.846 21.7857 129.467 22.3736 129.47 25.2757C129.47 28.321 129.47 31.3661 129.446 34.414C129.424 36.5324 128.506 37.483 126.327 37.4963C121.398 37.528 116.442 37.5943 111.504 37.4566C103.536 37.2314 96.0688 31.5594 94.7462 24.8971C93.325 17.6918 98.0567 10.5953 105.918 8.23062C107.211 7.84138 108.547 7.43623 109.881 7.36738C112.808 7.23763 115.746 7.32766 118.681 7.32766V7.22439Z" fill="white"/>
<path d="M57.7256 22.2081C57.7256 18.2652 57.7256 14.3196 57.7256 10.3768C57.7256 8.30875 58.6758 7.25219 60.7377 7.23101C66.1759 7.17541 71.6251 7.01918 77.0495 7.29986C79.514 7.42961 81.9784 7.42961 84.4428 7.54612C88.1367 7.71824 91.5624 10.9673 92.3839 14.6692C93.1397 18.0719 91.3652 21.6096 87.9095 23.5293C83.4872 25.9893 78.6761 25.6161 73.9115 25.1182C72.0139 24.9222 71.8715 23.2646 71.9152 21.7288C71.9646 20.0499 72.9586 19.1761 74.5578 18.9855C75.757 18.8451 76.9866 18.9536 78.2024 18.9219C78.9143 18.9033 79.6619 18.9458 80.3273 18.7498C81.5759 18.3843 82.9177 17.8653 82.8054 16.3189C82.6931 14.7725 81.4363 13.9887 80.0042 13.9357C76.2856 13.8272 72.5587 13.8033 68.8429 13.9357C66.9919 14.0019 65.9048 15.0346 65.9103 17.0445C65.924 22.7191 65.8419 28.3911 65.7843 34.0658C65.7569 36.9335 65.0697 37.4711 61.5372 37.4525C58.4842 37.4341 57.7749 36.7959 57.7695 34.0102C57.7695 30.0663 57.7695 26.1226 57.7695 22.1789L57.7256 22.2081Z" fill="white"/>
</g>
<defs>
<clipPath id="clip0_2541_3378">
<rect width="130" height="50" fill="white"/>
</clipPath>
</defs>
</svg>
