<svg width="106" height="46" viewBox="0 0 106 46" fill="none" xmlns="http://www.w3.org/2000/svg">
<g clip-path="url(#clip0_2548_1517)">
<path d="M9.48939 20.6588H4.62939V38.1265H9.48939V20.6588Z" fill="#5097FF"/>
<g style="mix-blend-mode:multiply" opacity="0.3">
<path d="M4.62939 20.3738V21.7984H7.16064V38.1265H9.48939V21.7984V20.6587V20.3738H4.62939Z" fill="#233584"/>
</g>
<path d="M3.09961 41.4885V38.6963C3.09961 38.2248 3.47789 37.8416 3.94336 37.8416H10.1759C10.6413 37.8416 11.0196 38.2248 11.0196 38.6963V41.4885H3.09961Z" fill="#5097FF"/>
<path d="M11.0196 20.0889C11.0196 20.5604 10.6413 20.9437 10.1759 20.9437H3.94336C3.47789 20.9437 3.09961 20.5604 3.09961 20.0889V17.2968H11.0196V20.0889Z" fill="#5097FF"/>
<g style="mix-blend-mode:multiply" opacity="0.3">
<path d="M11.0196 17.2968H3.09961V18.1943H11.0196V17.2968Z" fill="#233584"/>
</g>
<path d="M20.3795 20.6588H15.5195V38.1265H20.3795V20.6588Z" fill="#5097FF"/>
<g style="mix-blend-mode:multiply" opacity="0.3">
<path d="M15.5195 20.3738V21.7984H18.0508V38.1265H20.3795V21.7984V20.6587V20.3738H15.5195Z" fill="#233584"/>
</g>
<path d="M13.9897 41.4885V38.6963C13.9897 38.2248 14.368 37.8416 14.8335 37.8416H21.066C21.5315 37.8416 21.9097 38.2248 21.9097 38.6963V41.4885H13.9897Z" fill="#5097FF"/>
<path d="M21.9097 20.0889C21.9097 20.5604 21.5315 20.9437 21.066 20.9437H14.8335C14.368 20.9437 13.9897 20.5604 13.9897 20.0889V17.2968H21.9097V20.0889Z" fill="#5097FF"/>
<g style="mix-blend-mode:multiply" opacity="0.3">
<path d="M21.9097 17.2968H13.9897V18.1943H21.9097V17.2968Z" fill="#233584"/>
</g>
<path d="M31.2697 20.6588H26.4097V38.1265H31.2697V20.6588Z" fill="#5097FF"/>
<g style="mix-blend-mode:multiply" opacity="0.3">
<path d="M26.4097 20.3738V21.7984H28.9409V38.1265H31.2697V21.7984V20.6587V20.3738H26.4097Z" fill="#233584"/>
</g>
<path d="M24.8799 41.4885V38.6963C24.8799 38.2248 25.2582 37.8416 25.7236 37.8416H31.9561C32.4216 37.8416 32.7999 38.2248 32.7999 38.6963V41.4885H24.8799Z" fill="#5097FF"/>
<path d="M32.7999 20.0889C32.7999 20.5604 32.4216 20.9437 31.9561 20.9437H25.7236C25.2582 20.9437 24.8799 20.5604 24.8799 20.0889V17.2968H32.7999V20.0889Z" fill="#5097FF"/>
<g style="mix-blend-mode:multiply" opacity="0.3">
<path d="M32.7999 17.2968H24.8799V18.1943H32.7999V17.2968Z" fill="#233584"/>
</g>
<path d="M42.1593 20.6588H37.2993V38.1265H42.1593V20.6588Z" fill="#5097FF"/>
<g style="mix-blend-mode:multiply" opacity="0.3">
<path d="M37.2993 20.3738V21.7984H39.8306V38.1265H42.1593V21.7984V20.6587V20.3738H37.2993Z" fill="#233584"/>
</g>
<path d="M35.7695 41.4885V38.6963C35.7695 38.2248 36.1478 37.8416 36.6133 37.8416H42.8458C43.3113 37.8416 43.6895 38.2248 43.6895 38.6963V41.4885H35.7695Z" fill="#5097FF"/>
<path d="M43.6895 20.0889C43.6895 20.5604 43.3113 20.9437 42.8458 20.9437H36.6133C36.1478 20.9437 35.7695 20.5604 35.7695 20.0889V17.2968H43.6895V20.0889Z" fill="#5097FF"/>
<g style="mix-blend-mode:multiply" opacity="0.3">
<path d="M43.6895 17.2968H35.7695V18.1943H43.6895V17.2968Z" fill="#233584"/>
</g>
<path d="M45.0508 41.2036H1.73828C1.27229 41.2036 0.894531 41.5862 0.894531 42.0583V44.6453C0.894531 45.1173 1.27229 45.5 1.73828 45.5H45.0508C45.5168 45.5 45.8945 45.1173 45.8945 44.6453V42.0583C45.8945 41.5862 45.5168 41.2036 45.0508 41.2036Z" fill="#5097FF"/>
<g style="mix-blend-mode:multiply" opacity="0.3">
<path d="M0.894531 43.2207V42.0583C0.894531 41.5868 1.27281 41.2036 1.73828 41.2036H45.0508C45.5162 41.2036 45.8945 41.5868 45.8945 42.0583V43.2207H0.894531Z" fill="#233584"/>
</g>
<path d="M45.0506 17.3396H1.73813C1.27266 17.3396 1.19672 17.1102 1.56797 16.8253L22.7208 0.712247C23.0934 0.428763 23.6967 0.428763 24.0694 0.712247L45.2208 16.8253C45.5934 17.1088 45.5175 17.3396 45.0506 17.3396Z" fill="#5097FF"/>
<g style="mix-blend-mode:multiply" opacity="0.3">
<path d="M5.9458 15.6301L23.3946 2.33765L40.8433 15.6301H5.9458Z" fill="#233584"/>
</g>
<path d="M26.2746 9.27804C26.2746 10.8892 24.9851 12.1955 23.3946 12.1955C21.8042 12.1955 20.5146 10.8892 20.5146 9.27804C20.5146 7.66687 21.8042 6.36057 23.3946 6.36057C24.9851 6.36057 26.2746 7.66687 26.2746 9.27804Z" fill="#5097FF"/>
<circle cx="34.6445" cy="11.75" r="10.6579" fill="#F5BA2D" stroke="white" stroke-width="1.18421"/>
<path d="M38.5673 8.86349L38.2242 10.0342H31.6841L32.0272 8.86349H38.5673ZM35.4991 16.756L31.8052 12.2344L31.785 11.3867H33.6219C34.0996 11.3867 34.5067 11.3194 34.8431 11.1848C35.1795 11.0469 35.4369 10.8417 35.6152 10.5692C35.7935 10.2933 35.8826 9.94677 35.8826 9.5296C35.8826 8.91395 35.6976 8.43118 35.3275 8.0813C34.9575 7.72806 34.3889 7.55143 33.6219 7.55143H31.6841L32.0272 6.42105H33.6219C34.4428 6.42105 35.1156 6.5573 35.6404 6.82981C36.1686 7.09894 36.5589 7.46901 36.8112 7.94C37.0669 8.40763 37.1947 8.9375 37.1947 9.5296C37.1947 10.0645 37.077 10.5574 36.8415 11.0082C36.6093 11.4556 36.2359 11.8156 35.7212 12.0881C35.2098 12.3606 34.5336 12.4969 33.6925 12.4969H33.6623L37.0736 16.6752V16.756H35.4991ZM38.5673 6.42105L38.2242 7.5918L33.0769 7.55143L33.42 6.42105H38.5673Z" fill="black"/>
<path d="M48.2632 28.921V18.5861H52.7443C53.5316 18.5861 54.1926 18.6921 54.7276 18.904C55.2658 19.116 55.6712 19.4154 55.9437 19.8023C56.2196 20.1892 56.3575 20.645 56.3575 21.1699C56.3575 21.55 56.2734 21.8965 56.1052 22.2094C55.9404 22.5223 55.7082 22.7847 55.4088 22.9966C55.1094 23.2052 54.7595 23.3499 54.3592 23.4306V23.5315C54.8033 23.5484 55.207 23.6611 55.5703 23.8697C55.9336 24.0749 56.223 24.3591 56.4383 24.7225C56.6536 25.0825 56.7612 25.5064 56.7612 25.9942C56.7612 26.5594 56.6132 27.0623 56.3172 27.503C56.0245 27.9437 55.6073 28.2903 55.0657 28.5426C54.524 28.7949 53.8781 28.921 53.1279 28.921H48.2632ZM51.069 26.6805H52.381C52.852 26.6805 53.2052 26.593 53.4407 26.4181C53.6762 26.2398 53.794 25.9773 53.794 25.6308C53.794 25.3886 53.7385 25.1834 53.6275 25.0152C53.5164 24.847 53.3583 24.7191 53.1531 24.6317C52.9512 24.5442 52.7073 24.5004 52.4214 24.5004H51.069V26.6805ZM51.069 22.7645H52.2195C52.4651 22.7645 52.6821 22.7258 52.8705 22.6484C53.0589 22.5711 53.2052 22.46 53.3095 22.3154C53.4172 22.1673 53.471 21.9874 53.471 21.7754C53.471 21.4558 53.3566 21.2119 53.1279 21.0437C52.8991 20.8721 52.6098 20.7863 52.2599 20.7863H51.069V22.7645Z" fill="white"/>
<path d="M60.44 28.921H57.4122L60.8236 18.5861H64.6588L68.0701 28.921H65.0423L62.7815 21.4323H62.7008L60.44 28.921ZM59.8748 24.8436H65.5671V26.9429H59.8748V24.8436Z" fill="white"/>
<path d="M78.0076 18.5861V28.921H75.6661L71.9318 23.4912H71.8713V28.921H69.0655V18.5861H71.4474L75.1211 23.9958H75.2019V18.5861H78.0076Z" fill="white"/>
<path d="M79.3348 28.921V18.5861H82.1406V22.7645H82.2819L85.3905 18.5861H88.6605L85.1684 23.1884L88.7412 28.921H85.3905L83.0691 25.0455L82.1406 26.2566V28.921H79.3348Z" fill="white"/>
<path d="M50.2949 41.7708H47.2671V31.4358H50.4766C51.4623 31.4358 52.305 31.6411 53.0048 32.0515C53.7079 32.4619 54.2462 33.0507 54.6196 33.8177C54.9931 34.5848 55.1798 35.5049 55.1798 36.5781C55.1798 37.6614 54.988 38.5916 54.6045 39.3687C54.2243 40.1425 53.6692 40.7363 52.9392 41.1501C52.2125 41.5639 51.3311 41.7708 50.2949 41.7708ZM48.2108 40.923H50.2394C51.1275 40.923 51.871 40.748 52.4699 40.3982C53.0687 40.0483 53.5178 39.5487 53.8173 38.8994C54.1167 38.2501 54.2664 37.4763 54.2664 36.5781C54.263 35.6865 54.115 34.9195 53.8223 34.2769C53.533 33.6344 53.1024 33.1415 52.5304 32.7983C51.9619 32.4552 51.2588 32.2836 50.4211 32.2836H48.2108V40.923Z" fill="white"/>
<path d="M57.467 41.7708V31.4358H63.4621V32.2836H58.4107V36.1744H63.1442V37.0221H58.4107V40.923H63.563V41.7708H57.467Z" fill="white"/>
<path d="M65.9045 41.7708V31.4358H69.2402C69.9736 31.4358 70.5859 31.5771 71.077 31.8597C71.5716 32.139 71.9433 32.5191 72.1923 33.0002C72.4446 33.4813 72.5708 34.0229 72.5708 34.6251C72.5708 35.2273 72.4463 35.7707 72.1973 36.2551C71.9484 36.7362 71.5783 37.118 71.0871 37.4006C70.596 37.6799 69.9853 37.8195 69.2553 37.8195H66.6312V36.9717H69.2301C69.7717 36.9717 70.2208 36.8708 70.5774 36.6689C70.9341 36.4637 71.1998 36.1845 71.3748 35.8312C71.5531 35.478 71.6422 35.0759 71.6422 34.6251C71.6422 34.1743 71.5531 33.7723 71.3748 33.4191C71.1998 33.0658 70.9324 32.7883 70.5724 32.5864C70.2158 32.3845 69.7633 32.2836 69.2149 32.2836H66.8482V41.7708H65.9045Z" fill="white"/>
<path d="M83.2589 36.6033C83.2589 37.6799 83.0672 38.6168 82.6836 39.4141C82.3001 40.2081 81.7719 40.8237 81.0991 41.2611C80.4296 41.6951 79.6592 41.9121 78.7879 41.9121C77.9165 41.9121 77.1444 41.6951 76.4716 41.2611C75.8021 40.8237 75.2756 40.2081 74.8921 39.4141C74.5119 38.6168 74.3218 37.6799 74.3218 36.6033C74.3218 35.5267 74.5119 34.5915 74.8921 33.7975C75.2756 33.0002 75.8038 32.3845 76.4766 31.9506C77.1495 31.5132 77.9199 31.2945 78.7879 31.2945C79.6592 31.2945 80.4296 31.5132 81.0991 31.9506C81.7719 32.3845 82.3001 33.0002 82.6836 33.7975C83.0672 34.5915 83.2589 35.5267 83.2589 36.6033ZM82.3405 36.6033C82.3405 35.6781 82.1857 34.8859 81.8762 34.2265C81.5667 33.5637 81.1445 33.0574 80.6096 32.7075C80.0747 32.3576 79.4674 32.1827 78.7879 32.1827C78.1117 32.1827 77.5061 32.3576 76.9712 32.7075C76.4363 33.0574 76.0124 33.562 75.6995 34.2214C75.39 34.8808 75.2352 35.6748 75.2352 36.6033C75.2352 37.5285 75.39 38.3207 75.6995 38.9801C76.009 39.6395 76.4312 40.1458 76.9661 40.4991C77.501 40.849 78.1083 41.0239 78.7879 41.0239C79.4674 41.0239 80.0747 40.849 80.6096 40.4991C81.1479 40.1492 81.5718 39.6446 81.8813 38.9852C82.1908 38.3224 82.3439 37.5285 82.3405 36.6033Z" fill="white"/>
<path d="M91.1527 34.0196C91.0955 33.4443 90.8415 32.9867 90.3907 32.647C89.9399 32.3072 89.373 32.1373 88.6901 32.1373C88.209 32.1373 87.7851 32.2197 87.4184 32.3845C87.0551 32.5494 86.7691 32.7782 86.5605 33.0709C86.3553 33.3602 86.2527 33.6899 86.2527 34.0599C86.2527 34.3324 86.3116 34.5713 86.4293 34.7765C86.5471 34.9817 86.7052 35.1584 86.9037 35.3064C87.1055 35.451 87.3276 35.5755 87.5698 35.6798C87.8154 35.7841 88.0626 35.8716 88.3116 35.9422L89.4016 36.2551C89.7313 36.3459 90.061 36.462 90.3907 36.6033C90.7204 36.7446 91.0215 36.9229 91.294 37.1382C91.5699 37.3502 91.7902 37.6109 91.9551 37.9204C92.1233 38.2265 92.2074 38.5949 92.2074 39.0255C92.2074 39.5773 92.0644 40.0735 91.7784 40.5142C91.4925 40.9549 91.082 41.3048 90.5471 41.5639C90.0122 41.8195 89.3713 41.9474 88.6245 41.9474C87.9213 41.9474 87.3107 41.8313 86.7926 41.5992C86.2745 41.3637 85.8675 41.039 85.5714 40.6252C85.2754 40.2114 85.1088 39.732 85.0718 39.187H86.0407C86.0744 39.5941 86.2089 39.9389 86.4444 40.2215C86.6799 40.5041 86.9861 40.7194 87.3629 40.8675C87.7397 41.0121 88.1602 41.0845 88.6245 41.0845C89.1392 41.0845 89.5967 40.9987 89.9971 40.8271C90.4008 40.6522 90.717 40.4099 90.9458 40.1004C91.1779 39.7875 91.294 39.4242 91.294 39.0104C91.294 38.6605 91.2032 38.3678 91.0215 38.1323C90.8398 37.8935 90.5858 37.6933 90.2595 37.5318C89.9365 37.3703 89.5614 37.2274 89.1341 37.1029L87.8978 36.7395C87.087 36.4973 86.4579 36.1626 86.0105 35.7353C85.563 35.3081 85.3393 34.7631 85.3393 34.1003C85.3393 33.5452 85.4873 33.0574 85.7834 32.6369C86.0828 32.213 86.4865 31.8833 86.9945 31.6478C87.5059 31.4089 88.0795 31.2895 88.7153 31.2895C89.3579 31.2895 89.9264 31.4072 90.421 31.6427C90.9155 31.8782 91.3074 32.2029 91.5968 32.6167C91.8895 33.0271 92.0459 33.4947 92.0661 34.0196H91.1527Z" fill="white"/>
<path d="M95.4219 31.4358V41.7708H94.4782V31.4358H95.4219Z" fill="white"/>
<path d="M97.5439 32.2836V31.4358H105.038V32.2836H101.763V41.7708H100.819V32.2836H97.5439Z" fill="white"/>
</g>
<defs>
<clipPath id="clip0_2548_1517">
<rect width="104.211" height="45" fill="white" transform="translate(0.894531 0.5)"/>
</clipPath>
</defs>
</svg>
