<svg width="243" height="50" viewBox="0 0 243 50" fill="none" xmlns="http://www.w3.org/2000/svg">
<path d="M186.991 13.3245C190.018 13.2374 192.958 14.1083 195.292 16.1114C196.07 16.8952 196.935 17.7662 197.54 18.7241C197.886 19.3339 198.232 19.9434 198.578 20.466C197.367 21.1628 196.07 21.5111 194.86 22.1209C193.995 22.469 193.217 22.9047 192.266 23.1658C191.833 22.2079 191.401 21.3369 190.623 20.6402C188.721 18.7241 185.435 18.7241 183.273 20.2918C182.236 20.9886 181.458 22.1209 180.939 23.253C179.988 25.5175 179.902 28.1301 180.68 30.4818C181.199 31.8753 181.89 33.0943 183.101 33.9653C184.138 34.8362 185.522 35.2718 186.819 35.2718C188.116 35.2718 189.499 35.0104 190.536 34.1395C191.487 33.4427 192.006 32.2237 192.179 31.0913C192.093 30.7429 191.661 30.8301 191.401 30.8301C189.931 30.8301 188.375 30.8301 186.819 30.8301C186.646 30.0462 186.732 29.2624 186.732 28.3915C186.732 27.4336 186.646 26.4754 186.819 25.4303H199.875C199.961 27.1722 199.788 28.9141 199.529 30.656C199.01 33.6169 197.281 36.2298 194.946 38.1458C192.871 39.7135 190.277 40.4973 187.683 40.5845C186.732 40.7587 185.781 40.5845 184.83 40.4973C182.409 40.2361 180.074 39.2779 178.086 37.7975C177.567 37.3621 177.048 36.8396 176.529 36.317C175.492 35.2718 174.714 33.8783 174.195 32.4848C173.244 30.1334 173.157 27.6075 173.33 25.0819C173.59 22.0337 174.887 19.1597 177.048 16.9825C179.642 14.5438 183.273 13.2374 186.991 13.3245ZM94.2162 14.1083H104.332C105.284 14.1954 106.321 14.1083 107.272 14.1954V19.7692C105.543 19.7692 103.727 19.7692 101.998 19.7692C101.133 19.7692 100.269 19.7692 99.4039 19.8565V24.0368C101.652 24.124 103.813 24.0368 106.062 24.0368C106.321 24.0368 106.58 23.9498 106.84 24.2109C106.926 26.0401 106.84 27.8689 106.84 29.6978C104.765 29.785 102.776 29.6978 100.701 29.6978C100.269 29.6978 99.8362 29.6978 99.4039 29.6108C99.2311 31.0913 99.3174 32.659 99.3174 34.1395H107.099V39.8005C106.062 39.8877 105.024 39.8005 103.987 39.8877C100.269 39.8877 96.4643 39.8877 92.7464 39.8877C92.6598 39.5394 92.5733 39.2779 92.5733 38.9296C92.5733 30.656 92.5733 22.469 92.5733 14.2825C93.2652 14.1954 93.6974 14.1083 94.2162 14.1083ZM143.587 14.2825C144.106 14.1083 144.797 14.1954 145.402 14.1954H157.767C158.891 14.1954 160.015 14.2825 161.225 14.2825V19.8565C159.41 19.9434 157.507 19.8565 155.692 19.9434V37.4491C155.692 38.32 155.778 39.191 155.605 39.9747C153.79 39.9747 151.887 39.9747 149.985 39.9747C149.639 39.9747 149.293 39.8877 149.034 39.8877C149.121 33.2685 149.034 26.6496 149.034 20.0307C147.218 19.7692 145.402 20.0307 143.587 19.9434C143.587 17.9404 143.5 16.1114 143.587 14.2825ZM167.883 14.1083C168.661 14.1083 169.44 14.1083 170.217 14.1954C170.304 15.2405 170.217 16.2857 170.217 17.3306V37.4491C170.217 38.2328 170.304 39.0168 170.131 39.8877C168.056 39.8005 165.894 39.8877 163.819 39.8877C163.473 39.8877 163.56 39.5394 163.56 39.2779C163.56 30.9171 163.56 22.5563 163.56 14.1954C164.943 14.0212 166.413 14.1954 167.883 14.1083ZM206.1 14.1083H215.265C216.043 14.1083 216.735 14.1954 217.427 14.1954V19.7692C215.87 19.8565 214.314 19.7692 212.758 19.7692C211.634 19.7692 210.596 19.6823 209.472 19.8565V24.0368C211.98 24.0368 214.4 23.9498 216.908 24.0368V29.6978C215.265 29.6978 213.622 29.6978 212.066 29.6978C211.201 29.6978 210.337 29.6108 209.472 29.785V33.9653C210.337 34.1395 211.201 34.0525 212.066 34.0525H217.427V39.5394C217.081 39.6263 216.821 39.7135 216.476 39.7135C212.844 39.7135 209.299 39.7135 205.668 39.7135C204.717 39.7135 203.852 39.8005 202.901 39.6263C202.901 31.0913 202.901 22.5563 202.901 14.0212C203.938 14.1083 205.062 14.1083 206.1 14.1083ZM84.4458 31.1785C84.0136 30.656 83.5811 30.1334 83.2354 29.6108C83.2354 29.5236 83.2354 29.3494 83.2354 29.2624C84.7052 29.001 86.0885 28.2173 87.0396 26.998C87.9909 25.6917 88.596 24.0368 88.596 22.3821C88.6825 20.466 88.3366 18.463 86.9533 16.8952C85.5697 15.3276 83.7542 14.6309 81.7656 14.2825C78.8256 14.0212 75.8859 14.1083 72.8597 14.1083C71.9086 14.1083 70.9576 14.1083 70.0063 14.1083C69.6606 14.718 69.92 15.763 69.92 16.4599V36.7523C69.92 37.7975 69.6606 38.7554 69.92 39.7135C70.9576 39.8877 71.9952 39.8005 73.0325 39.8005H75.8859C76.1453 39.8005 76.4913 39.8005 76.4913 39.3652C76.5776 36.2298 76.4913 33.0943 76.5776 29.9592C77.1829 30.656 77.6152 31.4397 78.134 32.2237C79.7766 34.662 81.2468 37.2749 82.8894 39.7135C83.4948 39.8005 84.1864 39.7135 84.7915 39.7135H89.893C90.2389 39.7135 90.5846 39.6263 91.0171 39.5394C88.7691 36.8396 86.521 34.0525 84.4458 31.1785ZM81.5062 23.4272C81.333 24.2109 80.728 24.7335 80.1226 25.0819C78.9122 25.6917 77.7017 25.6045 76.4047 25.6045C76.4047 23.4272 76.4047 21.3369 76.4047 19.1597C77.788 19.2467 79.6038 19.1597 80.728 20.1176C81.679 20.9886 81.7656 22.3821 81.5062 23.4272ZM239.561 35.7072C238.437 34.1395 237.227 32.659 236.103 31.1785C235.67 30.5687 235.065 30.0462 234.892 29.3494C236.535 29.0883 238.005 28.0431 238.956 26.7368C240.512 24.3851 240.685 21.0758 239.561 18.463C239.215 17.5048 238.351 16.7211 237.659 16.1114C236.362 15.0663 234.633 14.4567 232.99 14.3696C230.742 14.1083 228.407 14.2825 226.073 14.2825C224.603 14.2825 223.047 14.2825 221.577 14.3696C221.491 14.9792 221.577 15.5889 221.577 16.1985V39.191C221.577 39.4521 221.577 39.7135 221.663 39.9747C223.825 40.0619 225.987 39.9747 228.148 39.9747C228.235 37.6233 228.148 35.2718 228.148 32.9202C228.148 31.9622 228.062 31.0913 228.321 30.1334C230.31 33.1816 232.125 36.2298 234.114 39.2779C234.373 39.5394 234.46 39.9747 234.892 39.8877H242.674C241.723 38.4942 240.599 37.1007 239.561 35.7072ZM231.866 25.1691C230.742 25.6917 229.445 25.7786 228.321 25.6917C228.235 25.6045 228.148 25.4303 228.148 25.2561C228.148 24.2109 228.148 23.0788 228.148 22.0337C228.148 21.0758 228.062 20.2048 228.235 19.2467C229.013 19.2467 229.877 19.2467 230.656 19.5081C231.434 19.6823 232.212 19.9434 232.817 20.6402C233.855 21.9467 233.509 24.2982 231.866 25.1691ZM132.952 22.5563C132.606 21.5984 132.174 20.7274 131.568 19.8565C130.877 18.8983 130.185 18.0273 129.32 17.3306C127.159 15.4147 124.392 14.2825 121.539 14.1954C119.377 14.0212 117.129 14.1083 114.967 14.1083C113.757 14.1083 112.547 14.0212 111.336 14.2825V37.5363C111.336 38.32 111.25 39.1038 111.422 39.9747C113.93 39.8877 116.437 39.9747 118.945 39.9747C120.933 39.9747 122.922 39.9747 124.824 39.2779C126.035 38.8426 127.072 38.32 128.11 37.6233C129.234 36.7523 130.271 35.8814 131.05 34.7493C133.73 31.2655 134.335 26.5626 132.952 22.5563ZM126.554 28.9141C126.208 30.656 125.17 32.2237 123.614 33.0943C121.884 34.1395 119.982 34.1395 117.994 34.1395C117.994 29.4366 117.994 24.6465 117.994 19.9434L118.08 19.8565C118.858 19.7692 119.636 19.7692 120.415 19.8565C122.317 19.9434 124.219 20.9016 125.429 22.4693C126.208 23.5142 126.554 24.6466 126.726 25.9528C126.899 26.911 126.726 27.9559 126.554 28.9141Z" fill="#E52F31"/>
<path d="M50.2635 37.4586C48.7936 41.1166 45.508 42.3359 45.508 42.3359C48.3614 38.4168 49.8312 34.4977 50.0041 29.7945C49.2259 30.7524 48.102 30.7524 48.102 30.7524C49.5718 27.9657 49.9178 24.9175 50.0041 22.1305C49.8312 22.9142 49.2259 24.2207 49.053 24.7433C48.2748 27.0075 47.2372 29.0108 45.2486 30.5783C46.2862 31.9718 46.6321 33.4525 45.7674 35.0202C44.4704 37.0233 43.1737 39.2877 42.5683 41.7261C42.5683 41.7261 41.2713 38.3296 43.3465 35.5425C44.0381 34.5846 44.2975 33.4525 44.1247 32.4074C43.8653 30.7524 42.3955 30.4041 42.6549 28.5752C41.5307 27.7043 38.6773 26.5722 37.4669 25.4398C38.1588 24.4819 40.0609 25.527 40.9253 26.0496C41.9629 26.6591 43.4328 27.4431 44.3841 27.0075C45.3351 26.5722 45.5945 25.527 45.4217 24.3949C43.9516 24.8303 42.8277 24.3077 42.3089 22.9142C42.8277 22.9142 43.7787 22.8272 44.3841 22.5658C45.8539 21.9563 45.9402 21.3465 46.1996 20.0402C45.6811 20.6497 44.5569 20.9111 43.9516 20.6497C43.9516 20.6497 47.4966 17.863 47.4103 14.1179C47.4103 13.0728 46.9778 10.6342 46.9778 10.6342C48.2748 11.2439 48.5342 11.9406 49.1396 13.1599C49.1396 13.1599 52.2521 12.9857 52.3387 9.76327C51.7333 10.46 51.1282 10.7213 50.6957 10.5471C50.6957 10.1116 51.1282 9.06654 51.647 8.97944C53.4626 6.97631 53.9814 4.45062 53.8951 1.83785C53.6357 0.270173 52.1658 -0.339464 50.7823 0.183078C47.4103 1.92495 44.9892 2.88296 41.0119 3.31841C38.7639 3.57969 37.9857 3.40551 36.9481 2.97006C38.9367 6.27955 44.6435 4.88609 47.0644 3.92808C46.459 4.799 43.4328 6.27955 43.4328 6.27955C43.4328 6.27955 45.6811 6.36665 46.6321 5.84411C46.1133 7.32467 45.3351 8.19561 44.6435 8.80525C44.9892 10.9826 45.8539 13.5953 44.3841 16.121C43.3465 17.7757 42.3955 18.8209 40.8391 19.9532C39.0233 21.2595 36.343 21.6079 34.1812 21.2595C35.1325 20.3886 35.3054 19.866 36.2564 19.779C39.4555 19.5176 40.5797 17.9499 41.7901 16.0339C42.7411 14.5533 43.6922 12.5502 43.4328 10.3729C42.9143 11.5922 42.7411 12.1148 41.4441 13.0728C39.5421 14.5533 37.294 12.7244 34.6137 15.3372C33.3167 16.7306 33.0573 18.7339 31.1552 19.5176C30.7227 19.4307 30.9821 18.2113 31.1552 17.9499C31.4144 16.992 29.7717 16.7306 30.6364 16.121C31.7603 15.4243 32.9708 14.4663 33.749 12.7244C32.7114 12.8115 31.7603 12.289 31.8469 11.418C33.4896 11.8535 35.046 11.7664 36.5158 11.3309C34.7866 11.1568 33.3167 10.7213 32.5385 9.93746C32.3657 9.76327 32.452 9.50198 32.6251 9.50198C34.7 9.76327 37.7263 9.76327 40.0609 8.63106C36.0836 8.36978 33.4896 8.63106 31.8469 6.80212C31.5875 6.54084 31.0687 5.75701 30.9821 5.32154C32.9708 5.84411 34.8731 5.75701 36.7752 5.23444C35.997 4.62481 33.3167 2.70877 26.7454 2.70877C20.0878 2.70877 17.4939 4.62481 16.7157 5.23444C18.6179 5.75701 20.5201 5.84411 22.5087 5.32154C22.4222 5.75701 21.9034 6.54084 21.644 6.80212C20.0013 8.54397 17.4939 8.36978 13.4301 8.63106C15.7646 9.85036 18.7908 9.76327 20.866 9.50198C21.0389 9.50198 21.1253 9.76327 20.9524 9.93746C20.1742 10.7213 18.6179 11.1568 16.9751 11.3309C18.5314 11.7664 20.0013 11.8535 21.644 11.418C21.7305 12.2019 20.7795 12.8115 19.7419 12.7244C20.5201 14.4663 21.7305 15.4243 22.8547 16.121C23.8057 16.7306 22.0765 16.992 22.3359 17.9499C22.5087 18.2113 22.7681 19.4307 22.3359 19.5176C20.4336 18.6467 20.1742 16.7306 18.8773 15.3372C16.1969 12.6373 14.0353 14.5533 12.0467 13.0728C10.8362 12.1148 10.6633 11.5922 10.058 10.3729C9.79863 12.5502 10.7497 14.4663 11.7008 16.0339C12.9113 17.9499 14.1218 19.5176 17.2345 19.779C18.1856 19.866 18.3585 20.3886 19.3096 21.2595C17.148 21.6079 14.4676 21.1723 12.6519 19.9532C11.0956 18.8209 10.1445 17.7757 9.1069 16.121C7.55059 13.6824 8.50166 10.9826 8.84753 8.80525C8.15581 8.19561 7.37763 7.23757 6.85886 5.84411C8.24228 6.27955 10.4903 6.27955 10.4903 6.27955C10.4903 6.27955 7.46411 4.799 6.85886 3.92808C9.36631 4.799 14.9864 6.19246 16.9751 2.97006C15.9375 3.40551 15.0729 3.57969 12.9113 3.31841C8.93398 2.88296 6.51301 1.92495 3.14092 0.183078C1.75752 -0.339464 0.287626 0.270173 0.0282531 1.83785C-0.144671 4.53771 0.460578 6.97631 2.2763 8.97944C2.79507 9.06654 3.22739 10.1116 3.22739 10.5471C2.79507 10.7213 2.18982 10.46 1.5846 9.76327C1.67105 12.9857 4.78374 13.1599 4.78374 13.1599C5.38899 11.9406 5.64836 11.2439 6.94534 10.6342C6.94534 10.6342 6.59946 13.0728 6.51301 14.1179C6.34009 17.863 9.97155 20.6497 9.97155 20.6497C9.36631 20.9111 8.24228 20.6497 7.72351 20.0402C7.98288 21.3465 8.06936 21.9563 9.53923 22.5658C10.1445 22.8272 11.0956 22.9142 11.6144 22.9142C11.0956 24.3077 9.97155 24.8303 8.50166 24.3949C8.24228 25.527 8.58813 26.6591 9.53923 27.0075C10.4903 27.4431 11.9602 26.6591 12.9978 26.0496C13.8624 25.527 15.6781 24.5691 16.4563 25.4398C15.2458 26.5722 12.3925 27.7043 11.2685 28.5752C11.5279 30.3171 10.058 30.7524 9.79863 32.4074C9.53923 33.4525 9.88508 34.5846 10.5768 35.5425C12.5654 38.4168 11.355 41.7261 11.355 41.7261C10.7497 39.2877 9.53923 37.0233 8.15581 35.0202C7.20471 33.4525 7.63703 31.9718 8.67461 30.5783C6.68594 29.0108 5.64836 27.0075 4.87019 24.7433C4.69727 24.2207 4.09204 22.9142 3.91909 22.1305C3.91909 25.0045 4.35142 27.9657 5.82129 30.7524C5.82129 30.7524 4.78374 30.7524 3.91909 29.7945C4.00557 34.4977 5.56191 38.4168 8.41521 42.3359C8.41521 42.3359 5.12959 41.2036 3.65972 37.4586C1.3252 31.5364 1.67105 24.8303 1.67105 24.8303C1.67105 24.8303 -0.922844 30.5783 1.3252 37.807C2.0169 40.0715 2.70862 41.9875 3.57324 43.2938C3.83264 43.6422 5.12959 44.5132 5.90776 45.3841C6.16716 44.6004 6.42654 43.9036 6.42654 43.9036C6.42654 43.9036 7.46411 44.5132 8.15581 45.3841C9.02046 46.5162 10.058 47.997 10.058 47.997C10.6633 46.342 10.8362 45.123 11.8738 45.123C12.9978 45.123 12.9978 48.2581 13.2572 49.129C14.4676 48.3453 17.4074 47.3002 19.0502 47.9097C20.3472 48.3453 20.9524 49.3905 22.2493 49.913L22.6816 50C24.3245 49.913 25.6215 49.8258 27.0914 49.7389C28.3884 49.8258 29.7717 49.913 31.5009 50L31.8469 49.913C33.1439 49.3905 33.749 48.3453 35.046 47.9097C36.6887 47.3002 39.6286 48.2581 40.8391 49.129C41.0985 48.2581 41.0985 45.123 42.2223 45.123C43.3465 45.123 43.4328 46.342 44.0381 47.997C44.0381 47.997 45.0757 46.5162 45.9402 45.3841C46.6321 44.5132 47.6697 43.9036 47.6697 43.9036C47.6697 43.9036 47.9291 44.6004 48.1883 45.3841C48.9665 44.6004 50.2635 43.6422 50.5229 43.2938C51.3876 41.9875 52.0793 40.0715 52.7709 37.807C55.019 30.5783 52.4252 24.8303 52.4252 24.8303C52.4252 24.8303 52.6846 31.5364 50.2635 37.4586ZM36.7752 15.7726C37.8128 15.163 39.888 15.5114 39.888 15.5114C39.888 15.5114 39.2827 17.3404 38.2451 18.0371C37.294 18.6467 36.4293 18.4725 36.0836 17.863C35.6513 17.079 35.9107 16.208 36.7752 15.7726ZM17.7533 17.7757C17.4074 18.3855 16.5428 18.5597 15.5917 17.9499C14.5541 17.2532 13.9489 15.4243 13.9489 15.4243C13.9489 15.4243 16.024 15.163 17.0616 15.6856C17.9262 16.208 18.1856 17.079 17.7533 17.7757ZM21.9899 24.8303C22.5087 24.8303 22.5087 25.9624 23.0275 26.4849C23.7192 27.0947 25.4484 27.0075 26.9183 27.0075C28.2153 27.0075 30.1176 27.0947 30.8093 26.4849C31.4144 25.9624 31.3281 24.8303 31.8469 24.8303C32.8845 24.9175 32.1926 27.0947 31.3281 27.6173C30.377 28.2268 28.5612 28.401 26.9183 28.3141C25.1027 28.4882 23.4598 28.2268 22.5087 27.6173C21.644 27.0947 20.9524 24.9175 21.9899 24.8303ZM15.1594 36.1523C16.6292 36.3265 18.6179 36.6749 20.0878 35.8039C20.4336 35.1944 19.569 35.1072 18.6179 35.1072C17.148 35.1072 15.2458 34.4977 14.9 33.0169C16.3698 34.1493 19.0502 34.3235 19.8284 33.6267C17.7533 32.8427 15.5917 32.3202 15.0729 29.4462C15.8511 30.3171 18.0127 32.059 19.8284 31.3622C18.6179 30.056 17.9262 29.0978 16.8022 27.9657C16.4563 27.5301 17.6668 27.4431 17.7533 27.0947C18.0127 26.1366 17.4939 24.8303 18.0991 23.9593C18.3585 23.2626 19.1367 22.653 19.9149 22.8272C19.8284 24.0465 19.569 25.2656 19.8284 26.6591C20.3472 28.6624 22.0765 29.8818 23.7192 30.8397C24.5839 31.1881 26.0538 31.3622 26.2266 32.4943V35.1072C26.2266 35.1072 25.2756 36.5877 23.8057 37.0233C21.7305 37.72 19.3961 38.3296 16.9751 38.0684C16.024 38.0684 15.3323 37.0233 15.1594 36.1523ZM34.1812 44.5132C33.4033 44.7746 34.2678 46.342 33.6627 46.8646C32.5385 47.7355 31.5009 48.2581 30.0311 48.2581C29.08 48.2581 27.5236 48.0839 27.0048 47.213V47.126C26.3132 48.0839 24.8434 48.1711 23.8923 48.1711C22.4222 48.1711 21.2983 47.6486 20.1742 46.7776C19.569 46.2551 20.3472 44.6873 19.6555 44.4262C18.6179 44.0778 17.6668 46.342 16.2834 46.342C16.7157 43.3811 18.9638 41.465 21.644 40.3329C23.2869 39.7231 25.0162 39.4619 27.0048 39.4619C28.8206 39.4619 30.7227 39.7231 32.2791 40.3329C34.9594 41.3777 37.1212 43.2938 37.64 46.342C36.2564 46.4292 35.2188 44.1648 34.1812 44.5132ZM33.749 35.8039C35.1325 36.6749 37.2075 36.3265 38.6773 36.1523C38.5045 37.0233 37.8994 38.0684 36.6887 38.1554C34.2678 38.4168 31.9332 37.8942 29.8582 37.1102C28.3884 36.5877 27.4371 35.1944 27.4371 35.1944C27.4371 34.3235 27.4371 33.4525 27.4371 32.5816C27.6965 31.4492 29.08 31.275 29.9445 30.9266C31.6738 29.9687 33.3167 28.7494 33.8355 26.7464C34.0949 25.3528 33.8355 24.1335 33.749 22.9142C34.5272 22.653 35.3054 23.2626 35.5648 24.0465C36.1699 24.9175 35.6513 26.2238 35.9107 27.1817C35.997 27.5301 37.2075 27.6173 36.8618 28.0526C35.7376 29.185 35.1325 30.1429 33.8355 31.4492C35.5648 32.146 37.7263 30.4041 38.591 29.5334C38.0722 32.3202 35.9107 32.93 33.8355 33.7137C34.7 34.4104 37.294 34.2362 38.7639 33.1041C38.4182 34.5846 36.6024 35.1944 35.046 35.1944C34.2678 35.1072 33.4033 35.1944 33.749 35.8039Z" fill="#F02029"/>
</svg>
