<svg width="266" height="50" viewBox="0 0 266 50" fill="none" xmlns="http://www.w3.org/2000/svg">
<path fill-rule="evenodd" clip-rule="evenodd" d="M0.902301 5.12429C0.60226 4.41373 0.30394 3.70725 0 3.00972C10.5262 -2.72225 23.2301 -0.0737933 30.2085 9.31022C30.8866 14.4378 29.9255 19.6516 27.4681 24.1785C8.69528 23.5795 4.66339 14.0313 0.902301 5.12429ZM4.96733 36.6026C8.54234 31.0074 14.273 26.4715 26.472 25.8579C29.1133 25.7244 32.0518 25.7722 35.3442 26.0375C33.9094 46.5509 14.7982 55.0474 0 46.9893C0.308403 46.2828 0.610848 45.5672 0.915016 44.8475C2.09133 42.0645 3.29514 39.2191 4.96733 36.6026ZM71.5025 16.8147H79.4107L86.3296 37.5429L92.7555 16.8147H100.419L89.7907 46.5509H82.685L71.5025 16.8147ZM99.2085 31.7451C99.2085 22.675 105.388 16.2496 114.223 16.2496C122.998 16.2496 129.177 22.675 129.177 31.7451C129.177 40.6923 122.874 47.1175 114.039 47.1175C105.262 47.1175 99.2085 40.8173 99.2085 31.7451ZM121.388 31.934V31.6828C121.388 26.015 118.668 22.6109 114.221 22.6109C109.711 22.6109 106.991 26.015 106.991 31.6828V31.934C106.991 37.477 109.646 40.7546 114.097 40.7546C118.607 40.7546 121.388 37.4805 121.388 31.934ZM132.657 4.153H140.382V46.5509H132.657V4.153ZM144.79 34.645V16.8147H152.452V34.2029C152.452 38.1722 154.305 40.5034 157.766 40.5034C161.781 40.5034 163.452 37.0386 163.452 31.9358V16.8181H171.114V46.5544H163.452V42.3339C161.907 45.4209 159.248 47.1245 155.481 47.1245C148.866 47.1175 144.79 42.3286 144.79 34.645ZM178.116 38.675V23.1151H173.975V16.8147H178.116V11.2092L185.591 6.9228V16.8147H191.338V23.1151H185.53V37.9209C185.53 39.3698 186.208 40.0009 187.629 40.0615H191.029V46.5509H185.098C179.473 46.2355 178.239 43.5904 178.116 38.675ZM194.818 4.84459H202.788V12.4676H194.818V4.84459ZM194.944 16.8147H202.669V46.5509H194.944V16.8147ZM206.149 31.7451C206.149 22.675 212.328 16.2496 221.164 16.2496C229.938 16.2496 236.117 22.675 236.117 31.7451C236.117 40.6923 229.816 47.1175 220.979 47.1175C212.206 47.1175 206.149 40.8173 206.149 31.7451ZM228.333 31.9323V31.6828C228.333 26.015 225.613 22.6109 221.164 22.6109C216.655 22.6109 213.934 26.015 213.934 31.6828V31.934C213.934 37.477 216.59 40.7546 221.039 40.7546C225.55 40.7546 228.333 37.4788 228.333 31.9323ZM239.538 16.8147H247.2V21.668C248.745 18.2012 251.587 16.1855 255.728 16.1855C262.093 16.1855 265.862 20.5327 265.862 28.7223V46.5509H258.2V29.1627C258.2 25.0062 256.655 22.8622 253.073 22.8622C249.425 22.8622 247.203 25.8868 247.203 31.4298V46.5492H239.54L239.538 16.8147ZM27.4681 24.1785C29.848 24.2545 32.4609 24.1916 35.3442 23.9593C34.9294 18.04 33.0406 13.1227 30.2102 9.31299C30.8883 14.4405 29.9272 19.6545 27.4698 24.1811L27.4681 24.1785ZM43.242 4.7185H72.9611V11.5858H50.9651V21.6024H65.6087V28.4695H50.9651V39.6841H73.6426V46.553H43.242V4.7185Z" fill="white"/>
</svg>
