<svg width="132" height="45" viewBox="0 0 132 45" fill="none" xmlns="http://www.w3.org/2000/svg">
<path d="M94.6307 10.8098C97.6187 10.8098 100.038 8.39044 100.038 5.40724C100.038 2.42405 97.6171 0 94.6307 0C91.6444 0 89.2282 2.42247 89.2282 5.40724C89.228 6.11685 89.3676 6.81954 89.639 7.47518C89.9104 8.13083 90.3083 8.72659 90.81 9.22842C91.3117 9.73026 91.9074 10.1283 92.5629 10.3999C93.2185 10.6715 93.9211 10.8098 94.6307 10.8098ZM53.2156 13.7237C52.9715 14.3537 51.2153 19.2994 46.9673 24.4389V2.45712L35.6503 4.69374V44.5432H46.9689V32.2261C50.2482 37.1404 51.8673 44.5432 51.8673 44.5432H65.424C64.0852 38.9675 58.2181 28.6901 58.2181 28.6901C61.7039 24.1939 64.3908 19.1319 66.1612 13.7252L53.2156 13.7237ZM82.9689 13.3078C72.8332 13.6339 67.6859 18.1811 67.6859 27.2221V44.5417H78.7461V30.4195C78.7461 25.0075 79.4549 22.7016 85.878 22.4653V13.4716C84.7975 13.2417 82.9689 13.3141 82.9689 13.3141M16.6706 18.1181C15.2846 18.0284 12.0746 17.8189 12.0746 14.9302C12.0746 11.4445 16.6943 11.4445 18.4284 11.4445C21.4762 11.4445 25.4218 12.3423 28.2412 13.1881C29.2013 13.5876 30.1719 13.9615 31.1519 14.3096L31.2779 14.3442V4.79296L31.1078 4.74256C27.7812 3.577 23.9144 2.4587 16.7431 2.4587C4.37872 2.4587 0 9.65996 0 15.8311C0 19.3876 1.52467 27.7592 15.6831 28.7247C16.8833 28.7987 20.0681 28.9815 20.0681 31.9694C20.0681 34.4344 17.4597 35.8882 13.0747 35.8882C8.27074 35.8882 3.60378 34.6628 0.773362 33.5004V43.3336C5.01347 44.444 9.79227 45 15.3948 45C27.4836 45 32.8971 38.1862 32.8971 31.4323C32.8971 23.7742 26.8393 18.8001 16.6738 18.1181M89.1526 44.548H100.121V13.7615H89.1495L89.1526 44.548ZM120.777 4.42282V44.548H131.749V2.46185L120.777 4.42282ZM104.77 4.42282L115.729 2.46185V44.548H104.77V4.41967V4.42282Z" fill="#862565"/>
</svg>
