<svg width="166" height="50" viewBox="0 0 166 50" fill="none" xmlns="http://www.w3.org/2000/svg">
<g clip-path="url(#clip0_2541_3437)">
<path fill-rule="evenodd" clip-rule="evenodd" d="M83.6134 0.0656438C83.6134 0.10126 83.4332 0.152277 83.2127 0.17923C82.9934 0.206182 82.8132 0.26105 82.8132 0.300516C82.8132 0.339982 82.7035 0.372711 82.571 0.372711C82.4291 0.372711 82.3092 0.418916 82.2813 0.48437C82.2553 0.547902 82.1362 0.595068 82.0049 0.595068C81.8773 0.595068 81.773 0.628759 81.773 0.670152C81.773 0.710579 81.7003 0.74427 81.6104 0.74427C81.5214 0.74427 81.4292 0.78855 81.4064 0.843418C81.3847 0.897323 81.2408 0.987807 81.0898 1.04267C80.9375 1.0985 80.8124 1.17936 80.8124 1.22268C80.8124 1.30835 80.448 1.48835 80.2772 1.48835C80.2191 1.48835 80.1736 1.52397 80.1736 1.56825C80.1736 1.67125 79.9697 1.85991 79.8579 1.85991C79.8112 1.85991 79.7729 1.90516 79.7729 1.95906C79.7729 2.01393 79.6829 2.10345 79.5732 2.15832C79.4624 2.21222 79.3724 2.3027 79.3724 2.35661C79.3724 2.41148 79.3341 2.45575 79.2864 2.45575C79.1767 2.45575 78.9727 2.64443 78.9727 2.74839C78.9727 2.7917 78.9149 2.82732 78.8434 2.82732C78.7606 2.82732 78.7317 2.86775 78.7626 2.94282C78.7908 3.0102 78.7772 3.03909 78.7317 3.01309C78.6882 2.98807 78.6177 3.05257 78.5742 3.15748C78.532 3.26336 78.4573 3.34809 78.4086 3.34809C78.3621 3.34809 78.3456 3.38273 78.3725 3.42316C78.4004 3.46454 78.3663 3.51943 78.2969 3.54252C78.2286 3.56754 78.1728 3.63398 78.1728 3.69173C78.1728 3.74852 78.1458 3.79473 78.1127 3.79568C78.0309 3.79568 77.7721 4.22693 77.7721 4.36073C77.7721 4.42041 77.7182 4.48779 77.6519 4.51186C77.5867 4.53591 77.533 4.63507 77.533 4.73325C77.533 4.83048 77.4967 4.91036 77.4522 4.91036C77.4087 4.91036 77.3726 5.0278 77.3726 5.17123C77.3726 5.35316 77.3362 5.43114 77.2524 5.43114C77.1654 5.43114 77.1323 5.51486 77.1323 5.72952C77.1323 5.89318 77.0962 6.02793 77.0527 6.02793C77.006 6.02793 76.9719 6.26279 76.9719 6.58527C76.9719 7.03095 76.9481 7.14357 76.853 7.14357C76.7462 7.14357 76.7318 7.79525 76.7318 12.5687C76.7318 17.2931 76.7484 18.0093 76.853 18.1065C76.9358 18.1845 76.9719 18.376 76.9719 18.7447C76.9719 19.045 77.0072 19.2703 77.0527 19.2703C77.0962 19.2703 77.1323 19.4128 77.1333 19.587C77.1333 19.7602 77.1872 19.999 77.2524 20.1164C77.3187 20.2339 77.3726 20.4235 77.3726 20.538C77.3726 20.6526 77.4109 20.7575 77.4574 20.7729C77.5038 20.7873 77.5454 20.9096 77.5506 21.0463C77.5535 21.181 77.6054 21.31 77.6645 21.3312C77.7243 21.3524 77.7721 21.4313 77.7721 21.5064C77.7721 21.5815 77.8084 21.6633 77.8529 21.6893C77.8964 21.7143 77.9325 21.801 77.9325 21.8818C77.9325 21.9627 77.9864 22.0474 78.0526 22.0705C78.1189 22.0945 78.1728 22.1937 78.1728 22.2919C78.1728 22.3901 78.2079 22.47 78.2524 22.47C78.2969 22.47 78.3332 22.5537 78.3332 22.6557C78.3332 22.7711 78.3777 22.8416 78.4521 22.8416C78.5216 22.8416 78.5723 22.9089 78.5723 23.0014C78.5723 23.088 78.6622 23.237 78.772 23.3325C78.8827 23.4268 78.9727 23.5539 78.9727 23.6145C78.9727 23.6752 79.0629 23.7898 79.1727 23.8705C79.2825 23.9505 79.3724 24.0534 79.3724 24.0986C79.3724 24.1584 80.7513 24.1814 84.2935 24.1814H89.2145V23.9157C89.2145 23.6559 89.0707 23.4373 88.8998 23.4373C88.8524 23.4373 88.8141 23.4057 88.8141 23.368C88.8141 23.3295 88.7342 23.2748 88.6381 23.2459C88.4309 23.1852 88.2539 23.035 88.2539 22.9214C88.2539 22.8782 88.2188 22.8416 88.1753 22.8416C88.1318 22.8416 87.9671 22.725 87.8077 22.5816C87.6495 22.4372 87.4507 22.3217 87.3669 22.3217C87.2829 22.3217 87.2137 22.2851 87.2137 22.2409C87.2137 22.1379 87.0107 21.9492 86.899 21.9492C86.8523 21.9492 86.8142 21.8991 86.8142 21.8375C86.8142 21.8228 86.811 21.8082 86.8048 21.7946C86.7986 21.781 86.7897 21.7686 86.7786 21.7582C86.7672 21.7479 86.7539 21.7396 86.7393 21.7341C86.7245 21.7285 86.7089 21.7257 86.6931 21.7259C86.6278 21.7259 86.5739 21.6922 86.5739 21.6517C86.5739 21.6104 86.5181 21.5767 86.4508 21.5767C86.4145 21.5745 86.3794 21.563 86.3497 21.5434C86.3198 21.5239 86.2966 21.4971 86.282 21.466C86.2573 21.4044 86.2044 21.3533 86.165 21.3533C86.0667 21.3533 85.4538 20.7758 85.4538 20.6843C85.4538 20.643 85.399 20.6093 85.3327 20.6093C85.2675 20.6093 85.2138 20.5477 85.2138 20.4716C85.2138 20.3946 85.1236 20.2695 85.0128 20.1925C84.9031 20.1155 84.8131 20.0115 84.8131 19.9595C84.8131 19.9085 84.7592 19.8661 84.693 19.8661C84.6237 19.8661 84.5731 19.7988 84.5731 19.7073C84.5731 19.6197 84.4828 19.4705 84.3731 19.3752C84.2636 19.2809 84.1733 19.1346 84.1733 19.0508C84.1733 18.9671 84.1372 18.8987 84.0937 18.8987C84.0492 18.8987 84.0129 18.8304 84.0129 18.7476C84.0129 18.6648 83.9593 18.5772 83.8928 18.5532C83.8268 18.5301 83.7729 18.4309 83.7729 18.3318C83.7729 18.2355 83.7375 18.1547 83.693 18.1547C83.6495 18.1547 83.6134 18.0372 83.6134 17.8947C83.6134 17.7119 83.5771 17.6339 83.4933 17.6339C83.4075 17.6339 83.3731 17.5521 83.3731 17.3422C83.3731 17.1824 83.3381 17.039 83.2955 17.0255C83.2533 17.0121 83.2107 16.809 83.2023 16.5731C83.1922 16.2709 83.1568 16.1457 83.0802 16.1457C82.9106 16.1457 82.922 7.77504 83.0928 7.6162C83.1591 7.55461 83.2127 7.40443 83.2127 7.28218C83.2127 7.1532 83.2471 7.08004 83.2936 7.10604C83.3371 7.13107 83.3731 7.09929 83.3731 7.03577C83.3731 6.97223 83.4063 6.92025 83.4478 6.92025C83.4891 6.92025 83.5472 6.84614 83.5783 6.75661C83.6433 6.56409 83.806 6.39852 83.9271 6.39852C83.9746 6.39852 84.0129 6.34848 84.0129 6.28784C84.0129 6.21757 84.0885 6.1752 84.2139 6.1752C84.3234 6.1752 84.4136 6.14248 84.4136 6.10302C84.4136 6.06259 84.5036 6.00868 84.6134 5.98366C84.7231 5.95766 84.8131 5.90664 84.8131 5.87007C84.8131 5.8335 84.955 5.80366 85.1288 5.80366C85.3018 5.80366 85.4662 5.76995 85.4932 5.72952C85.5211 5.68814 85.6133 5.65541 85.6981 5.65541C85.7841 5.65541 85.8536 5.68814 85.8536 5.72952C85.8536 5.76995 86.0293 5.80366 86.2446 5.80366C86.519 5.80366 86.6506 5.83734 86.6827 5.91532C86.7084 5.97691 86.7934 6.02698 86.873 6.02698C86.9529 6.02698 87.0698 6.09436 87.1338 6.1752C87.1971 6.258 87.2893 6.32441 87.3378 6.32441C87.3865 6.32441 87.4745 6.40816 87.5345 6.51018C87.5926 6.61318 87.6888 6.69693 87.7479 6.69693C87.8057 6.69693 87.8534 6.747 87.8534 6.80764C87.8534 6.86923 87.8895 6.92025 87.934 6.92025C87.9775 6.92025 88.0139 7.00304 88.0139 7.10604C88.0139 7.22154 88.0593 7.29182 88.134 7.29182C88.2435 7.29182 88.3058 7.61332 88.2601 7.94252C88.2529 7.99354 88.2841 8.03591 88.3305 8.03591C88.3864 8.03591 88.4133 8.72127 88.4133 10.119V12.202H94.4947V9.22373C94.4947 6.64495 94.4784 6.2397 94.3749 6.20216C94.294 6.17329 94.2547 6.05489 94.2547 5.83734C94.2547 5.66023 94.2184 5.4937 94.1751 5.46866C94.1304 5.44364 94.0943 5.34545 94.0943 5.25016C94.0921 5.15091 94.049 5.0562 93.9741 4.98545C93.899 4.91302 93.8565 4.81659 93.8552 4.71593C93.8552 4.6187 93.8189 4.53879 93.7744 4.53879C93.7309 4.53879 93.6948 4.45507 93.6948 4.35302C93.6948 4.25002 93.6585 4.16725 93.614 4.16725C93.5705 4.16725 93.4711 4.03248 93.3954 3.86884C93.3191 3.7052 93.2113 3.57141 93.1554 3.57141C93.1005 3.57141 93.0541 3.50691 93.0541 3.42893C93.0541 3.35098 92.9193 3.15941 92.7547 3.00155C92.5903 2.84464 92.465 2.69064 92.4754 2.6608C92.4857 2.62998 92.4556 2.60495 92.4091 2.60495C92.2984 2.60495 92.0944 2.41532 92.0944 2.31234C92.0944 2.26805 92.0581 2.23244 92.0136 2.23244C91.9691 2.23244 91.7528 2.06495 91.5343 1.85991C91.315 1.65585 91.0819 1.48835 91.0156 1.48835C90.9484 1.48835 90.8948 1.45466 90.8948 1.41423C90.8948 1.37284 90.8399 1.33915 90.7746 1.33915C90.7084 1.33915 90.6535 1.29776 90.6535 1.24674C90.6535 1.15048 90.3015 0.967591 90.1183 0.967591C90.0614 0.967591 90.0147 0.917536 90.0147 0.855932C90.0147 0.786625 89.9381 0.74427 89.814 0.74427C89.7042 0.74427 89.6142 0.710579 89.6142 0.670152C89.6142 0.628759 89.5282 0.595068 89.4237 0.595068C89.3154 0.593898 89.2118 0.554298 89.1339 0.48437C89.0721 0.419923 88.9861 0.379955 88.8937 0.372711C88.7639 0.357186 88.6381 0.31932 88.5231 0.26105C88.3842 0.196545 88.2329 0.158577 88.0779 0.149389C87.96 0.149389 87.8408 0.115699 87.8141 0.0743073C87.7518 -0.0181016 83.6134 -0.0277275 83.6134 0.0646813V0.0656438ZM104.176 0.0752698C104.176 0.115699 104.077 0.149389 103.956 0.149389C103.835 0.149389 103.633 0.200407 103.507 0.26105C103.389 0.320179 103.26 0.358064 103.127 0.372711C103.044 0.372711 102.976 0.422766 102.976 0.48437C102.976 0.561377 102.891 0.595068 102.695 0.595068C102.542 0.595068 102.416 0.624909 102.416 0.66245C102.416 0.698066 102.326 0.749084 102.216 0.775073C102.105 0.8001 102.015 0.854007 102.015 0.894434C102.015 0.934864 101.961 0.967591 101.896 0.967591C101.83 0.967591 101.776 1.00128 101.776 1.04171C101.776 1.0831 101.685 1.11679 101.575 1.11679C101.461 1.11679 101.376 1.15915 101.376 1.21594C101.376 1.26985 101.276 1.36225 101.156 1.42001C101.035 1.47777 100.908 1.56729 100.871 1.6183C100.851 1.64528 100.824 1.66765 100.793 1.68379C100.762 1.69994 100.727 1.70946 100.691 1.71167C100.628 1.71167 100.575 1.74537 100.575 1.7858C100.575 1.82719 100.522 1.85991 100.455 1.85991C100.389 1.85991 100.335 1.90516 100.335 1.95906C100.335 2.01393 100.245 2.10345 100.135 2.15832C100.026 2.21222 99.9357 2.27961 99.9357 2.30752C99.9357 2.33448 99.7908 2.501 99.6148 2.67907C99.4388 2.8562 99.2949 3.03814 99.2949 3.08336C99.2949 3.12764 99.2059 3.22775 99.0952 3.30477C98.9854 3.38082 98.8952 3.50595 98.8952 3.582C98.8952 3.659 98.8591 3.72061 98.8156 3.72061C98.7711 3.72061 98.7348 3.76682 98.7348 3.82359C98.7348 3.88136 98.6811 3.94682 98.6158 3.97089C98.5496 3.99398 98.4957 4.08157 98.4957 4.16436C98.4957 4.24811 98.4594 4.31548 98.4149 4.31548C98.3716 4.31548 98.3353 4.39923 98.3353 4.50223C98.3353 4.61773 98.2898 4.688 98.2151 4.688C98.1355 4.688 98.095 4.76214 98.095 4.91036C98.095 5.03357 98.0589 5.13368 98.0154 5.13368C97.9709 5.13368 97.9346 5.23668 97.9346 5.36277C97.9346 5.48791 97.8809 5.64193 97.8156 5.70257C97.7484 5.76418 97.6945 5.94323 97.6945 6.10204C97.6945 6.25991 97.6594 6.41009 97.6147 6.43607C97.563 6.46591 97.5351 9.51252 97.5351 15.3314V24.1814H103.537V15.9224C103.537 8.63077 103.551 7.66339 103.657 7.66339C103.728 7.66339 103.777 7.596 103.777 7.493C103.777 7.2947 103.948 6.92123 104.039 6.92025C104.073 6.92025 104.135 6.83459 104.178 6.73064C104.249 6.59914 104.359 6.4895 104.496 6.41489C104.628 6.34464 104.736 6.26279 104.737 6.232C104.737 6.20023 104.79 6.1752 104.858 6.1752C104.923 6.1752 104.977 6.14634 104.977 6.10975C104.977 6.07318 105.067 6.02216 105.178 5.99616C105.287 5.97018 105.377 5.91627 105.377 5.87682C105.377 5.83639 105.521 5.80366 105.698 5.80366C105.875 5.80366 106.096 5.76225 106.189 5.71125C106.325 5.63616 106.366 5.63616 106.394 5.71125C106.417 5.76804 106.582 5.80366 106.823 5.80366C107.041 5.80366 107.218 5.83639 107.218 5.87682C107.218 5.91627 107.307 5.97018 107.418 5.99616C107.527 6.02216 107.617 6.07318 107.617 6.10975C107.617 6.14536 107.656 6.1752 107.703 6.1752C107.75 6.1752 107.836 6.21757 107.895 6.26859C107.952 6.31959 108.094 6.42452 108.208 6.5025C108.323 6.5795 108.418 6.70464 108.418 6.78164C108.418 6.85768 108.454 6.92025 108.497 6.92025C108.542 6.92025 108.577 6.98764 108.577 7.07043C108.577 7.15416 108.632 7.24079 108.697 7.26486C108.77 7.29086 108.818 7.40252 108.818 7.54498C108.818 7.67589 108.853 7.81548 108.897 7.85686C108.949 7.90498 108.977 10.787 108.979 16.0562L108.981 24.1805H115.058V15.213C115.058 7.31011 115.045 6.24066 114.938 6.20314C114.857 6.17425 114.819 6.05489 114.819 5.83734C114.819 5.66023 114.783 5.4937 114.738 5.46866C114.695 5.44364 114.658 5.3445 114.658 5.2492C114.658 5.15293 114.605 5.05668 114.538 5.03261C114.468 5.00759 114.418 4.89689 114.418 4.76404C114.418 4.63989 114.382 4.53879 114.339 4.53879C114.294 4.53879 114.258 4.49068 114.258 4.43002C114.258 4.37132 114.169 4.199 114.058 4.04789C113.948 3.89675 113.858 3.7283 113.858 3.67248C113.858 3.61761 113.804 3.57141 113.738 3.57141C113.671 3.57141 113.618 3.50498 113.618 3.4222C113.618 3.26914 112.016 1.71167 111.858 1.71167C111.814 1.71167 111.778 1.66162 111.778 1.60001C111.778 1.58535 111.775 1.57083 111.768 1.55728C111.763 1.54374 111.754 1.53143 111.742 1.52106C111.731 1.51069 111.718 1.50247 111.703 1.49685C111.689 1.49124 111.673 1.48835 111.658 1.48835C111.592 1.48835 111.539 1.45466 111.539 1.41423C111.539 1.37284 111.466 1.33915 111.378 1.33915C111.29 1.33915 111.218 1.29776 111.218 1.24674C111.217 1.15048 110.866 0.967591 110.682 0.967591C110.625 0.967591 110.578 0.917536 110.578 0.855932C110.578 0.786625 110.502 0.74427 110.378 0.74427C110.267 0.74427 110.178 0.710579 110.178 0.670152C110.178 0.628759 110.091 0.595068 109.987 0.595068C109.881 0.595068 109.774 0.545014 109.749 0.48437C109.724 0.422766 109.615 0.372711 109.51 0.372711C109.403 0.372711 109.213 0.322657 109.086 0.26105C108.948 0.196522 108.797 0.158549 108.642 0.149389C108.524 0.149389 108.404 0.115699 108.377 0.0743073C108.346 0.0281027 107.55 0.000187687 106.252 0.000187687C104.922 0.000187687 104.177 0.0271402 104.177 0.0743073L104.176 0.0752698ZM118.678 12.072L118.698 24.143L126.44 24.1623L134.179 24.1814V22.0994H124.898V5.65541H134.179V0.000187687H118.657L118.678 12.072ZM136.02 2.82827V5.65636H141.621V14.801C141.621 19.8315 141.643 23.9995 141.67 24.0641C141.712 24.17 142.063 24.1825 144.79 24.1825H147.862V5.65541H153.142V0.000187687H136.02V2.82827ZM0.00148204 24.9995C0.00148204 35.72 -0.0626973 34.7864 0.653625 34.1607L1.29335 33.6023C1.46414 33.4541 1.63287 33.3327 1.67014 33.3327C1.70637 33.3327 1.78401 33.2491 1.84301 33.147C1.90201 33.0441 1.97758 32.9602 2.0107 32.9602C2.10594 32.9602 4.96398 30.3025 4.96398 30.2141C4.96398 30.1698 5.00227 30.1332 5.04988 30.1332C5.09752 30.1332 5.53019 29.7645 6.01051 29.315C6.49186 28.8645 6.92144 28.4968 6.96493 28.4968C7.00838 28.4968 7.04462 28.4611 7.04462 28.4168C7.04462 28.3139 7.2475 28.1243 7.35827 28.1243C7.38087 28.1243 7.40257 28.1159 7.41867 28.1011C7.43473 28.0864 7.4439 28.0664 7.44418 28.0452C7.44418 27.9414 7.64812 27.7527 7.75886 27.7527C7.78148 27.7525 7.80306 27.7439 7.81896 27.7289C7.83485 27.7139 7.84375 27.6939 7.84375 27.6727C7.84375 27.5698 8.04767 27.3802 8.15844 27.3802C8.18123 27.3802 8.20308 27.3718 8.2192 27.3568C8.23529 27.3418 8.24437 27.3214 8.24437 27.3002C8.24437 27.1982 8.44725 27.0086 8.55903 27.0086C8.58165 27.0084 8.60323 26.9998 8.61913 26.9848C8.63502 26.9698 8.64392 26.9498 8.64392 26.9286C8.64392 26.8257 8.84784 26.6361 8.95861 26.6361C8.98123 26.6361 9.0029 26.6277 9.019 26.613C9.03509 26.5982 9.04426 26.5782 9.04453 26.557C9.04453 26.4532 9.24845 26.2645 9.35818 26.2645C9.38095 26.2645 9.4028 26.2561 9.41892 26.2411C9.43504 26.2261 9.44409 26.2057 9.44409 26.1845C9.44409 26.0816 9.64803 25.892 9.75877 25.892C9.78139 25.892 9.80307 25.8836 9.81916 25.8689C9.83526 25.8541 9.84443 25.8341 9.8447 25.813C9.8447 25.71 10.0486 25.5205 10.1594 25.5205C10.206 25.5205 10.2443 25.4705 10.2443 25.4086C10.2443 25.347 10.3002 25.297 10.3685 25.297C10.4648 25.297 10.4886 25.2316 10.4699 25.018C10.4544 24.8448 10.4078 24.7466 10.3447 24.758C10.2898 24.7677 10.2443 24.7264 10.2443 24.6648C10.2443 24.635 10.2316 24.6066 10.2091 24.5857C10.1866 24.5648 10.156 24.553 10.1242 24.553C10.0579 24.553 10.0041 24.5175 10.0041 24.4732C10.0041 24.37 9.80122 24.1814 9.69045 24.1814C9.66768 24.1814 9.64583 24.173 9.62971 24.158C9.61359 24.143 9.60454 24.1227 9.60454 24.1016C9.60454 23.9986 9.40063 23.8089 9.28986 23.8089C9.26724 23.8089 9.24556 23.8007 9.22947 23.7859C9.21337 23.7711 9.2042 23.7509 9.20393 23.73C9.20393 23.6261 9.00105 23.4373 8.89028 23.4373C8.87901 23.4373 8.86783 23.4352 8.8574 23.4314C8.847 23.4273 8.8375 23.4214 8.82954 23.4139C8.82156 23.4066 8.81523 23.3977 8.8109 23.388C8.8066 23.3784 8.80438 23.368 8.80438 23.3575C8.80438 23.3132 8.75261 23.2295 8.69052 23.1707C8.62736 23.113 8.5373 23.0648 8.48969 23.0648C8.46707 23.0645 8.44549 23.0561 8.4296 23.0411C8.4137 23.0261 8.4048 23.0059 8.4048 22.985C8.4048 22.9416 8.35304 22.858 8.29094 22.7991C8.22677 22.7414 8.13671 22.6933 8.09011 22.6933C8.06732 22.6933 8.04547 22.6849 8.02938 22.6699C8.01326 22.6549 8.00421 22.6346 8.00421 22.6134C8.00421 22.5104 7.80027 22.3207 7.69056 22.3207C7.64293 22.3207 7.6036 22.2765 7.6036 22.2216C7.6036 22.1677 7.51354 22.0772 7.40381 22.0233C7.2941 21.9685 7.20404 21.8934 7.20404 21.8568C7.20404 21.7644 6.9939 21.5776 6.88936 21.5776C6.86674 21.5774 6.84516 21.5688 6.82926 21.5539C6.81337 21.5389 6.80447 21.5188 6.80447 21.4977C6.80447 21.3938 6.60055 21.2051 6.48978 21.2051C6.46699 21.2051 6.44514 21.1967 6.42902 21.1817C6.41293 21.1667 6.40385 21.1464 6.40385 21.1252C6.40385 21.0222 6.20098 20.8335 6.08919 20.8335C6.07789 20.8334 6.06674 20.8312 6.05639 20.8271C6.046 20.823 6.03661 20.817 6.02873 20.8095C6.02084 20.802 6.01463 20.7931 6.01043 20.7833C6.00625 20.7736 6.00415 20.7632 6.0043 20.7527C6.0043 20.6507 5.80039 20.461 5.68961 20.461C5.64304 20.461 5.60369 20.4167 5.60369 20.3619C5.60369 20.307 5.51363 20.2175 5.40392 20.1636C5.29419 20.1087 5.20414 20.0192 5.20414 19.9643C5.20386 19.9382 5.19249 19.9132 5.17254 19.8948C5.15257 19.8765 5.1256 19.8661 5.09752 19.8661C5.03851 19.8661 4.94225 19.7824 4.88324 19.6794C4.82527 19.5774 4.73522 19.4936 4.68345 19.4936C4.63273 19.4936 4.54267 19.4099 4.48367 19.3078C4.42466 19.2058 4.3284 19.1221 4.27043 19.1221C4.21142 19.1221 4.16381 19.0855 4.16381 19.0422C4.16381 18.9392 3.95987 18.7495 3.84913 18.7495C3.82651 18.7493 3.80493 18.7407 3.78903 18.7258C3.77316 18.7108 3.76424 18.6907 3.76424 18.6696C3.76424 18.5734 3.5624 18.378 3.46302 18.378C3.42265 18.378 3.34189 18.2942 3.28392 18.1912C3.22494 18.0892 3.15142 18.0055 3.12141 18.0055C3.0914 18.0055 2.72599 17.6955 2.30986 17.3172C0.992118 16.1207 0.294429 15.5508 0.146403 15.5508C0.00976315 15.5508 0.00355232 15.9667 0.00355232 24.9995H0.00148204ZM165.132 15.6981C165.058 15.7732 165.019 15.8541 165.045 15.8781C165.07 15.9022 165.035 15.9215 164.967 15.9215C164.93 15.9236 164.895 15.9352 164.864 15.9549C164.834 15.9746 164.81 16.0017 164.796 16.0331C164.771 16.0947 164.708 16.1448 164.657 16.1448C164.605 16.1448 164.386 16.3122 164.169 16.5173C163.953 16.7214 163.748 16.8888 163.714 16.8888C163.68 16.8888 163.603 16.9726 163.544 17.0746C163.486 17.1776 163.408 17.2604 163.371 17.2604C163.271 17.2604 160.424 19.9152 160.424 20.0086C160.424 20.029 160.416 20.0487 160.401 20.0634C160.385 20.0781 160.365 20.0868 160.343 20.0875C160.297 20.0875 159.958 20.3725 159.587 20.72C159.216 21.0684 158.875 21.3524 158.828 21.3524C158.817 21.3525 158.806 21.3547 158.796 21.3588C158.785 21.363 158.776 21.369 158.768 21.3765C158.76 21.384 158.754 21.3929 158.75 21.4027C158.746 21.4124 158.744 21.4228 158.744 21.4332C158.744 21.5353 158.54 21.7249 158.43 21.7249C158.407 21.7252 158.385 21.7337 158.369 21.7486C158.353 21.7635 158.344 21.7837 158.344 21.8048C158.344 21.9097 158.14 22.0974 158.025 22.0974C157.975 22.0974 157.953 22.1244 157.975 22.1581C158.021 22.2264 157.746 22.469 157.623 22.469C157.58 22.469 157.543 22.5046 157.543 22.5489C157.543 22.6519 157.341 22.8405 157.23 22.8405C157.182 22.8405 157.144 22.8743 157.144 22.9148C157.144 23.0293 156.883 23.2843 156.81 23.242C156.773 23.2218 156.745 23.242 156.745 23.2882C156.745 23.3941 156.543 23.5845 156.43 23.5845C156.407 23.5845 156.385 23.593 156.369 23.608C156.353 23.623 156.344 23.6434 156.344 23.6645C156.344 23.7675 156.14 23.9573 156.029 23.9573C156.007 23.9575 155.985 23.9659 155.969 23.9809C155.953 23.9959 155.944 24.0161 155.944 24.037C155.944 24.14 155.74 24.3286 155.63 24.3286C155.607 24.3289 155.585 24.3375 155.569 24.3525C155.553 24.3673 155.544 24.3875 155.544 24.4086C155.544 24.5116 155.34 24.7011 155.229 24.7011C155.182 24.7011 155.143 24.835 155.143 24.9986C155.143 25.2134 155.177 25.2961 155.264 25.2961C155.329 25.2961 155.384 25.3318 155.384 25.3759C155.384 25.4791 155.587 25.6677 155.698 25.6677C155.746 25.6677 155.784 25.7043 155.784 25.7486C155.784 25.8507 155.988 26.0402 156.099 26.0402C156.145 26.0402 156.183 26.0759 156.183 26.12C156.183 26.2232 156.387 26.4127 156.498 26.4127C156.546 26.4127 156.584 26.4484 156.584 26.4916C156.584 26.5945 156.788 26.7843 156.898 26.7843C156.945 26.7843 156.984 26.82 156.984 26.8641C156.984 26.9673 157.188 27.1559 157.298 27.1559C157.345 27.1559 157.384 27.1925 157.384 27.2357C157.384 27.3386 157.588 27.5284 157.698 27.5284C157.745 27.5284 157.784 27.5641 157.784 27.6082C157.784 27.7114 157.988 27.9 158.098 27.9C158.146 27.9 158.184 27.9366 158.184 27.9798C158.184 28.0827 158.387 28.2725 158.499 28.2725C158.546 28.2725 158.584 28.3082 158.584 28.3523C158.584 28.4543 158.788 28.6441 158.899 28.6441C158.945 28.6441 158.984 28.6807 158.984 28.7239C158.984 28.8268 159.187 29.0166 159.298 29.0166C159.346 29.0166 159.384 29.0609 159.384 29.1157C159.384 29.1695 159.474 29.26 159.584 29.3141C159.695 29.3689 159.785 29.4584 159.785 29.5123C159.785 29.567 159.823 29.6114 159.871 29.6114C159.98 29.6114 160.184 29.8011 160.184 29.9041C160.184 29.9473 160.224 29.983 160.27 29.983C160.381 29.983 160.585 30.1725 160.585 30.2757C160.585 30.32 160.633 30.3555 160.69 30.3555C160.749 30.3555 160.846 30.4393 160.905 30.5414C160.963 30.6443 161.054 30.728 161.104 30.728C161.155 30.728 161.246 30.8118 161.304 30.9139C161.363 31.0159 161.453 31.0995 161.504 31.0995C161.556 31.0995 161.646 31.1834 161.705 31.2855C161.764 31.3884 161.854 31.4711 161.905 31.4711C161.955 31.4711 162.046 31.555 162.104 31.658C162.163 31.76 162.236 31.8436 162.264 31.8436C162.293 31.8436 162.695 32.1873 163.158 32.6061C164.657 33.9652 165.255 34.4466 165.445 34.4475H165.625V15.5508L165.445 15.5566C165.326 15.569 165.216 15.6193 165.132 15.6991V15.6981ZM81.774 26.0075C81.774 26.1384 82.217 26.5398 82.4323 26.6043C82.5099 26.6264 82.5742 26.6766 82.5742 26.715C82.5742 26.7534 82.6278 26.7843 82.6941 26.7843C82.7603 26.7843 82.8142 26.82 82.8142 26.8641C82.8142 26.9498 83.011 27.1559 83.0928 27.1559C83.1195 27.1559 83.2253 27.2395 83.3267 27.3425C83.4293 27.4445 83.5719 27.5284 83.6433 27.5284C83.7158 27.5284 83.7739 27.5784 83.7739 27.64C83.7739 27.7016 83.8122 27.7516 83.8596 27.7516C83.9064 27.7516 84.0636 27.8691 84.2097 28.0116C84.3545 28.155 84.5234 28.2734 84.5844 28.2734C84.6445 28.2734 84.779 28.3582 84.8826 28.4602C84.9859 28.5611 85.1031 28.645 85.1424 28.645C85.1827 28.645 85.2148 28.695 85.2148 28.7557C85.2148 28.8173 85.2531 28.8673 85.2996 28.8673C85.4103 28.8673 85.6143 29.057 85.6143 29.16C85.6143 29.2032 85.6526 29.2398 85.7003 29.2398C85.8111 29.2398 86.014 29.4295 86.014 29.5316C86.014 29.5759 86.0689 29.6114 86.1351 29.6114C86.2002 29.6114 86.256 29.6691 86.2573 29.7414C86.2602 29.902 86.4404 30.1323 86.5635 30.1323C86.6132 30.1323 86.6547 30.1755 86.6547 30.2284C86.6547 30.3998 86.8513 30.7261 86.9549 30.727C87.0097 30.727 87.0542 30.8109 87.0542 30.9139C87.0542 31.0159 87.0906 31.0995 87.1351 31.0995C87.1786 31.0995 87.2147 31.1834 87.2147 31.2855C87.2147 31.4009 87.2601 31.4711 87.3348 31.4711C87.4092 31.4711 87.4549 31.5423 87.4549 31.658C87.4549 31.76 87.49 31.8436 87.5345 31.8436C87.579 31.8436 87.6154 31.962 87.6154 32.1064C87.6154 32.2711 87.6599 32.3857 87.7343 32.4116C87.8161 32.4405 87.8544 32.5589 87.8544 32.7773C87.8544 32.9545 87.8905 33.12 87.9353 33.1461C87.9785 33.1711 88.0149 33.3905 88.0149 33.6341C88.0149 33.9768 88.0418 34.0759 88.135 34.0759C88.2405 34.0759 88.2549 34.5832 88.2549 38.1959C88.2549 41.767 88.2383 42.3282 88.135 42.4091C88.0589 42.4823 88.0161 42.5798 88.0149 42.6816C88.0149 42.7807 87.9249 42.952 87.8151 43.0627C87.7044 43.1725 87.6141 43.3052 87.6141 43.3564C87.6141 43.4082 87.579 43.4507 87.5345 43.4507C87.49 43.4507 87.4549 43.5007 87.4549 43.5623C87.4549 43.5918 87.4421 43.6202 87.4196 43.6411C87.3971 43.662 87.3667 43.6739 87.3348 43.6739C87.2686 43.6739 87.2147 43.7066 87.2147 43.7479C87.2147 43.7893 87.1422 43.822 87.0523 43.822C86.9633 43.822 86.8688 43.8732 86.8431 43.9339C86.8182 43.9954 86.7116 44.0454 86.6061 44.0454C86.5005 44.0454 86.4145 44.0791 86.4145 44.1204C86.4145 44.1609 86.3027 44.1948 86.166 44.1948C86.0316 44.1948 85.8182 44.2495 85.6941 44.318C85.484 44.4334 85.46 44.4334 85.3359 44.318C85.2573 44.2448 85.0751 44.1948 84.8887 44.1948C84.716 44.1948 84.5741 44.1609 84.5741 44.1195C84.5741 44.0791 84.488 44.0454 84.3825 44.0454C84.2769 44.0454 84.1704 43.9954 84.1454 43.9339C84.1303 43.902 84.1061 43.8748 84.0754 43.8552C84.0448 43.8355 84.0087 43.8241 83.9716 43.822C83.8245 43.822 83.6144 43.6489 83.6144 43.5305C83.6144 43.4861 83.5595 43.4507 83.4943 43.4507C83.428 43.4507 83.3744 43.3832 83.3744 43.3014C83.3744 43.2195 83.338 43.1532 83.2945 43.1532C83.25 43.1532 83.2137 43.102 83.2137 43.0416C83.2137 43.0118 83.2011 42.9834 83.1786 42.9625C83.1561 42.9416 83.1257 42.9298 83.0938 42.9298C83.0078 42.9298 82.9737 42.847 82.9737 42.6314C82.9737 42.4677 82.9386 42.3341 82.8941 42.3341C82.8422 42.3341 82.8142 41.5409 82.8142 40.1018V37.8705H76.7328V40.8459C76.7328 43.442 76.7484 43.822 76.854 43.822C76.9439 43.822 76.9729 43.9136 76.9729 44.1948C76.9729 44.3986 77.0092 44.5661 77.0537 44.5661C77.0972 44.5661 77.1333 44.648 77.1333 44.7473C77.1333 44.8464 77.1872 44.9782 77.2534 45.0398C77.3291 45.125 77.3713 45.2316 77.3736 45.342C77.3736 45.448 77.4097 45.5345 77.4532 45.5345C77.4977 45.5345 77.534 45.602 77.534 45.6848C77.534 45.7675 77.5879 45.8552 77.6529 45.8782C77.7192 45.9023 77.773 45.9841 77.773 46.062C77.773 46.1391 77.8094 46.2036 77.8539 46.2036C77.8974 46.2036 77.9335 46.2545 77.9335 46.3173C77.936 46.3511 77.9483 46.3839 77.9696 46.4116C77.9908 46.4393 78.02 46.4609 78.0536 46.4741C78.1199 46.4973 78.1738 46.5589 78.1738 46.6089C78.1738 46.6609 78.2637 46.7918 78.3735 46.9025C78.4833 47.0132 78.5732 47.1209 78.5732 47.1432C78.5732 47.2125 78.8009 47.3934 78.8879 47.3934C78.9346 47.3934 78.9727 47.4291 78.9727 47.4732C78.9727 47.5764 79.1779 47.7659 79.2874 47.7659C79.3351 47.7659 79.3734 47.8102 79.3734 47.865C79.3734 47.9189 79.4634 48.0084 79.5742 48.0634C79.6839 48.1182 79.7741 48.2077 79.7741 48.2616C79.7741 48.3166 79.8278 48.3607 79.894 48.3607C79.9593 48.3607 80.0132 48.3945 80.0132 48.4359C80.0132 48.4764 80.0587 48.51 80.1145 48.51C80.1694 48.51 80.3071 48.585 80.4188 48.6775C80.6757 48.8882 80.8952 49.0229 81.0742 49.0789C81.1508 49.1029 81.2138 49.152 81.2138 49.1877C81.2138 49.2243 81.3041 49.2541 81.4138 49.2541C81.5379 49.2541 81.6146 49.2964 81.6146 49.3648C81.6146 49.4341 81.689 49.4773 81.8091 49.4773C81.9169 49.4773 82.0266 49.5111 82.0533 49.5516C82.0813 49.5918 82.2108 49.6257 82.3411 49.6257C82.4788 49.6257 82.5989 49.6727 82.6249 49.7373C82.6558 49.8123 82.7833 49.8489 83.0182 49.8489C83.2088 49.8489 83.3867 49.8827 83.4137 49.9241C83.4446 49.9693 84.2418 49.9982 85.5389 49.9982C86.8701 49.9982 87.6141 49.9711 87.6141 49.923C87.6141 49.8827 87.7944 49.8489 88.0149 49.8489C88.3172 49.8489 88.4143 49.822 88.4143 49.7373C88.4143 49.6602 88.4994 49.6257 88.6939 49.6257C88.8492 49.6257 88.9755 49.5918 88.9755 49.5516C88.9755 49.5111 89.0664 49.4773 89.1772 49.4773C89.2892 49.4773 89.4009 49.4264 89.4256 49.3648C89.4516 49.3041 89.5428 49.2541 89.6296 49.2541C89.7275 49.2498 89.8212 49.2173 89.8978 49.1607C90.1628 48.9393 90.2528 48.8816 90.3326 48.8816C90.3539 48.8816 90.3746 48.8739 90.39 48.86C90.4055 48.8461 90.4144 48.8273 90.4154 48.8075C90.4154 48.7661 90.4651 48.7323 90.5262 48.7323C90.5882 48.7323 90.6587 48.6823 90.6844 48.6216C90.6995 48.59 90.7237 48.5627 90.7546 48.5429C90.7852 48.5232 90.8211 48.5118 90.8584 48.51C91.0003 48.51 91.6151 47.967 91.6151 47.8429C91.6151 47.8004 91.6534 47.7659 91.6999 47.7659C91.822 47.7659 92.6553 46.9766 92.6553 46.8611C92.6553 46.8091 92.7362 46.6975 92.8355 46.6136C93.0385 46.4423 93.1979 46.2286 93.2671 46.0361C93.2931 45.9639 93.3458 45.9061 93.3853 45.9061C93.4234 45.9061 93.4555 45.8225 93.4555 45.7193C93.4555 45.6039 93.5012 45.5336 93.5757 45.5336C93.6503 45.5336 93.6958 45.4634 93.6958 45.3479C93.6958 45.2459 93.7319 45.162 93.7754 45.162C93.8199 45.162 93.8562 45.0273 93.8562 44.8636C93.8562 44.6491 93.8893 44.5661 93.9751 44.5661C94.0592 44.5661 94.0953 44.4893 94.0953 44.3102C94.0953 44.1695 94.1316 44.0339 94.1761 44.0089C94.2196 43.9829 94.2557 43.7336 94.2557 43.4534C94.2557 43.0704 94.2859 42.9345 94.3758 42.903C94.4814 42.8643 94.496 42.1886 94.496 37.4354C94.496 32.7043 94.4804 31.9986 94.3758 31.9177C94.2888 31.8505 94.2557 31.6732 94.2557 31.2766C94.2557 30.96 94.2216 30.728 94.1761 30.728C94.1316 30.728 94.0953 30.5625 94.0953 30.3614C94.0953 30.1341 94.0498 29.9511 93.9751 29.883C93.9101 29.8214 93.8562 29.6518 93.8562 29.5045C93.8562 29.3593 93.8199 29.2398 93.7754 29.2398C93.7319 29.2398 93.6958 29.1214 93.6958 28.977C93.6958 28.8116 93.6513 28.698 93.5757 28.6709C93.5094 28.648 93.4555 28.567 93.4555 28.4918C93.4555 28.4168 93.4194 28.335 93.3759 28.3091C93.3314 28.2841 93.2951 28.1859 93.2951 28.0895C93.2951 27.9934 93.2412 27.897 93.1762 27.873C93.1099 27.8498 93.055 27.7623 93.055 27.6795C93.055 27.5968 93.0239 27.5284 92.9846 27.5284C92.9453 27.5284 92.8904 27.4445 92.8625 27.3425C92.8345 27.2395 92.7764 27.1559 92.7342 27.1559C92.6907 27.1559 92.6553 27.0866 92.6553 27.0018C92.6553 26.8373 92.4825 26.6361 92.3406 26.6361C92.2942 26.6361 92.2558 26.5657 92.2558 26.4811C92.2558 26.3964 92.1503 26.2289 92.022 26.1086L91.7879 25.8909H86.7811C82.303 25.8909 81.774 25.9034 81.774 26.0066V26.0075ZM97.5361 34.8566C97.5361 40.7843 97.563 43.822 97.6159 43.822C97.6604 43.822 97.6955 43.9743 97.6955 44.1591C97.6955 44.39 97.7338 44.5104 97.8166 44.5393C97.8819 44.5634 97.9358 44.6607 97.9358 44.7559C97.9358 44.852 97.9719 44.9502 98.0164 44.9754C98.0599 45.0014 98.0962 45.1216 98.0962 45.243C98.0962 45.3709 98.1469 45.4816 98.2161 45.5066C98.2824 45.5298 98.3363 45.63 98.3363 45.7282C98.3363 45.8252 98.3726 45.9061 98.4161 45.9061C98.4606 45.9061 98.4967 45.9573 98.4967 46.0198C98.4967 46.0823 98.5506 46.1525 98.6158 46.1766C98.6821 46.1998 98.736 46.2845 98.736 46.3643C98.736 46.4443 98.7679 46.4914 98.8084 46.4684C98.8467 46.4461 98.9014 46.5107 98.9295 46.6127C98.9562 46.7148 99.0143 46.7984 99.0578 46.7984C99.1013 46.7984 99.1365 46.8341 99.1365 46.8775C99.1365 46.9216 99.2628 47.0679 99.416 47.2027C99.5713 47.3375 99.6954 47.4868 99.6954 47.5329C99.6954 47.5791 99.7347 47.6166 99.7824 47.6166C99.8931 47.6166 100.096 47.8064 100.096 47.9093C100.096 47.9527 100.134 47.9893 100.182 47.9893C100.229 47.9893 100.386 48.1057 100.532 48.2491C100.677 48.3934 100.836 48.5091 100.886 48.5091C100.936 48.5091 100.976 48.5427 100.976 48.5832C100.976 48.6225 101.067 48.6766 101.177 48.7025C101.286 48.7284 101.377 48.7736 101.377 48.8036C101.377 48.8334 101.503 48.922 101.656 48.9979C101.811 49.075 101.936 49.1645 101.936 49.1964C101.936 49.2279 102.023 49.2541 102.128 49.2541C102.234 49.2541 102.34 49.3041 102.366 49.3648C102.391 49.4264 102.503 49.4773 102.615 49.4773C102.725 49.4773 102.817 49.5111 102.817 49.5516C102.817 49.5918 102.943 49.6257 103.097 49.6257C103.293 49.6257 103.376 49.6593 103.376 49.7373C103.376 49.822 103.475 49.8489 103.777 49.8489C103.996 49.8489 104.177 49.8827 104.177 49.9241C104.177 49.9711 104.924 49.9982 106.257 49.9982C107.401 49.9982 108.338 49.9693 108.338 49.9327C108.338 49.897 108.508 49.8509 108.715 49.8286C108.923 49.8066 109.106 49.7518 109.121 49.7075C109.138 49.6632 109.256 49.6257 109.384 49.6257C109.513 49.6257 109.617 49.5918 109.617 49.5516C109.617 49.5111 109.705 49.4773 109.812 49.4773C109.919 49.4773 110.06 49.4264 110.127 49.3648C110.193 49.3041 110.297 49.2541 110.361 49.2541C110.424 49.2541 110.572 49.1702 110.69 49.0673C110.809 48.9652 110.961 48.8816 111.027 48.8816C111.161 48.8816 111.378 48.7082 111.378 48.6034C111.378 48.5668 111.503 48.4916 111.658 48.4359C111.812 48.3791 112 48.2559 112.077 48.1604C112.153 48.0661 112.261 47.9893 112.317 47.9893C112.373 47.9893 112.418 47.9614 112.418 47.9275C112.418 47.8939 112.598 47.687 112.818 47.4684C113.039 47.2491 113.219 47.0305 113.219 46.9814C113.219 46.9332 113.308 46.8311 113.418 46.7543C113.528 46.6773 113.618 46.5386 113.618 46.4461C113.618 46.3461 113.667 46.2777 113.738 46.2777C113.77 46.2777 113.801 46.2659 113.823 46.245C113.846 46.2241 113.858 46.1957 113.858 46.1661C113.858 46.1045 113.895 46.0543 113.938 46.0543C113.983 46.0543 114.018 45.987 114.018 45.9032C114.018 45.8204 114.073 45.733 114.139 45.7098C114.204 45.6857 114.258 45.5866 114.258 45.4884C114.258 45.3902 114.294 45.3102 114.339 45.3102C114.382 45.3102 114.418 45.2266 114.418 45.1245C114.418 45.0216 114.454 44.9389 114.497 44.9389C114.541 44.9389 114.599 44.8041 114.627 44.6404C114.655 44.4768 114.71 44.343 114.748 44.343C114.787 44.343 114.819 44.1898 114.819 44.0032C114.819 43.8 114.867 43.6182 114.938 43.5507C115.044 43.4534 115.058 42.3657 115.058 34.6659V25.892H108.978V34.0393C108.978 39.4211 108.951 42.1868 108.898 42.1868C108.853 42.1868 108.818 42.3002 108.818 42.4389C108.818 42.5948 108.772 42.7084 108.697 42.7343C108.632 42.7575 108.577 42.8634 108.577 42.9693C108.577 43.0791 108.543 43.1425 108.497 43.1166C108.454 43.0916 108.418 43.1223 108.418 43.1868C108.418 43.2504 108.364 43.3023 108.297 43.3023C108.231 43.3023 108.177 43.3379 108.177 43.3823C108.177 43.4689 107.981 43.6748 107.898 43.6748C107.814 43.6748 107.617 43.88 107.617 43.9666C107.617 44.0109 107.527 44.0464 107.418 44.0464C107.307 44.0464 107.218 44.0802 107.218 44.1216C107.218 44.162 107.076 44.1957 106.903 44.1957C106.717 44.1957 106.535 44.2457 106.456 44.3189C106.332 44.4343 106.307 44.4343 106.098 44.3189C105.939 44.2425 105.763 44.2005 105.584 44.1957C105.426 44.1957 105.297 44.162 105.297 44.1204C105.297 44.0802 105.246 44.0464 105.184 44.0464C105.041 44.0464 104.578 43.8057 104.577 43.7307C104.577 43.7 104.523 43.6748 104.457 43.6748C104.391 43.6748 104.337 43.6384 104.337 43.595C104.337 43.492 104.133 43.3023 104.022 43.3023C103.976 43.3023 103.936 43.2186 103.936 43.1166C103.936 43.0145 103.901 42.9309 103.857 42.9309C103.812 42.9309 103.777 42.8489 103.777 42.7498C103.774 42.6425 103.732 42.5391 103.657 42.4573C103.551 42.36 103.537 41.3329 103.537 34.1193V25.892H97.5351V34.8575L97.5361 34.8566ZM118.658 37.9445V49.9982H124.899V27.9009H134.18V25.892H118.657V37.9454L118.658 37.9445ZM141.622 37.9445V49.9982H147.863V25.892H141.622V37.9454V37.9445Z" fill="#FCC42C"/>
<path fill-rule="evenodd" clip-rule="evenodd" d="M15.4689 12.0719L15.4896 24.1427L23.3495 24.162C30.3047 24.1793 31.2104 24.1686 31.2104 24.0695C31.2104 24.008 31.2468 23.958 31.2913 23.958C31.3345 23.958 31.3709 23.8741 31.3709 23.7711C31.3709 23.6557 31.4163 23.5855 31.491 23.5855C31.5654 23.5855 31.6111 23.5152 31.6111 23.3995C31.6111 23.2975 31.6472 23.2139 31.6907 23.2139C31.7352 23.2139 31.7716 23.13 31.7716 23.0282C31.7716 22.9125 31.8161 22.8414 31.8905 22.8414C31.9713 22.8414 32.0106 22.7673 32.0106 22.6132C32.0106 22.4881 32.0645 22.334 32.1308 22.2734C32.197 22.2118 32.2507 22.0491 32.2507 21.9105C32.2507 21.7729 32.287 21.639 32.3305 21.614C32.375 21.589 32.4111 21.3233 32.4111 21.023C32.4111 20.6283 32.4442 20.4531 32.5322 20.3858C32.6978 20.2577 32.6773 7.36191 32.5117 7.30991C32.4432 7.28971 32.4111 7.102 32.4111 6.72755C32.4111 6.40989 32.377 6.17502 32.3305 6.17502C32.287 6.17502 32.2507 6.04411 32.2507 5.88336C32.2507 5.72261 32.197 5.54068 32.1308 5.47907C32.0645 5.41745 32.0106 5.26536 32.0106 5.13927C32.0106 4.98525 31.9713 4.91018 31.8905 4.91018C31.8171 4.91018 31.7703 4.84086 31.7703 4.7292C31.7703 4.62909 31.7352 4.52707 31.6907 4.50205C31.6472 4.47605 31.6111 4.38941 31.6111 4.30952C31.6111 4.22771 31.5572 4.143 31.491 4.11893C31.4247 4.09582 31.3709 4.01305 31.3709 3.93605C31.3709 3.85807 31.3345 3.79455 31.2913 3.79455C31.2468 3.79455 31.2104 3.74448 31.2104 3.68286C31.2104 3.65343 31.1978 3.62516 31.1756 3.60425C31.1533 3.58334 31.1232 3.57148 31.0913 3.5712C31.0211 3.5712 30.9701 3.50384 30.9701 3.41239C30.9701 3.32575 30.8451 3.14286 30.6908 3.00809C30.5366 2.87334 30.4112 2.72702 30.4112 2.6837C30.4112 2.6732 30.4088 2.66284 30.4043 2.6532C30.3999 2.64357 30.3934 2.63482 30.3853 2.6275C30.3774 2.62016 30.3677 2.61439 30.3573 2.61048C30.3467 2.60659 30.3356 2.60464 30.3245 2.60477C30.2147 2.60477 30.0108 2.41514 30.0108 2.31214C30.0108 2.29095 30.0016 2.27063 29.9855 2.25565C29.9695 2.24067 29.9475 2.23225 29.9247 2.23225C29.814 2.23225 29.61 2.04262 29.61 1.93962C29.61 1.8963 29.5749 1.85973 29.5324 1.85973C29.4889 1.85973 29.3233 1.74325 29.1651 1.59983C29.0066 1.4564 28.8079 1.33993 28.7231 1.33993C28.639 1.33993 28.5698 1.29661 28.5698 1.24559C28.5698 1.19361 28.4259 1.0935 28.2499 1.02227C28.0739 0.951041 27.9301 0.859593 27.9301 0.818202C27.9301 0.777773 27.8401 0.744084 27.7303 0.744084C27.6206 0.744084 27.5306 0.710393 27.5306 0.669964C27.5306 0.628573 27.4559 0.594882 27.365 0.594882C27.2589 0.589114 27.1581 0.550089 27.0792 0.484184C26.9909 0.414852 26.88 0.375477 26.7645 0.372523C26.658 0.372523 26.57 0.339795 26.57 0.30033C26.57 0.260861 26.3888 0.205995 26.1683 0.179042C25.9468 0.152089 25.747 0.10011 25.723 0.0644936C25.7013 0.0288777 23.3795 0 20.5639 0H15.4482L15.4689 12.0719ZM37.0518 12.0911V24.1814H52.3326V22.0982H43.1312V5.65523H52.3326V0H37.0518V12.0901V12.0911ZM56.1936 2.882L56.2144 5.76496L56.5943 5.78807C56.822 5.80155 56.9743 5.77941 56.9743 5.73223C56.9743 5.6793 57.7567 5.65425 59.4141 5.65425H61.855V24.1814L64.9552 24.162L68.0556 24.1427L68.0761 14.898L68.0968 5.65425H73.136V0H56.1731L56.1936 2.88295V2.882ZM23.7698 5.72934C23.7698 5.76977 23.9458 5.80346 24.1611 5.80346C24.4354 5.80346 24.5668 5.83716 24.5989 5.91511C24.6238 5.97673 24.718 6.02677 24.8069 6.02677C24.8971 6.02677 24.9696 6.06048 24.9696 6.10091C24.9696 6.1423 25.0057 6.17502 25.0502 6.17502C25.1537 6.17502 25.7698 6.74873 25.7698 6.84498C25.7698 6.88639 25.8017 6.92007 25.8422 6.92007C25.8805 6.92007 25.9354 7.00284 25.9633 7.10584C25.9903 7.20789 26.0481 7.29164 26.0916 7.29164C26.1351 7.29164 26.1702 7.43986 26.1702 7.6218C26.1702 7.80373 26.2066 7.97314 26.2501 7.99818C26.3017 8.02802 26.3297 10.1322 26.3297 14.0663C26.3297 18.0322 26.3027 20.0883 26.2501 20.0883C26.2066 20.0883 26.1702 20.2029 26.1702 20.3415C26.1702 20.4965 26.1238 20.61 26.0501 20.637C25.9838 20.6601 25.9302 20.7477 25.9302 20.8305C25.9302 20.9133 25.8939 20.9816 25.8494 20.9816C25.8059 20.9816 25.7698 21.0317 25.7698 21.0933C25.7698 21.1549 25.7315 21.2049 25.6837 21.2049C25.574 21.2049 25.37 21.3945 25.37 21.4975C25.37 21.5409 25.3164 21.5765 25.2502 21.5765C25.1839 21.5765 25.13 21.6102 25.13 21.6516C25.13 21.692 25.0576 21.7257 24.9674 21.7257C24.8784 21.7257 24.7842 21.7758 24.7585 21.8373C24.7335 21.899 24.6269 21.949 24.5213 21.949C24.4157 21.949 24.3298 21.9827 24.3298 22.0231C24.3298 22.0703 23.8102 22.0982 22.9293 22.0982H21.5297V5.65523H22.6497C23.3433 5.65523 23.7698 5.68314 23.7698 5.72934ZM15.4503 37.9455V49.9989H20.89C24.4644 49.9989 26.3307 49.973 26.3307 49.9239C26.3307 49.8834 26.5119 49.8498 26.7314 49.8498C27.0337 49.8498 27.1309 49.8227 27.1309 49.738C27.1309 49.6639 27.2107 49.6264 27.3669 49.6264C27.4962 49.6264 27.6235 49.5927 27.6515 49.5523C27.6784 49.5118 27.807 49.4782 27.9362 49.4782C28.0915 49.4782 28.1713 49.4396 28.1713 49.3655C28.1713 49.2961 28.2467 49.2548 28.3711 49.2548C28.4818 49.2548 28.5708 49.2211 28.5708 49.1798C28.5708 49.1393 28.6257 49.1057 28.6919 49.1057C28.7238 49.1057 28.7542 49.0939 28.7767 49.073C28.7992 49.0521 28.8121 49.0236 28.8121 48.9939C28.8121 48.9305 28.8835 48.8823 28.9777 48.8823C29.1535 48.8823 29.371 48.7216 29.371 48.5907C29.371 48.5464 29.4486 48.5107 29.5418 48.5107C29.635 48.5107 29.8315 48.3934 29.9766 48.2509C30.1215 48.1064 30.2787 47.99 30.3264 47.99C30.3492 47.99 30.3709 47.9816 30.3872 47.9666C30.4033 47.9516 30.4122 47.9314 30.4122 47.91C30.4122 47.8071 30.6152 47.6175 30.7259 47.6175C30.7736 47.6175 30.8119 47.5848 30.8119 47.5443C30.8119 47.5048 30.9383 47.3518 31.0913 47.2036C31.2468 47.0552 31.3709 46.8714 31.3709 46.7934C31.3709 46.7145 31.4124 46.65 31.4631 46.65C31.583 46.65 31.7664 46.4218 31.7693 46.268C31.7716 46.2325 31.7839 46.1984 31.8057 46.1693C31.8272 46.14 31.8569 46.1168 31.8915 46.1023C31.9577 46.0793 32.0116 45.9955 32.0116 45.9166C32.0116 45.8377 32.0655 45.7539 32.1317 45.7307C32.198 45.7068 32.2519 45.62 32.2519 45.5373C32.2519 45.4536 32.288 45.3852 32.3315 45.3852C32.376 45.3852 32.4123 45.2889 32.4123 45.1705C32.4123 45.0473 32.464 44.9366 32.5312 44.9125C32.6017 44.8875 32.6524 44.7759 32.6524 44.6441C32.6524 44.5198 32.6875 44.4177 32.7322 44.4177C32.7755 44.4177 32.8118 44.2541 32.8118 44.0539C32.8118 43.7998 32.8481 43.6775 32.9319 43.6477C33.1141 43.5823 33.1141 28.7132 32.9319 28.5448C32.8595 28.4773 32.8118 28.2955 32.8118 28.0923C32.8118 27.9055 32.7755 27.7525 32.7322 27.7525C32.6875 27.7525 32.6524 27.6707 32.6524 27.5716C32.6491 27.4639 32.6064 27.3607 32.5312 27.2789C32.4561 27.1934 32.4143 27.087 32.4123 26.9766C32.4123 26.8707 32.3802 26.785 32.3409 26.785C32.3016 26.785 32.2467 26.7014 32.2198 26.5993C32.1918 26.4973 32.1337 26.4134 32.0902 26.4134C32.0479 26.4134 32.0116 26.353 32.0116 26.2807C32.0116 25.8745 32.3997 25.8918 23.57 25.8918H15.4503V37.9455ZM37.0528 37.9455V49.9989H52.3326V44.4177H43.1312V27.9007H52.3326V25.8918H37.0518V37.9455H37.0528ZM61.855 37.9455V49.9989H68.0968V25.8918H61.856V37.9455H61.855ZM24.9416 28.0134C24.9674 28.0739 25.0741 28.1241 25.1797 28.1241C25.2853 28.1241 25.371 28.1577 25.371 28.1991C25.371 28.2395 25.4613 28.2732 25.571 28.2732C25.6847 28.2732 25.7708 28.3157 25.7708 28.3723C25.7708 28.4264 25.8607 28.5159 25.9715 28.5707C26.0812 28.6255 26.1712 28.715 26.1712 28.7689C26.1712 28.8239 26.2189 28.8682 26.2758 28.8682C26.3339 28.8682 26.431 28.9855 26.4911 29.128C26.5512 29.2725 26.6486 29.3889 26.7064 29.3889C26.7788 29.3889 26.811 29.5034 26.811 29.7614C26.811 29.9655 26.8473 30.133 26.8908 30.133C26.9435 30.133 26.9714 32.1543 26.9714 36.0482C26.9714 39.9418 26.9435 41.9632 26.8908 41.9632C26.8473 41.9632 26.811 42.1307 26.811 42.3348C26.811 42.6159 26.7821 42.7073 26.6911 42.7073C26.6164 42.7073 26.571 42.7775 26.571 42.8932C26.571 42.995 26.5356 43.0789 26.4911 43.0789C26.4466 43.0789 26.4115 43.1289 26.4115 43.1905C26.4115 43.252 26.3628 43.3023 26.305 43.3023C26.2459 43.3023 26.1495 43.3859 26.0916 43.4889C26.0316 43.5909 25.9497 43.6748 25.9062 43.6748C25.8649 43.6748 25.7458 43.7584 25.6444 43.8605C25.5418 43.9625 25.4054 44.0464 25.3401 44.0464C25.2739 44.0464 25.1982 44.08 25.1713 44.1214C25.1443 44.1618 25.0047 44.1955 24.8608 44.1955C24.7148 44.1961 24.5717 44.2339 24.4468 44.3043C24.3236 44.3909 23.9975 44.4139 22.9106 44.4159L21.5308 44.4177V27.9007H23.2129C24.6352 27.9007 24.9033 27.918 24.9416 28.0134Z" fill="white"/>
</g>
<defs>
<clipPath id="clip0_2541_3437">
<rect width="165.625" height="50" fill="white"/>
</clipPath>
</defs>
</svg>
