<svg width="166" height="46" viewBox="0 0 166 46" fill="none" xmlns="http://www.w3.org/2000/svg">
<g clip-path="url(#clip0_2546_2530)">
<path d="M113.98 35.8561V27.6863C113.98 25.6755 113.226 24.6701 111.341 24.6701C110.587 24.6701 109.707 24.796 109.204 24.9213V36.8615C109.204 37.2386 108.827 37.6157 108.45 37.6157H105.559C105.182 37.6157 104.805 37.2386 104.805 36.8615V22.9105C104.805 22.4075 105.182 22.031 105.559 21.9051C107.445 21.2768 109.33 20.8997 111.34 20.8997C115.865 20.8997 118.379 23.2876 118.379 27.687V36.9874C118.379 37.3645 118.002 37.7416 117.625 37.7416H115.865C114.734 37.7409 113.98 36.8615 113.98 35.8561ZM125.292 30.9543L125.166 32.0857C125.166 33.5941 126.171 34.4736 127.805 34.4736C129.062 34.4736 130.193 34.0965 131.45 33.4682C131.576 33.4682 131.701 33.3422 131.827 33.3422C132.079 33.3422 132.205 33.4682 132.33 33.5934C132.456 33.7194 132.708 34.0965 132.708 34.0965C132.959 34.4736 133.211 34.9759 133.211 35.353C133.211 35.9813 132.833 36.6096 132.331 36.8615C130.949 37.6157 129.315 37.9928 127.555 37.9928C125.544 37.9928 123.91 37.4898 122.654 36.4844C121.397 35.353 120.643 33.8453 120.643 31.9597V27.058C120.643 23.1617 123.157 20.7738 127.43 20.7738C131.578 20.7738 133.965 23.0364 133.965 27.058V30.0742C133.965 30.4513 133.588 30.8284 133.211 30.8284H125.293L125.292 30.9543ZM125.166 28.1893H129.942V26.9328C129.942 25.4243 129.062 24.4189 127.554 24.4189C126.046 24.4189 125.166 25.2984 125.166 26.9328V28.1893ZM157.216 30.9543L157.09 32.0857C157.09 33.5941 158.096 34.4736 159.729 34.4736C160.986 34.4736 162.117 34.0965 163.374 33.4682C163.5 33.4682 163.626 33.3422 163.752 33.3422C164.003 33.3422 164.129 33.4682 164.255 33.5934C164.38 33.7194 164.632 34.0965 164.632 34.0965C164.883 34.4736 165.135 34.9759 165.135 35.353C165.135 35.9813 164.758 36.6096 164.255 36.8615C162.873 37.6157 161.239 37.9928 159.479 37.9928C157.469 37.9928 155.834 37.4898 154.578 36.4844C153.321 35.353 152.567 33.8453 152.567 31.9597V27.058C152.567 23.1617 155.081 20.7738 159.354 20.7738C163.502 20.7738 165.89 23.0364 165.89 27.058V30.0742C165.89 30.4513 165.512 30.8284 165.135 30.8284H157.217V30.9543H157.216ZM157.09 28.1893H161.866V26.9328C161.866 25.4243 160.987 24.4189 159.478 24.4189C157.97 24.4189 157.09 25.2984 157.09 26.9328V28.1893ZM83.1873 37.7409H84.9469C85.324 37.7409 85.7011 37.3638 85.7011 36.9867V27.6863C85.7011 23.4129 83.4385 20.8991 79.6681 20.8991C78.5368 20.8991 77.2802 21.1502 76.526 21.4021V16.7516C76.526 15.7462 75.6465 14.866 74.6405 14.866H72.8809C72.5038 14.866 72.1266 15.2431 72.1266 15.6202V36.9867C72.1266 37.3638 72.5038 37.7409 72.8809 37.7409H75.7718C76.1489 37.7409 76.526 37.3638 76.526 36.9867V25.1725C77.1543 24.9213 78.0344 24.7954 78.6627 24.7954C80.5482 24.7954 81.3018 25.6749 81.3018 27.8116V35.9813C81.4277 36.8615 82.1819 37.7409 83.1873 37.7409ZM102.166 27.1833V31.8338C102.166 35.7301 99.5268 38.118 95.1275 38.118C90.854 38.118 88.089 35.7301 88.089 31.8338V27.1833C88.089 23.287 90.7281 20.8991 95.1275 20.8991C99.5268 20.8991 102.166 23.2876 102.166 27.1833ZM97.7672 27.1833C97.7672 25.6749 96.8877 24.6695 95.2534 24.6695C93.619 24.6695 92.7396 25.5489 92.7396 27.1833V31.8338C92.7396 33.3422 93.619 34.2217 95.2534 34.2217C96.8877 34.2217 97.7672 33.3422 97.7672 31.8338V27.1833ZM69.7394 25.0472C69.7394 29.0695 66.7232 31.8345 62.701 31.8345C61.6956 31.8345 60.8154 31.7086 59.936 31.3315V36.9874C59.936 37.3645 59.5589 37.7416 59.1818 37.7416H56.2908C55.9137 37.7416 55.5366 37.3645 55.5366 36.9874V17.0034C55.5366 16.5004 55.9137 16.1239 56.2908 15.998C58.1764 15.3697 60.0612 14.9926 62.072 14.9926C66.5966 14.9926 69.7387 17.7576 69.7387 22.031C69.7394 22.0304 69.7394 25.0472 69.7394 25.0472ZM65.2148 21.7792C65.2148 19.7684 63.8323 18.763 61.9468 18.763C60.8154 18.763 60.0612 19.1401 60.0612 19.1401V27.4351C60.8154 27.8122 61.1926 27.9382 62.072 27.9382C63.9576 27.9382 65.3401 26.8068 65.3401 24.922V21.7799H65.2148V21.7792ZM150.932 25.0472C150.932 29.0695 147.916 31.8345 143.893 31.8345C142.888 31.8345 142.008 31.7086 141.128 31.3315V36.9874C141.128 37.3645 140.751 37.7416 140.374 37.7416H137.483C137.106 37.7416 136.729 37.3645 136.729 36.9874V17.0034C136.729 16.5004 137.106 16.1239 137.483 15.998C139.369 15.3697 141.254 14.9926 143.265 14.9926C147.789 14.9926 150.931 17.7576 150.931 22.031C150.932 22.0304 150.932 25.0472 150.932 25.0472ZM146.407 21.7792C146.407 19.7684 145.025 18.763 143.139 18.763C142.008 18.763 141.254 19.1401 141.254 19.1401V27.4351C142.008 27.8122 142.385 27.9382 143.265 27.9382C145.15 27.9382 146.533 26.8068 146.533 24.922V21.7799H146.407V21.7792Z" fill="#5F259F"/>
<path d="M22.7024 45.4978C35.1276 45.4978 45.2002 35.4252 45.2002 23C45.2002 10.5748 35.1276 0.502197 22.7024 0.502197C10.2772 0.502197 0.20459 10.5748 0.20459 23C0.20459 35.4252 10.2772 45.4978 22.7024 45.4978Z" fill="#5F259F"/>
<path d="M32.9134 17.1287C32.9134 16.2492 32.1591 15.495 31.2797 15.495H28.2635L21.351 7.57709C20.7227 6.82288 19.7173 6.5717 18.7119 6.82288L16.324 7.57709C15.9469 7.70302 15.821 8.20538 16.0728 8.45657L23.6136 15.6209H12.1752C11.7981 15.6209 11.5469 15.8721 11.5469 16.2492V17.5058C11.5469 18.3853 12.3011 19.1395 13.1806 19.1395H14.9402V25.1725C14.9402 29.6971 17.3281 32.3369 21.3503 32.3369C22.6069 32.3369 23.6129 32.2109 24.8695 31.7086V35.7308C24.8695 36.8621 25.749 37.7416 26.8803 37.7416H28.6399C29.017 37.7416 29.3941 37.3645 29.3941 36.9874V19.0142H32.2851C32.6622 19.0142 32.9134 18.763 32.9134 18.3859V17.1287ZM24.8695 27.9375C24.1153 28.3146 23.1099 28.4405 22.3557 28.4405C20.3449 28.4405 19.3395 27.4351 19.3395 25.1725V19.1395H24.8695V27.9375Z" fill="white"/>
</g>
<defs>
<clipPath id="clip0_2546_2530">
<rect width="165.685" height="45" fill="white" transform="translate(0.20459 0.5)"/>
</clipPath>
</defs>
</svg>
