<svg width="133" height="50" viewBox="0 0 133 50" fill="none" xmlns="http://www.w3.org/2000/svg">
<g clip-path="url(#clip0_2541_3362)">
<path d="M126.477 11.3355C129.534 11.3355 132.145 8.72385 132.145 5.66779C132.145 2.61153 129.534 6.10352e-05 126.477 6.10352e-05C123.365 6.10352e-05 120.754 2.61172 120.754 5.66779C120.754 8.72385 123.365 11.3355 126.477 11.3355Z" fill="#F72442"/>
<path d="M111.953 39.1099H120.274V14.1975H111.953V39.1099ZM94.8071 30.6879C91.933 30.6879 90.4199 28.3682 90.4199 25.5946C90.4199 22.9215 91.933 20.7029 94.8071 20.7029C96.4207 20.7029 98.0851 21.3585 99.3461 22.6701V28.6711C98.0851 29.9818 96.4207 30.6879 94.8071 30.6879ZM94.7067 50.0026C103.532 50.0026 107.667 45.6659 107.667 38.3028V14.1975H99.3461V15.6096C97.8328 14.1975 95.6143 13.3904 93.1427 13.3904C86.3351 13.3904 81.8467 18.4838 81.8467 25.5946C81.8467 32.8062 86.3351 38.0005 93.1427 38.0005C95.6143 38.0005 97.8328 36.9916 99.3461 35.7812V38.3026C99.3461 41.0263 97.7824 42.4385 94.2023 42.4385C91.3276 42.4385 87.4446 41.3285 84.1161 39.0088V47.0779C86.2341 48.4395 90.4704 50.0026 94.7067 50.0026ZM63.3894 39.9171C66.4657 39.9171 68.584 38.7571 70.0971 37.2946V39.1099H78.3167V14.1975H69.9959V30.1331C69.0376 31.4952 67.6761 32.3522 66.113 32.3522C64.0954 32.3522 62.7339 30.9908 62.7339 28.8221V14.1975H54.413V30.8896C54.413 36.6889 58.7497 39.9171 63.3894 39.9171ZM27.6347 39.1099H50.6313V32.1506H38.7803L50.379 20.8539V14.1975H27.837V21.0056H39.2341L27.6347 32.3018V39.1099ZM0 39.1099H24.6096V31.0413H8.57299V25.3423H23.0464V17.5261H8.57299V11.6256H24.6096V3.80859H0V39.1099Z" fill="white"/>
<mask id="mask0_2541_3362" style="mask-type:alpha" maskUnits="userSpaceOnUse" x="0" y="3" width="121" height="47">
<path d="M111.953 39.1058H120.274V14.1933H111.953V39.1058ZM94.8071 30.6838C91.933 30.6838 90.4199 28.364 90.4199 25.5905C90.4199 22.9173 91.933 20.6988 94.8071 20.6988C96.4207 20.6988 98.0851 21.3543 99.3461 22.6659V28.6669C98.0851 29.9776 96.4207 30.6838 94.8071 30.6838ZM94.7067 49.9985C103.532 49.9985 107.667 45.6618 107.667 38.2986V14.1933H99.3461V15.6055C97.8328 14.1933 95.6143 13.3862 93.1427 13.3862C86.3351 13.3862 81.8467 18.4796 81.8467 25.5905C81.8467 32.802 86.3351 37.9963 93.1427 37.9963C95.6143 37.9963 97.8328 36.9875 99.3461 35.777V38.2985C99.3461 41.0222 97.7824 42.4343 94.2023 42.4343C91.3276 42.4343 87.4446 41.3243 84.1161 39.0046V47.0738C86.2341 48.4353 90.4704 49.9985 94.7067 49.9985ZM63.3894 39.9129C66.4657 39.9129 68.584 38.7529 70.0971 37.2905V39.1058H78.3167V14.1933H69.9959V30.1289C69.0376 31.491 67.6761 32.348 66.113 32.348C64.0954 32.348 62.7339 30.9866 62.7339 28.8179V14.1933H54.413V30.8855C54.413 36.6848 58.7497 39.9129 63.3894 39.9129ZM27.6347 39.1058H50.6313V32.1465H38.7803L50.379 20.8498V14.1933H27.837V21.0015H39.2341L27.6347 32.2976V39.1058ZM0 39.1058H24.6096V31.0372H8.57299V25.3382H23.0464V17.5219H8.57299V11.6214H24.6096V3.80444H0V39.1058Z" fill="black"/>
</mask>
<g mask="url(#mask0_2541_3362)">
<path d="M-6.14795 -22.9407C-6.14795 -22.9407 -2.65918 35.0397 90.7015 33.6027C184.061 32.1657 188.904 -51.9613 188.904 -51.9613L-6.14795 -22.9407Z" fill="url(#paint0_linear_2541_3362)"/>
</g>
</g>
<defs>
<linearGradient id="paint0_linear_2541_3362" x1="78.7662" y1="34.9584" x2="96.9513" y2="-68.1749" gradientUnits="userSpaceOnUse">
<stop stop-color="#F72442"/>
<stop offset="0.0539" stop-color="#CE1E37"/>
<stop offset="0.1326" stop-color="#981629"/>
<stop offset="0.2122" stop-color="#690F1C"/>
<stop offset="0.291" stop-color="#430A12"/>
<stop offset="0.369" stop-color="#26060A"/>
<stop offset="0.4458" stop-color="#110204"/>
<stop offset="0.5209" stop-color="#040101"/>
<stop offset="0.5924"/>
</linearGradient>
<clipPath id="clip0_2541_3362">
<rect width="132.857" height="50" fill="white"/>
</clipPath>
</defs>
</svg>
