<svg width="183" height="51" viewBox="0 0 183 51" fill="none" xmlns="http://www.w3.org/2000/svg">
<path fill-rule="evenodd" clip-rule="evenodd" d="M156.139 49.0939L182.083 25.4264L169.794 0.941895L156.139 49.0939Z" fill="#097939"/>
<path fill-rule="evenodd" clip-rule="evenodd" d="M147.4 49.0939L173.345 25.4264L161.056 0.941895L147.4 49.0939Z" fill="#ED752E"/>
<path fill-rule="evenodd" clip-rule="evenodd" d="M23.4145 1.21532L12.491 40.1177L51.2702 40.3894L61.9219 1.21532H71.753L58.9818 46.7569C58.4927 48.496 56.6305 49.9089 54.8244 49.9089H5.11812C2.10375 49.9089 0.317594 47.554 1.13278 44.6555L13.3134 1.21532H23.4145ZM143.304 0.94359H153.135L139.48 49.9089H129.372L143.304 0.94359ZM72.8472 21.3449L122.005 21.0732L125.283 10.7348H75.3036L78.3071 1.21351L131.566 0.724395C134.881 0.693599 136.855 3.26052 135.982 6.46147L130.964 24.8013C130.089 28.0004 126.689 30.5927 123.374 30.5927H79.4013L74.2167 50.7241H64.6519L72.8472 21.3449Z" fill="#747474"/>
</svg>
