<svg width="234" height="45" viewBox="0 0 234 45" fill="none" xmlns="http://www.w3.org/2000/svg">
<g clip-path="url(#clip0_2546_2564)">
<path fill-rule="evenodd" clip-rule="evenodd" d="M0 42.7369H13.2476C13.7817 40.4449 14.4749 35.8101 14.9308 33.2738L17.7282 17.6162C17.8095 17.3905 17.7537 17.5275 17.8157 17.4296C18.1021 18.659 21.6333 28.5642 22.1664 30.1634L24.8848 38.043C25.0771 38.6209 25.2198 39.1225 25.4369 39.6835L26.2543 42.0639C26.3518 42.373 26.3661 42.7369 26.6776 42.7369H74.0033C74.0255 41.7429 77.7435 22.7214 78.2973 19.3482C78.6536 17.1782 79.308 13.4277 79.7591 11.491H87.0679C87.0679 12.3704 85.8552 18.2541 85.6724 19.3232L84.2278 27.106C83.4528 30.9965 82.8694 34.8835 82.0809 38.7548C81.8857 39.7133 81.4034 41.8518 81.4034 42.7366H206.296C206.296 41.7367 207.758 34.7186 208.031 33.0522L209.363 25.796C209.449 25.3168 209.513 24.9905 209.585 24.5554C209.661 24.0938 209.767 23.8073 209.767 23.2764H209.95C210.013 24.0266 210.416 24.9672 210.628 25.7047L214.256 37.8831C214.514 38.7167 215.391 42.0801 215.706 42.7366H228.954C228.803 42.0892 228.455 41.3261 228.234 40.7161C227.988 40.0386 227.727 39.4049 227.482 38.7274C226.963 37.2959 223.149 27.5306 222.924 26.5657C224.04 26.5409 226.459 25.7159 227.371 25.2565C228.095 24.8916 228.528 24.6743 229.174 24.2277C229.659 23.8924 230.393 23.3326 230.744 22.8737C231.174 22.3098 231.619 21.8785 231.989 21.2868C232.382 20.6579 232.682 20.0319 232.961 19.3353C233.664 17.5823 233.888 15.5799 233.888 13.4098C233.888 7.19628 229.141 4.14955 223.708 2.94158C221.896 2.53884 219.59 2.2636 217.443 2.2636H200.906C200.533 2.2636 200.441 3.58619 200.37 4.01181C199.598 8.65876 198.667 13.1337 197.838 17.7425L195.673 29.5557C195.478 30.7001 194.994 32.3263 194.967 33.5095H174.685C174.768 33.3369 175.964 26.8839 175.964 26.4747H188.207C188.675 24.4644 189.143 21.5859 189.498 19.4521C189.55 19.1389 189.661 18.7865 189.669 18.4348H177.517C177.517 17.5251 178.207 14.3848 178.424 13.3114C178.529 12.79 178.705 12.0508 178.705 11.4913H191.13C191.506 11.4913 191.629 9.89485 191.731 9.35151C192.17 7.02089 192.519 4.53655 193.049 2.2636H167.376C167.376 3.0319 166.229 8.79245 166.059 9.6258C165.803 10.8843 165.617 12.1147 165.373 13.3253L163.331 24.4393C163.154 25.4729 162.005 31.0292 161.986 31.8647H152.667C152.667 31.3004 156.548 10.6972 156.755 9.6401C157.002 8.37398 157.224 7.21939 157.443 5.94279C157.549 5.3263 157.947 2.68325 158.149 2.26312H144.719C144.141 4.74174 143.173 10.553 142.67 13.3708C142.448 14.62 142.226 15.863 141.987 17.0724L139.929 28.1714C139.693 29.4428 139.515 30.6739 139.237 31.8647H130.192C130.208 31.1765 132.057 21.7331 132.241 20.757L134.296 9.65583C134.777 7.2406 135.115 4.66452 135.674 2.26336H122.244C122.226 3.0643 118.269 23.7096 117.95 25.6521C117.588 27.8557 116.951 31.521 116.488 33.5092H96.1144L96.7538 30.0374C96.939 28.9107 97.2993 27.6055 97.3934 26.4742C98.6588 26.4742 108.98 26.5765 109.453 26.4742C109.855 26.3877 109.783 25.9128 109.858 25.5079L110.907 19.7047C110.984 19.3122 111.098 18.9619 111.098 18.5255L98.8554 18.4343C99.0089 18.1142 100.123 11.9955 100.134 11.4908H112.651C113.053 11.4908 113.221 9.7185 113.278 9.37725L114.136 4.66214C114.28 3.92697 114.394 3.01521 114.57 2.26312H34.8102C34.8102 3.11888 34.4644 4.44552 34.3005 5.31653C33.1568 11.3933 32.1159 17.8812 30.9041 23.8471L30.4797 26.1635C30.4008 26.6229 30.5217 26.6348 30.2424 26.8395C30.1742 26.0205 23.0258 7.16744 21.9172 3.8276C21.7487 3.32024 21.5116 2.82648 21.3803 2.26312H7.40176C7.38341 3.08599 5.3602 13.3269 5.10545 14.859L3.69468 22.4929C3.25287 24.95 0.00142977 41.8923 0.00142977 42.7366L0 42.7369ZM220.877 15.858C220.184 21.7355 214.965 21.435 210.175 21.3902L212.151 10.538C215.908 10.4878 221.206 10.5392 220.877 15.858ZM45.0232 18.4986L46.2841 11.4271H66.5117L62.4005 33.5733H42.1181L43.4886 26.3922H56.261L57.6863 18.4986H45.0235H45.0232Z" fill="#82B93B"/>
</g>
<defs>
<clipPath id="clip0_2546_2564">
<rect width="233.888" height="45" fill="white"/>
</clipPath>
</defs>
</svg>
