<?xml version="1.0" encoding="UTF-8"?>
<svg id="Layer_1" data-name="Layer 1" xmlns="http://www.w3.org/2000/svg" viewBox="0 0 100 100">
  <defs>
    <style>
      .cls-1 {
        fill: #f5f5f5;
      }

      .cls-2 {
        fill: #00e653;
      }
    </style>
  </defs>
  <path class="cls-2" d="m50,37.99c3.61,2.62,7.17,5.19,10.71,7.79.17.12.29.51.22.71-1.29,4.03-2.62,8.05-3.92,12.08-.12.37-.28.51-.67.51-4.24-.01-8.48,0-12.72-.03-.21,0-.53-.25-.6-.45-1.35-4.04-2.66-8.09-3.97-12.14-.06-.17.02-.51.15-.6,3.58-2.62,7.17-5.22,10.8-7.86Z"/>
  <path class="cls-2" d="m35.71,71.68c1.45-1.99,2.89-3.98,4.34-5.96.91-1.26,1.8-2.53,2.75-3.75.2-.26.62-.5.94-.51,4.16-.03,8.33-.03,12.5,0,.29,0,.7.16.86.38,2.38,3.23,4.73,6.49,7.09,9.74.03.04.03.09.05.13-7.98,5.71-20.21,5.86-28.52-.02Z"/>
  <path class="cls-2" d="m24.95,43.1c1.42.46,2.85.93,4.27,1.39,2.3.74,4.59,1.5,6.89,2.22.42.13.64.34.77.77,1.31,4.08,2.65,8.15,3.96,12.23.09.28.08.71-.08.94-2.27,3.17-4.56,6.32-6.86,9.47-.04.06-.1.09-.16.14-8.5-6.42-11.61-18.17-8.8-27.15Z"/>
  <path class="cls-2" d="m66.21,70.28c-.81-1.11-1.62-2.22-2.43-3.33-1.49-2.05-3-4.1-4.46-6.18-.19-.27-.26-.75-.17-1.05,1.3-4.08,2.63-8.16,3.98-12.22.09-.28.36-.62.62-.7,3.67-1.22,7.35-2.4,11.03-3.59.09-.03.19-.03.29-.04,2.78,8.91-.3,20.66-8.85,27.13Z"/>
  <path class="cls-2" d="m48.81,24.02c0,.24,0,.48,0,.72,0,3.5,0,7,0,10.5,0,.46-.1.76-.5,1.04-3.62,2.6-7.22,5.24-10.84,7.84-.24.17-.65.31-.9.23-3.54-1.12-7.07-2.27-10.61-3.42-.09-.03-.17-.09-.25-.13,3.02-9.02,12.54-16.48,23.1-16.78Z"/>
  <path class="cls-2" d="m74.33,40.83c-2.74.89-5.43,1.77-8.12,2.64-.89.29-1.77.61-2.67.85-.28.07-.69.02-.92-.15-3.68-2.64-7.35-5.31-11.01-7.99-.2-.15-.4-.46-.4-.69-.02-3.75-.02-7.5-.01-11.24,0-.07.03-.14.05-.21,8.96.08,19.36,6.29,23.09,16.78Z"/>
  <path class="cls-1" d="m21.96,74.88c-.49,0-.92-.07-1.2-.13-2.06-.41-4.12-.82-6.18-1.24-2.49-.51-3.98-2.56-3.56-4.89.31-1.67,1.49-2.9,3.09-3.29-.23-.52-.45-1.05-.65-1.59-3.96-10.47-3.23-22.14,2.02-32.01,5.26-9.92,14.58-17.1,25.56-19.71,3.13-.74,6.27-1.12,9.31-1.12,7.86,0,15.41,2.49,22.44,7.39,1.44,1,1.91,2.19,2.06,3.01.19,1.06-.06,2.14-.7,3.06-.79,1.12-2,1.77-3.33,1.77-.97,0-1.93-.33-2.84-.98-5.42-3.86-11.54-5.82-18.18-5.82-.32,0-.64,0-.96.01-13.96.38-26.39,11-28.91,24.72-1.62,8.81.09,16.63,5.23,23.9,1.51,2.14,1.03,3.88.37,4.96-.77,1.25-2.06,1.97-3.55,1.97Z"/>
  <path class="cls-1" d="m49.64,89.1c-7.8,0-15.34-2.48-22.39-7.38-1.49-1.04-1.97-2.26-2.1-3.11-.17-1.08.1-2.18.79-3.09.79-1.05,1.97-1.65,3.25-1.65.98,0,1.95.34,2.89,1.01,5.46,3.9,11.39,5.79,18.13,5.79.16,0,.32,0,.48,0,14.14-.19,26.77-10.82,29.39-24.71,1.64-8.73-.06-16.56-5.21-23.91-1.55-2.22-1.03-3.99-.32-5.08.79-1.2,2.02-1.87,3.48-1.87.49,0,.93.08,1.25.14,2.06.41,4.12.83,6.17,1.25,1.25.26,2.3.94,2.93,1.91.59.9.79,2,.57,3.08-.34,1.61-1.51,2.8-3.05,3.18.77,1.8,1.4,3.62,1.89,5.51,5.23,20.04-6.07,40.65-25.72,46.92-4.19,1.34-8.37,2.02-12.43,2.02Z"/>
</svg>