<svg width="114" height="45" viewBox="0 0 114 45" fill="none" xmlns="http://www.w3.org/2000/svg">
<g clip-path="url(#clip0_2546_2553)">
<path d="M53.6363 6.61554V17.9836H60.6487C62.3191 17.9836 63.6999 17.4237 64.7912 16.3005C65.9143 15.1806 66.4743 13.8443 66.4743 12.298C66.4743 10.7517 65.9143 9.46313 64.7912 8.34C63.6967 7.18824 62.3159 6.61236 60.6487 6.61236H53.6363V6.61554ZM53.6363 21.9893V35.1773H49.4492V2.61301H60.5564C63.3785 2.61301 65.7712 3.55478 67.747 5.43196C69.7546 7.30914 70.7536 9.59994 70.7536 12.298C70.7536 14.996 69.7546 17.3632 67.747 19.2086C65.8062 21.0603 63.4072 21.983 60.5564 21.983H53.6363V21.9893ZM74.9853 28.3495C74.9853 29.444 75.4466 30.3508 76.3756 31.0794C77.3015 31.8048 78.3865 32.1707 79.6305 32.1707C81.3931 32.1707 82.9585 31.5184 84.3393 30.2171C85.7202 28.9126 86.4106 27.3823 86.4106 25.626C85.1061 24.5919 83.283 24.0797 80.9477 24.0797C79.2487 24.0797 77.8297 24.4901 76.6938 25.3078C75.558 26.1255 74.9853 27.1373 74.9853 28.3495ZM80.4036 12.1612C83.4994 12.1612 85.9429 12.9852 87.7342 14.6397C89.5255 16.2942 90.4163 18.5563 90.4163 21.4357V35.171H86.4106V32.0784H86.2293C84.4984 34.6237 82.1949 35.8964 79.3123 35.8964C76.8529 35.8964 74.7944 35.171 73.1431 33.717C71.4886 32.2598 70.6614 30.443 70.6614 28.2572C70.6614 25.9537 71.53 24.1211 73.2767 22.7593C75.0234 21.3944 77.3524 20.7135 80.2636 20.7135C82.7517 20.7135 84.8007 21.1685 86.4074 22.0784V21.1239C86.4074 19.6699 85.8316 18.4354 84.6798 17.4205C83.5248 16.4023 82.179 15.8965 80.6295 15.8965C78.291 15.8965 76.4425 16.8796 75.0775 18.8522L71.3868 16.5328C73.4231 13.6216 76.4266 12.1675 80.4036 12.1675M113.407 12.8898L99.43 44.9928H95.1061L100.295 33.7615L91.1004 12.8898H95.6534L102.3 28.8967H102.389L108.854 12.8898H113.407Z" fill="white"/>
<path d="M36.713 19.1418C36.713 17.8245 36.6016 16.5519 36.3917 15.3365H18.7271V22.543H28.8416C28.4089 24.891 27.0948 26.8891 25.1031 28.2286V32.9088H31.1419C34.6767 29.6508 36.713 24.8369 36.713 19.1449" fill="#4285F4"/>
<path d="M18.7275 37.4268C23.7832 37.4268 28.037 35.7691 31.1423 32.9088L25.1035 28.2286C23.4236 29.3581 21.2601 30.0199 18.7275 30.0199C13.8436 30.0199 9.69793 26.73 8.21209 22.298H1.99512V27.1182C5.07815 33.2302 11.4128 37.43 18.7307 37.43" fill="#34A853"/>
<path d="M8.21506 22.2948C7.83644 21.1653 7.62645 19.9595 7.62645 18.7154C7.62645 17.4714 7.83326 16.2655 8.21506 15.136V10.3158H1.9949C0.719056 12.8421 0 15.6928 0 18.7154C0 21.738 0.719056 24.592 1.9949 27.115L8.21506 22.2948Z" fill="#FABB05"/>
<path d="M18.7275 7.41097C21.486 7.41097 23.9613 8.3591 25.9117 10.2172C27.8621 12.0753 31.2569 4.87836 31.2569 4.87836C28.0116 1.86214 23.78 0.00723267 18.7275 0.00723267C11.4128 0.00723267 5.07815 4.20385 1.99512 10.3158L8.21527 15.136C9.69793 10.704 13.8436 7.41415 18.7307 7.41415" fill="#E94235"/>
</g>
<defs>
<clipPath id="clip0_2546_2553">
<rect width="113.407" height="45" fill="white"/>
</clipPath>
</defs>
</svg>
