<svg width="271" height="45" viewBox="0 0 271 45" fill="none" xmlns="http://www.w3.org/2000/svg">
<path d="M270.797 0H0.00878906V44.996H270.797V0Z" fill="#004A8F"/>
<path d="M270.796 0H45.1387V44.996H270.796V0Z" fill="#001F79"/>
<path d="M73.0767 33.1266V24.8675H66.4876V33.1266H59.4922V11.8245H66.4876V19.0456H73.0767V11.8245H80.1172V33.1266H73.0767Z" fill="white"/>
<mask id="mask0_2546_2127" style="mask-type:luminance" maskUnits="userSpaceOnUse" x="0" y="0" width="271" height="45">
<path d="M270.789 0.00396729H0V45H270.789V0.00396729Z" fill="white"/>
</mask>
<g mask="url(#mask0_2546_2127)">
<path d="M91.2136 17.1527H93.0188C94.3276 17.1527 95.2754 17.2881 95.9072 17.5588C96.3585 17.7394 96.7196 18.0553 97.0355 18.5066C97.3514 18.9579 97.5771 19.4995 97.7576 20.1765C97.9381 20.8534 97.9833 21.5755 97.9833 22.3428C97.9833 23.6065 97.8028 24.6445 97.4417 25.4568C97.0806 26.3143 96.5842 26.901 95.9072 27.2621C95.2303 27.6232 94.2374 27.8037 92.9286 27.8037H91.1684V17.1527H91.2136ZM93.9666 33.1292C95.6364 33.1292 96.9904 32.9938 98.1187 32.6779C99.247 32.362 100.15 32.0009 100.872 31.5496C101.594 31.0983 102.226 30.4664 102.812 29.6541C103.399 28.8417 103.941 27.8037 104.347 26.54C104.753 25.2763 104.979 23.8772 104.979 22.2976C104.979 19.9508 104.527 17.965 103.625 16.3403C102.722 14.7156 101.458 13.5422 99.8788 12.8652C98.2992 12.1882 96.4037 11.8271 94.1922 11.8271H84.4438V33.1292H93.9666Z" fill="white"/>
</g>
<mask id="mask1_2546_2127" style="mask-type:luminance" maskUnits="userSpaceOnUse" x="0" y="0" width="271" height="45">
<path d="M270.789 0.00396729H0V45H270.789V0.00396729Z" fill="white"/>
</mask>
<g mask="url(#mask1_2546_2127)">
<path d="M108.138 33.1292V11.8271H124.791V17.1075H115.088V20.4924H122.851V25.6374H115.088V33.1292H108.138Z" fill="white"/>
</g>
<mask id="mask2_2546_2127" style="mask-type:luminance" maskUnits="userSpaceOnUse" x="0" y="0" width="271" height="45">
<path d="M270.789 0.00396729H0V45H270.789V0.00396729Z" fill="white"/>
</mask>
<g mask="url(#mask2_2546_2127)">
<path d="M148.35 19.9959H141.715C141.58 18.9579 141.219 18.1004 140.542 17.5137C139.91 16.9269 139.098 16.6562 138.105 16.6562C136.886 16.6562 135.848 17.1526 135.081 18.1004C134.314 19.0481 133.907 20.6277 133.907 22.7489C133.907 24.2382 134.088 25.3665 134.404 26.1338C134.72 26.901 135.216 27.4877 135.803 27.8487C136.39 28.2098 137.157 28.3903 138.06 28.3903C139.143 28.3903 140 28.1195 140.632 27.4877C141.264 26.901 141.67 26.0435 141.76 24.8701H148.53C148.395 26.1789 148.124 27.3072 147.718 28.2098C147.357 29.1124 146.68 30.0151 145.777 30.9177C144.874 31.8203 143.791 32.5424 142.573 32.9937C141.309 33.4902 139.91 33.7158 138.24 33.7158C136.615 33.7158 135.081 33.4902 133.727 32.9937C132.328 32.4973 131.2 31.8203 130.252 30.9628C129.304 30.0602 128.582 29.0673 128.04 27.8939C127.273 26.3143 126.912 24.5542 126.912 22.5684C126.912 20.9436 127.183 19.364 127.724 17.965C128.266 16.5659 128.988 15.3473 129.936 14.3545C130.884 13.4067 131.922 12.6846 133.095 12.1882C134.539 11.5563 136.164 11.2855 137.969 11.2855C139.504 11.2855 140.948 11.5112 142.347 11.9625C143.701 12.4138 144.829 13.0908 145.687 13.9934C146.544 14.896 147.221 15.8889 147.718 17.0623C147.988 17.8296 148.214 18.8225 148.35 19.9959Z" fill="white"/>
</g>
<mask id="mask3_2546_2127" style="mask-type:luminance" maskUnits="userSpaceOnUse" x="0" y="0" width="271" height="45">
<path d="M270.789 0.00396729H0V45H270.789V0.00396729Z" fill="white"/>
</mask>
<g mask="url(#mask3_2546_2127)">
<path d="M170.825 16.6562C171.818 16.6562 172.45 16.7013 172.766 16.7916C173.172 16.927 173.533 17.1527 173.759 17.4234C173.985 17.7394 174.12 18.1004 174.12 18.5517C174.12 19.0933 173.894 19.5446 173.488 19.9057C173.037 20.2667 172.315 20.4021 171.232 20.4021H168.569V16.6562H170.825ZM172.586 33.1292C174.255 33.1292 175.429 33.0389 176.106 32.9035C176.783 32.7681 177.46 32.4973 178.182 32.1814C178.859 31.8204 179.4 31.4593 179.761 31.0983C180.303 30.6018 180.709 29.97 181.025 29.2479C181.341 28.5258 181.476 27.6683 181.476 26.7657C181.476 25.502 181.161 24.4188 180.529 23.5613C179.897 22.7038 178.994 22.1171 177.911 21.8012C179.761 20.6278 180.709 19.1384 180.709 17.2881C180.709 15.3925 179.897 13.9483 178.272 12.9554C177.008 12.1882 175.068 11.8271 172.45 11.8271H161.844V33.1292H172.586ZM171.457 24.2383C172.856 24.2383 173.759 24.4188 174.21 24.7799C174.616 25.1409 174.842 25.5922 174.842 26.2241C174.842 26.8559 174.616 27.3524 174.165 27.7134C173.714 28.0745 172.811 28.255 171.457 28.255H168.569V24.2383H171.457Z" fill="white"/>
</g>
<mask id="mask4_2546_2127" style="mask-type:luminance" maskUnits="userSpaceOnUse" x="0" y="0" width="271" height="45">
<path d="M270.789 0.00396729H0V45H270.789V0.00396729Z" fill="white"/>
</mask>
<g mask="url(#mask4_2546_2127)">
<path d="M196.912 25.9532H192.444L194.655 18.1906L196.912 25.9532ZM190.322 33.1291L191.135 30.331H198.13L198.942 33.1291H205.938L198.266 11.8271H191.135L183.462 33.1291H190.322Z" fill="white"/>
</g>
<mask id="mask5_2546_2127" style="mask-type:luminance" maskUnits="userSpaceOnUse" x="0" y="0" width="271" height="45">
<path d="M270.789 0.00396729H0V45H270.789V0.00396729Z" fill="white"/>
</mask>
<g mask="url(#mask5_2546_2127)">
<path d="M208.872 33.1292V11.8271H215.416L222.817 23.2454V11.8271H229.542V33.1292H222.862L215.641 22.0269V33.1292H208.872Z" fill="white"/>
</g>
<mask id="mask6_2546_2127" style="mask-type:luminance" maskUnits="userSpaceOnUse" x="0" y="0" width="271" height="45">
<path d="M270.789 0.00396729H0V45H270.789V0.00396729Z" fill="white"/>
</mask>
<g mask="url(#mask6_2546_2127)">
<path d="M234.235 33.1291V11.8271H241.005V18.8676L247.369 11.8271H255.628L247.775 19.8605L256.44 33.1291H248L242.901 24.6444L241.005 26.4948V33.1291H234.235Z" fill="white"/>
</g>
<mask id="mask7_2546_2127" style="mask-type:luminance" maskUnits="userSpaceOnUse" x="0" y="0" width="271" height="45">
<path d="M270.789 0.00396729H0V45H270.789V0.00396729Z" fill="white"/>
</mask>
<g mask="url(#mask7_2546_2127)">
<path d="M45.1344 0.00262451H0.00292969V44.9986H45.1344V0.00262451Z" fill="#EE0000"/>
</g>
<mask id="mask8_2546_2127" style="mask-type:luminance" maskUnits="userSpaceOnUse" x="0" y="0" width="271" height="45">
<path d="M270.789 0.00396729H0V45H270.789V0.00396729Z" fill="white"/>
</mask>
<g mask="url(#mask8_2546_2127)">
<path d="M37.2363 7.85571H7.90088V37.1009H37.2363V7.85571Z" fill="white"/>
</g>
<mask id="mask9_2546_2127" style="mask-type:luminance" maskUnits="userSpaceOnUse" x="0" y="0" width="271" height="45">
<path d="M270.789 0.00396729H0V45H270.789V0.00396729Z" fill="white"/>
</mask>
<g mask="url(#mask9_2546_2127)">
<path d="M24.8252 0.00262451H20.312V44.9986H24.8252V0.00262451Z" fill="white"/>
</g>
<mask id="mask10_2546_2127" style="mask-type:luminance" maskUnits="userSpaceOnUse" x="0" y="0" width="271" height="45">
<path d="M270.789 0.00396729H0V45H270.789V0.00396729Z" fill="white"/>
</mask>
<g mask="url(#mask10_2546_2127)">
<path d="M45.1344 20.2215H0.00292969V24.7346H45.1344V20.2215Z" fill="white"/>
</g>
<mask id="mask11_2546_2127" style="mask-type:luminance" maskUnits="userSpaceOnUse" x="0" y="0" width="271" height="45">
<path d="M270.789 0.00396729H0V45H270.789V0.00396729Z" fill="white"/>
</mask>
<g mask="url(#mask11_2546_2127)">
<path d="M29.3387 15.7537H15.7993V29.248H29.3387V15.7537Z" fill="#001F79"/>
</g>
</svg>
