<svg width="228" height="45" viewBox="0 0 228 45" fill="none" xmlns="http://www.w3.org/2000/svg">
<path fill-rule="evenodd" clip-rule="evenodd" d="M41.3008 44.6213H48.9881L54.9714 22.203H47.3219L41.3008 44.6213Z" fill="white"/>
<path fill-rule="evenodd" clip-rule="evenodd" d="M80.6826 44.6213H88.3321L94.3532 22.203H86.7037L80.6826 44.6213Z" fill="white"/>
<path fill-rule="evenodd" clip-rule="evenodd" d="M120.067 44.6213H127.716L133.738 22.203H126.088L120.067 44.6213Z" fill="white"/>
<path fill-rule="evenodd" clip-rule="evenodd" d="M73.5686 29.8904H81.2559C82.2784 24.8538 79.0217 22.2409 71.4858 22.2409C62.776 22.2409 56.8685 26.4822 54.8993 33.9045C53.1195 40.6072 56.6412 44.6971 64.8588 44.6971C73.1142 44.6971 78.0371 42.122 80.1199 36.3659H72.4325C71.3722 38.9031 69.3273 40.2285 66.6386 40.2285C62.9275 40.2285 61.4885 37.8807 62.6245 33.6015C63.7984 29.1709 66.6007 26.7094 70.3497 26.7094C72.6219 26.7094 73.7201 27.7697 73.5686 29.8904Z" fill="white"/>
<path fill-rule="evenodd" clip-rule="evenodd" d="M112.952 29.8904H120.639C121.662 24.8538 118.405 22.2409 110.869 22.2409C102.159 22.2409 96.2518 26.4822 94.2826 33.9045C92.5028 40.6072 96.0246 44.6971 104.242 44.6971C112.497 44.6971 117.42 42.122 119.503 36.3659H111.816C110.756 38.9031 108.711 40.2285 106.022 40.2285C102.311 40.2285 100.872 37.8807 102.008 33.6015C103.182 29.1709 105.984 26.7094 109.733 26.7094C112.005 26.7094 113.103 27.7697 112.952 29.8904Z" fill="white"/>
<path fill-rule="evenodd" clip-rule="evenodd" d="M11.6909 9.74402C21.9533 -0.442677 34.3743 -3.05562 39.3351 3.87436C44.2959 10.8422 39.941 24.8158 29.6786 34.9646C19.4161 45.1513 6.99516 47.7643 2.03435 40.8343C-2.88859 33.9043 1.42845 19.9307 11.6909 9.74402Z" fill="#F99D28"/>
<path fill-rule="evenodd" clip-rule="evenodd" d="M18.507 4.32897C17.4088 5.16208 16.2349 6.14667 15.0988 7.24487C6.08608 16.1062 2.37494 28.2999 6.80559 34.3968C11.3877 40.4936 22.4454 38.2594 31.5718 29.2845C36.4947 24.513 39.8271 18.9084 41.1904 13.7204C41.607 9.89567 41.039 6.52536 39.3349 3.95028C35.3965 -1.46495 26.9518 -1.04839 18.507 4.32897Z" fill="#AF2A30"/>
<path fill-rule="evenodd" clip-rule="evenodd" d="M23.5817 40.039C18.7724 43.6366 13.8116 45.4543 8.96436 44.6969C11.0093 44.8105 12.6376 42.5384 14.0009 39.5089C15.3642 36.4036 16.1973 33.5256 16.8411 30.8369C17.7878 26.5578 17.8635 23.5283 17.3712 22.8845C16.5381 21.7863 14.6825 22.0893 12.5619 23.3011C11.5394 23.8691 10.214 23.4904 11.8045 21.5591C13.4329 19.6278 19.7948 14.9321 22.1048 14.2125C24.642 13.493 27.52 14.4776 26.5355 17.242C25.8538 19.2112 16.9925 42.4626 23.5817 40.039ZM30.8146 4.02585C32.0264 5.23765 31.2691 7.8506 29.262 9.89551C27.2171 11.9404 24.5284 12.6599 23.3545 11.486C22.1048 10.3121 22.8622 7.66125 24.9071 5.57846C26.9899 3.49568 29.6786 2.85192 30.8146 4.02585Z" fill="white"/>
<path fill-rule="evenodd" clip-rule="evenodd" d="M145.254 41.0995L146.996 34.5482H152.032C155.895 34.5482 157.599 35.2299 156.917 37.8807C156.274 40.3043 154.38 41.0995 150.896 41.0995H145.254ZM149.382 25.6869H154.153C157.751 25.6869 159.379 26.1035 158.811 28.3756C158.205 30.6099 156.274 31.1779 152.563 31.1779H147.905L149.382 25.6869ZM139.46 44.6592H150.972C154.229 44.6592 156.69 44.3941 159 42.8036C160.553 41.7433 161.727 40.1149 162.181 38.3351C163.014 35.2677 161.613 33.1849 158.091 32.6927C161.424 32.0868 163.507 30.3448 164.188 27.694C164.756 25.6491 164.302 24.1722 162.825 23.1876C161.613 22.3924 159.606 22.2409 156.917 22.2409H145.481L139.46 44.6592Z" fill="white"/>
<path fill-rule="evenodd" clip-rule="evenodd" d="M176.647 37.4641L176.571 37.7292C175.814 40.6451 173.466 42.3871 170.588 42.3871C168.505 42.3871 167.634 41.5918 168.013 40.0771C168.581 38.0321 170.361 37.4641 173.693 37.4641H176.647ZM174.829 44.6592H179.449C179.563 43.5989 179.828 42.4628 180.169 41.1752L181.835 34.9269C182.933 30.7992 180.888 28.6786 175.7 28.6786C170.702 28.6786 167.407 30.4205 166.423 33.3364H170.853C171.421 31.8595 172.709 31.1779 174.829 31.1779C177.215 31.1779 178.048 32.2382 177.442 34.5104L177.367 34.7754H174.943C168.089 34.7754 164.378 36.0251 163.317 39.9635C162.484 43.0308 164.416 45 168.505 45C171.156 45 173.466 44.129 175.322 42.4628L174.829 44.6592Z" fill="white"/>
<path fill-rule="evenodd" clip-rule="evenodd" d="M183.426 44.659H188.084L190.243 36.6687C191.038 33.7528 193.689 31.7458 196.453 31.7458C199.18 31.7458 200.126 33.3363 199.255 36.5172L197.059 44.6969H201.603L204.178 35.1161C205.277 31.0641 203.194 28.7163 198.687 28.7163C195.771 28.7163 193.386 29.7009 191.379 31.8215L191.947 29.0571H187.365C186.91 31.5186 186.569 33.0333 186.418 33.6392L183.426 44.659Z" fill="white"/>
<path fill-rule="evenodd" clip-rule="evenodd" d="M205.692 44.6592H210.199L212.471 36.2145L218.568 44.6592H224.778L217.886 35.7222L227.202 29.0194H221.37L212.698 35.3435L216.22 22.2409H211.714L205.692 44.6592Z" fill="white"/>
</svg>
