<svg width="30" height="30" viewBox="0 0 30 30" fill="none" xmlns="http://www.w3.org/2000/svg">
<rect width="30" height="30" rx="4" fill="url(#paint0_linear_3319_1679)"/>
<path d="M18.4225 6.04883H11.5833C8.53255 6.04883 6.05469 8.52669 6.05469 11.5775V18.4167C6.05469 21.4674 8.53255 23.9453 11.5833 23.9453H18.4225C21.4733 23.9453 23.9512 21.4674 23.9512 18.4167V11.5775C23.9512 8.52669 21.4733 6.04883 18.4225 6.04883ZM21.9531 18.4238C21.9531 20.3717 20.3704 21.9616 18.4154 21.9616H11.5762C9.62825 21.9616 8.03841 20.3789 8.03841 18.4238V11.5846C8.03841 9.63672 9.62109 8.04687 11.5762 8.04687H18.4154C20.3633 8.04687 21.9531 9.62956 21.9531 11.5846V18.4238Z" fill="white"/>
<path d="M14.998 10.4243C12.4772 10.4243 10.4219 12.4797 10.4219 15.0005C10.4219 17.5213 12.4772 19.5767 14.998 19.5767C17.5189 19.5767 19.5742 17.5213 19.5742 15.0005C19.5742 12.4797 17.5189 10.4243 14.998 10.4243ZM14.998 17.7791C13.4655 17.7791 12.2194 16.533 12.2194 15.0005C12.2194 13.4679 13.4655 12.2218 14.998 12.2218C16.5306 12.2218 17.7767 13.4679 17.7767 15.0005C17.7767 16.533 16.5306 17.7791 14.998 17.7791Z" fill="white"/>
<path d="M19.9222 10.9254C20.3438 10.8567 20.6299 10.4593 20.5612 10.0377C20.4926 9.61608 20.0951 9.32996 19.6735 9.39862C19.2519 9.46729 18.9658 9.86473 19.0345 10.2863C19.1031 10.7079 19.5006 10.994 19.9222 10.9254Z" fill="white"/>
<defs>
<linearGradient id="paint0_linear_3319_1679" x1="26.6667" y1="5" x2="-6.19847e-07" y2="23.75" gradientUnits="userSpaceOnUse">
<stop stop-color="#9001DC"/>
<stop offset="0.447839" stop-color="#FE277E"/>
<stop offset="1" stop-color="#FEE411"/>
</linearGradient>
</defs>
</svg>
