<svg width="156" height="45" viewBox="0 0 156 45" fill="none" xmlns="http://www.w3.org/2000/svg">
<path d="M0 22.5C0 10.0692 11.7042 0 26.1332 0C40.5623 0 52.2664 10.0692 52.2664 22.5C52.2664 34.9048 40.5623 45 26.1332 45C11.7042 45 0 34.9308 0 22.5Z" fill="#193964"/>
<path d="M22.8902 7.29232L28.9629 5.2681L28.9888 38.0968L22.8643 40.1729L22.8902 7.29232Z" fill="#EE3235"/>
<path d="M86.081 35.3978C91.9201 35.3978 96.3578 31.9982 96.3578 26.1591C96.3578 20.294 91.9201 16.8943 86.081 16.8943C80.2419 16.8943 75.8042 20.294 75.8042 26.1591C75.8042 31.9982 80.2419 35.3978 86.081 35.3978ZM86.081 31.1418C83.2782 31.1418 82.1104 28.8061 82.1104 26.185C82.1104 23.538 83.2782 21.2023 86.081 21.2023C88.9097 21.2023 90.0516 23.538 90.0516 26.185C90.0516 28.7802 88.8838 31.1418 86.081 31.1418Z" fill="#EE3235"/>
<path d="M95.7871 21.7214H99.2906V28.9099C99.2906 33.1141 100.614 35.5276 106.064 35.5276C107.595 35.5276 108.737 35.32 109.905 35.1902L109.697 31.2196C109.074 31.3234 108.451 31.4532 107.829 31.4532C105.908 31.4532 105.389 30.3632 105.389 28.2352V21.7214H109.671V17.4394H105.389V11.3148L99.3944 13.4688V17.4394H95.7871V21.7214Z" fill="#EE3235"/>
<path d="M131.055 35.1384H137.154V26.3668H137.232L142.111 35.1384H149.507L142.863 25.5623L148.988 17.4394H142.318L137.232 24.8875H137.154V11.3408L131.055 13.4689V35.1384Z" fill="#EE3235"/>
<path d="M59.5332 35.1385H65.6318V26.3668H65.7097L70.5886 35.1385H77.9848L71.3412 25.5623L77.4917 17.4395H70.7962L65.7097 24.8876H65.6318V11.3409L59.5332 13.3651V35.1385Z" fill="#EE3235"/>
<path d="M128.876 35.2161C128.59 33.8148 128.538 32.4134 128.538 30.986V24.3165C128.538 18.8667 124.594 16.8943 120.026 16.8943C117.379 16.8943 115.069 17.2836 112.89 18.166L112.993 22.3442C114.706 21.384 116.704 20.9947 118.703 20.9947C120.935 20.9947 122.751 21.6435 122.777 24.0829C121.999 23.9532 120.883 23.8494 119.896 23.8494C116.601 23.8494 110.658 24.4982 110.658 29.9739C110.658 33.8667 113.824 35.6054 117.353 35.6054C119.896 35.6054 121.609 34.5933 123.011 32.3874H123.089C123.089 33.3217 123.192 34.23 123.218 35.1902H128.876V35.2161ZM116.419 29.5587C116.419 27.8459 118.08 27.1971 120.156 27.1971C121.09 27.1971 121.973 27.275 122.751 27.3009C122.751 29.403 121.272 31.531 118.936 31.531C117.509 31.5051 116.419 30.7784 116.419 29.5587Z" fill="#EE3235"/>
<path d="M45.7268 24.8096C45.1559 29.5068 42.5348 34.256 36.7735 34.256C33.4258 34.256 30.7787 31.9722 28.9621 29.1435V25.8736C31.2458 27.0155 33.3479 28.2092 35.9431 28.2611C39.1092 28.3131 41.9898 27.0933 43.1836 24.8096H45.7268ZM26.4967 27.7681C27.1195 27.0155 28.8324 24.6798 28.8324 24.6798C31.0382 21.6954 33.6853 17.621 38.0971 17.621C40.0434 17.621 41.9898 18.5553 43.0279 20.0605H45.5711C44.6887 15.3892 41.5227 10.8477 35.8912 10.8477C31.1161 10.8477 28.3133 13.9099 25.9258 17.2836C25.6663 17.647 23.9535 19.9307 23.3566 20.7092C21.1766 23.6677 18.6074 27.5864 14.3254 27.5864C11.5227 27.5864 8.7199 25.666 8.66799 22.8373C8.61609 18.7369 12.2753 16.9203 16.4535 16.9722C18.4517 16.9982 21.514 17.9065 22.8894 18.8407V14.3771C21.2545 12.5345 18.5036 10.7957 15.649 10.7957C9.08322 10.7957 6.56592 16.9982 6.56592 22.2404C6.56592 27.6902 9.75796 34.23 16.5054 34.23C21.3064 34.1781 23.8497 30.9342 26.4967 27.7681Z" fill="white"/>
<path d="M152.206 13.391H152.387C152.673 13.391 153.01 13.4169 153.01 13.7802C153.01 14.1435 152.673 14.1955 152.387 14.1955H152.206V13.391ZM151.635 15.8564H152.232V14.6366H152.413C152.647 14.6366 152.725 14.7145 152.829 14.948L153.192 15.8564H153.841L153.348 14.7145C153.296 14.5847 153.192 14.429 153.036 14.4031C153.4 14.3512 153.633 14.0657 153.633 13.7283C153.633 12.9238 152.881 12.9238 152.258 12.9238H151.609V15.8564H151.635Z" fill="white"/>
<path d="M152.569 11.2631C153.426 11.2631 154.23 11.6264 154.775 12.1973C155.346 12.7682 155.683 13.5468 155.683 14.4032C155.683 15.2596 155.346 16.0381 154.775 16.6091C154.204 17.18 153.426 17.5174 152.569 17.5174C151.713 17.5174 150.908 17.1541 150.363 16.5831C149.792 16.0122 149.455 15.2336 149.455 14.3772C149.455 13.5208 149.792 12.7163 150.389 12.1714C150.934 11.6004 151.713 11.2631 152.569 11.2631ZM152.569 12.0416C151.92 12.0416 151.324 12.3011 150.908 12.7423C150.493 13.1835 150.208 13.7544 150.208 14.4032C150.208 15.052 150.467 15.6229 150.908 16.0641C151.324 16.4793 151.92 16.7388 152.569 16.7388C153.218 16.7388 153.789 16.4793 154.23 16.0381C154.645 15.6229 154.931 15.026 154.931 14.3772C154.931 13.7285 154.671 13.1316 154.23 12.7163C153.815 12.3011 153.218 12.0416 152.569 12.0416Z" fill="white"/>
</svg>
