<?xml version="1.0" encoding="UTF-8"?>
<svg id="Layer_1" data-name="Layer 1" xmlns="http://www.w3.org/2000/svg" viewBox="0 0 100 100">
  <defs>
    <style>
      .cls-1 {
        fill: #00e653;
      }
    </style>
  </defs>
  <path class="cls-1" d="m63.29,16.42c-.03-3.25-2.23-5.47-5.48-5.47-13.71-.01-27.42,0-41.12,0-3.2,0-5.36,2.12-5.48,5.31,0,.18,0,.36,0,.53,0,22.15,0,44.3-.01,66.44,0,1.95.5,3.64,2.15,4.78.69.48,1.55.71,2.34,1.05h43.18c1.65-.46,3.13-1.23,3.8-2.88.37-.91.59-1.96.6-2.94.03-21.13.02-42.26.02-63.39,0-1.15.01-2.29,0-3.43Zm-15.67,40.36c-2.19,1.05-4.47,1.3-6.83.72-.25-.06-.5-.11-.74-.16-.02,0-.05.02-.17.05v5.63c.88,0,1.71-.03,2.54.01,1.17.05,2.03.59,2.46,1.71.37.98.13,2.14-.69,2.77-.46.35-1.09.66-1.64.67-3.53.06-7.06.06-10.6.02-1.46-.02-2.51-1.16-2.52-2.54-.02-1.34.97-2.47,2.39-2.6.9-.08,1.81-.02,2.76-.02v-5.7c-.73.13-1.44.3-2.15.38-4.55.53-8.81-2.02-10.3-6.17-1.1-3.07-.33-5.84,1.41-8.44,1.79-2.67,4.1-4.85,6.6-6.83,1.75-1.38,3.61-2.64,5.43-3.93.98-.69,2.05-.81,3.08-.15,4.18,2.65,8.16,5.57,11.24,9.5,1.03,1.32,1.97,2.83,2.5,4.4,1.43,4.23-.68,8.71-4.77,10.67Z"/>
  <path class="cls-1" d="m68.51,65.77V17.36c.19.02.36,0,.51.05,2.13.57,4.27,1.13,6.4,1.72,3.22.9,4.76,3.52,3.9,6.73-3.51,13.17-7.04,26.33-10.57,39.5-.04.14-.1.28-.15.42-.03,0-.06,0-.09,0Z"/>
  <path class="cls-1" d="m82.99,32.33c1.37.84,2.7,1.54,3.9,2.42,2.12,1.56,2.5,4.42,1.01,6.99-3.91,6.78-7.82,13.55-11.73,20.32-.64,1.11-1.29,2.22-2.04,3.29,2.94-10.97,5.88-21.94,8.85-33.03Z"/>
</svg>