<svg width="75" height="45" viewBox="0 0 75 45" fill="none" xmlns="http://www.w3.org/2000/svg">
<path fill-rule="evenodd" clip-rule="evenodd" d="M37.3901 39.1674C41.3302 42.7979 46.6214 45 52.3767 45C64.7371 45 74.7413 34.9186 74.7413 22.5191C74.7413 10.0819 64.7371 0 52.3767 0C46.6214 0 41.3302 2.20168 37.3901 5.83264C32.8708 9.9655 30.0122 15.9141 30.0122 22.5191C30.0127 29.1241 32.8708 35.0731 37.3901 39.1674Z" fill="#E9B040"/>
<path fill-rule="evenodd" clip-rule="evenodd" d="M71.7681 35.034C71.7681 34.6476 72.0772 34.3389 72.4632 34.3389C72.8878 34.3389 73.1964 34.6481 73.1964 35.034C73.1964 35.4595 72.8873 35.7682 72.4632 35.7682C72.0772 35.7682 71.7681 35.4595 71.7681 35.034ZM72.4632 35.6141C72.7723 35.6141 73.0419 35.3432 73.0419 35.0345C73.0419 34.7258 72.7718 34.494 72.4632 34.494C72.1922 34.494 71.9226 34.7258 71.9226 35.0345C71.9226 35.3432 72.1927 35.6141 72.4632 35.6141ZM72.3859 35.3823H72.2313V34.7253H72.5014C72.5405 34.7253 72.6177 34.7253 72.6559 34.7644C72.7332 34.8026 72.7332 34.8417 72.7332 34.919C72.7332 34.9963 72.695 35.0736 72.6177 35.0736L72.7723 35.3827H72.5786L72.5014 35.1118H72.3859V35.3823V34.9958H72.5405C72.5786 34.9958 72.5786 34.9567 72.5786 34.9186C72.5786 34.8795 72.5786 34.8795 72.5405 34.8413H72.3859V35.3823Z" fill="#E9B040"/>
<path fill-rule="evenodd" clip-rule="evenodd" d="M44.6131 20.1247C44.5358 19.3136 44.3813 18.5413 44.2267 17.7298H30.553C30.7075 16.9188 30.9394 16.1464 31.1708 15.3735H43.5703C43.3011 14.5604 42.9917 13.7611 42.6433 12.9787H32.1368C32.5233 12.1605 32.9487 11.3613 33.4115 10.5838H41.3304C40.8209 9.75883 40.253 8.9714 39.6311 8.22753H35.1113C35.8104 7.37374 36.5722 6.57323 37.3903 5.83264C33.412 2.24032 28.1585 0 22.3645 0C10.0428 0 0 10.0819 0 22.5191C0 34.9186 10.0428 45 22.3645 45C28.1585 45 33.4115 42.7979 37.3903 39.1674C38.1959 38.4397 38.9449 37.6519 39.6311 36.8107H35.1113C34.4931 36.0383 33.9525 35.2659 33.4115 34.4158H41.3304C41.8283 33.652 42.2674 32.8514 42.6438 32.0209H32.1368C31.789 31.2485 31.4417 30.4761 31.1708 29.6642H43.5703C43.8403 28.8918 44.034 28.0812 44.2263 27.2693C44.3808 26.4969 44.5354 25.6864 44.6127 24.8744C44.691 24.0913 44.7298 23.3047 44.7291 22.5177C44.7291 21.7081 44.6904 20.897 44.6131 20.1247Z" fill="#CC2131"/>
<path fill-rule="evenodd" clip-rule="evenodd" d="M71.7681 27.7339C71.7681 27.3093 72.0772 27.0006 72.4632 27.0006C72.8878 27.0006 73.1964 27.3098 73.1964 27.7339C73.1964 28.1203 72.8873 28.4681 72.4632 28.4681C72.0772 28.4681 71.7681 28.1199 71.7681 27.7339ZM72.4632 28.2745C72.7723 28.2745 73.0419 28.0426 73.0419 27.7339C73.0419 27.4252 72.7718 27.1934 72.4632 27.1934C72.1922 27.1934 71.9226 27.4252 71.9226 27.7339C71.9226 28.0426 72.1927 28.2745 72.4632 28.2745ZM72.3859 28.0426H72.2313V27.4248H72.6559C72.7332 27.4639 72.7332 27.5412 72.7332 27.6185C72.7332 27.6566 72.695 27.7339 72.6177 27.773L72.7723 28.0431H72.5786L72.5014 27.8112H72.3859V28.0426V27.6953H72.4632C72.5014 27.6953 72.5405 27.6953 72.5405 27.6562C72.5786 27.6562 72.5786 27.618 72.5786 27.5789C72.5786 27.5789 72.5786 27.5407 72.5405 27.5407C72.5405 27.5016 72.5014 27.5407 72.4632 27.5407H72.3859V28.0426Z" fill="white"/>
<path fill-rule="evenodd" clip-rule="evenodd" d="M29.7804 29.0086C29.0467 29.2014 28.5057 29.3178 27.9652 29.3178C26.8064 29.3178 26.1108 28.5836 26.1108 27.2702C26.1108 27.0002 26.1495 26.7297 26.1881 26.4206L26.3427 25.5327L26.4586 24.7985L27.5015 18.464H29.8191L29.5486 19.8546H31.0165L30.6688 22.1722H29.2008L28.583 25.9573C28.5444 26.151 28.5444 26.2664 28.5444 26.3437C28.5444 26.8461 28.7762 27.0388 29.3554 27.0388C29.6259 27.0388 29.8573 27.0006 30.0891 26.9615L29.7804 29.0086ZM37.2742 28.9314C36.4246 29.1632 35.6522 29.2787 34.8021 29.2787C32.1753 29.2787 30.6688 27.888 30.6688 25.1463C30.6688 21.9399 32.4458 19.6223 34.9175 19.6223C36.8874 19.6223 38.1621 20.9357 38.1621 22.9823C38.1621 23.6783 38.0848 24.3348 37.892 25.2618H33.0636C33.025 25.4163 33.025 25.4936 33.025 25.5709C33.025 26.6524 33.7587 27.1929 35.1494 27.1929C36.0377 27.1929 36.8101 27.0002 37.6602 26.6142L37.2742 28.9314ZM35.8449 23.4079V22.9442C35.8449 22.1718 35.4199 21.7467 34.6861 21.7467C33.9133 21.7467 33.3728 22.3259 33.1409 23.4074L35.8449 23.4079ZM11.2396 29.1241H8.84476L10.2354 20.3565L7.10679 29.1241H5.4461L5.25289 20.3952L3.78495 29.1241H1.42871L3.32125 17.7298H6.83629L6.91358 24.7603L9.26982 17.7298H13.1326L11.2396 29.1241ZM17.0727 24.9917C16.8409 24.9526 16.7636 24.9526 16.609 24.9526C15.2184 24.9526 14.5233 25.4931 14.5233 26.3433C14.5233 26.9229 14.8711 27.3093 15.4116 27.3093C16.5704 27.3093 17.0336 26.3433 17.0727 24.9917ZM19.0039 29.1241H16.9182L16.9568 28.159C16.4158 28.8923 15.6821 29.2787 14.4074 29.2787C13.2486 29.2787 12.2443 28.2363 12.2443 26.7297C12.2443 26.3051 12.3216 25.9191 12.4375 25.5327C12.8235 24.103 14.2528 23.2151 16.4545 23.176C16.725 23.176 17.1496 23.176 17.536 23.2151C17.6128 22.906 17.6128 22.7896 17.6128 22.5968C17.6128 21.9786 17.1109 21.7854 15.9908 21.7854C15.2957 21.7854 14.5228 21.9013 13.9823 22.0945L13.6345 22.1718L13.48 22.21L13.8277 20.1242C14.9479 19.7764 15.7589 19.6223 16.6477 19.6223C18.7334 19.6223 19.8536 20.5879 19.8536 22.3645C19.8536 22.8282 19.8922 23.176 19.7377 24.1802L19.1971 27.5021L19.1198 28.0817L19.0812 28.5454L19.0426 28.8545L19.0039 29.1241ZM48.9395 19.9315C49.6346 19.9315 50.2529 20.1247 51.1026 20.5493L51.5272 18.0771C51.2953 17.9612 51.218 17.9612 50.9093 17.8452L49.9442 17.5748C49.6351 17.4975 49.2491 17.4588 48.8236 17.4588C47.6257 17.4588 46.9306 17.4975 46.1973 17.9225C45.8109 18.193 45.3086 18.5408 44.7676 19.1586L44.4584 19.0813L41.9863 20.8193L42.1026 19.8537H39.5527L38.0471 29.1237H40.481L41.3689 24.1416C41.3689 24.1416 41.7171 23.4456 41.8712 23.2146C42.3349 22.635 42.7209 22.635 43.2228 22.635H43.4165C43.3354 23.2237 43.2965 23.8174 43.3001 24.4116C43.3001 27.4243 44.9994 29.3173 47.6261 29.3173C48.2831 29.3173 48.8631 29.24 49.751 29.0082L50.1765 26.3819C49.4041 26.8065 48.7086 26.9997 48.1289 26.9997C46.7001 26.9997 45.8495 25.9182 45.8495 24.2189C45.8486 21.7081 47.1238 19.9315 48.9395 19.9315ZM69.4492 17.7298L68.9092 20.9743C68.3295 20.086 67.634 19.661 66.707 19.661C65.4318 19.661 64.2349 20.3947 63.5007 21.7854V21.7472L61.9559 20.8198L62.1105 19.8542H59.5224L58.0544 29.1241H60.4493L61.2608 24.142C61.2608 24.142 61.8786 23.446 62.0332 23.2151C62.4196 22.7514 62.8056 22.6737 63.1147 22.6355C62.8447 23.4079 62.6901 24.3348 62.6901 25.3781C62.6901 27.6957 63.8871 29.2405 65.6637 29.2405C66.5525 29.2405 67.2476 28.9314 67.904 28.1972L67.7885 29.1241H70.068L71.9219 17.7298H69.4492ZM66.4756 26.9229C65.6642 26.9229 65.2395 26.3051 65.2395 25.1072C65.2395 23.2915 66.0119 21.9786 67.1316 21.9786C67.9813 21.9786 68.4068 22.6355 68.4068 23.7943C68.4068 25.6482 67.6344 26.9229 66.4756 26.9229ZM55.3131 24.9917C55.0813 24.9526 55.004 24.9526 54.8494 24.9526C53.4579 24.9526 52.7628 25.4931 52.7628 26.3433C52.7628 26.9229 53.111 27.3093 53.6515 27.3093C54.8103 27.3093 55.274 26.3433 55.3131 24.9917ZM57.2443 29.1241H55.1195L55.1968 28.159C54.6562 28.8923 53.9216 29.2787 52.6478 29.2787C51.4499 29.2787 50.4075 28.2744 50.4075 26.7297C50.4075 24.5285 52.0677 23.1765 54.6944 23.1765C54.9654 23.1765 55.3895 23.1765 55.7378 23.2156C55.815 22.9064 55.8541 22.79 55.8541 22.5973C55.8541 21.979 55.3518 21.7858 54.193 21.7858C53.5361 21.7858 52.7251 21.9017 52.1845 22.0949L51.8754 22.1722L51.7208 22.2104L52.0681 20.1247C53.1888 19.7769 54.0002 19.6228 54.8881 19.6228C56.9738 19.6228 58.0554 20.5884 58.0554 22.365C58.0554 22.8287 58.1326 23.1765 57.9399 24.1807L57.4375 27.5025L57.3603 28.0821L57.283 28.5459L57.2448 28.855V29.1241H57.2443ZM24.0637 21.824C24.5274 21.824 25.1839 21.8626 25.8794 21.9786L26.2272 19.8155C25.5317 19.7382 24.6047 19.6223 24.0637 19.6223C21.3602 19.6223 20.4719 21.0903 20.4719 22.7896C20.4719 23.9102 20.9737 24.7208 22.2871 25.3386C23.2527 25.8023 23.4073 25.8791 23.4073 26.3046C23.4073 26.8833 22.9054 27.2316 21.978 27.2316C21.2442 27.2316 20.5487 27.1152 19.7763 26.8452L19.5058 28.9691L19.544 29.0082L20.0077 29.0855C20.1623 29.1237 20.3555 29.1628 20.626 29.2009C21.2051 29.24 21.7075 29.2782 22.0166 29.2782C24.7206 29.2782 25.8408 28.2358 25.8408 26.1882C25.8408 24.914 25.2225 24.1416 24.0251 23.6011C22.9822 23.1369 22.8663 23.0605 22.8663 22.635C22.8663 22.2104 23.33 21.824 24.0637 21.824Z" fill="#1B3771"/>
<path fill-rule="evenodd" clip-rule="evenodd" d="M52.1842 17.3434L51.7587 19.8155C50.9091 19.3905 50.2908 19.1977 49.5957 19.1977C47.78 19.1977 46.5057 20.9743 46.5057 23.4851C46.5057 25.2236 47.3554 26.266 48.7851 26.266C49.3638 26.266 50.0594 26.0732 50.8318 25.6873L50.4072 28.2745C49.5184 28.5063 48.9392 28.6227 48.2823 28.6227C45.6561 28.6227 44.0335 26.7297 44.0335 23.6788C44.0335 19.6228 46.2739 16.7642 49.4798 16.7642C49.9044 16.7642 50.2903 16.8028 50.5995 16.8801L51.5655 17.112C51.8751 17.2279 51.9524 17.2665 52.1842 17.3434ZM44.3813 19.0431H44.1495C43.3389 19.0431 42.8752 19.4296 42.141 20.5493L42.3729 19.12H40.1707L38.6651 28.3904H41.099C41.9869 22.7123 42.2188 21.7467 43.3776 21.7467H43.5321C43.764 20.6266 44.0726 19.8151 44.4591 19.0813L44.3813 19.0431ZM30.3989 28.2745C29.7424 28.5063 29.2015 28.5836 28.6609 28.5836C27.4248 28.5836 26.7293 27.8885 26.7293 26.5369C26.7293 26.3051 26.7679 25.9964 26.8066 25.7255L26.9611 24.7985L27.0771 24.0652L28.1199 17.7298H30.5148L30.2443 19.1204H31.4804L31.1713 21.3994H29.9352L29.2787 25.2622C29.2401 25.4168 29.2401 25.5332 29.2401 25.6486C29.2401 26.1123 29.4719 26.3055 30.0511 26.3055C30.3216 26.3055 30.553 26.3055 30.7076 26.2283L30.3989 28.2745ZM21.0899 22.0558C21.0899 23.2151 21.6304 24.0257 22.9051 24.6439C23.9093 25.1076 24.0639 25.2618 24.0639 25.6482C24.0639 26.2278 23.6388 26.4978 22.6733 26.4978C21.9395 26.4978 21.2826 26.3824 20.5102 26.1505L20.1624 28.2745L20.2784 28.3136L20.7034 28.3908C20.8575 28.429 21.0512 28.4681 21.3599 28.4681C21.9004 28.5454 22.3641 28.5454 22.6733 28.5454C25.2223 28.5454 26.4202 27.5794 26.4202 25.4554C26.4202 24.1802 25.9183 23.446 24.7208 22.8673C23.6779 22.4036 23.562 22.2882 23.562 21.8631C23.562 21.3612 23.9871 21.1294 24.7595 21.1294C25.2232 21.1294 25.8796 21.168 26.4979 21.2453L26.8452 19.1209C26.2274 19.005 25.2618 18.9277 24.7208 18.9277C22.0168 18.9272 21.0512 20.3565 21.0899 22.0558ZM70.6864 28.3908H68.407L68.5234 27.5021C67.8665 28.1972 67.1709 28.5063 66.2821 28.5063C64.5055 28.5063 63.3467 27.0006 63.3467 24.683C63.3467 21.5926 65.1624 18.9659 67.2864 18.9659C68.2524 18.9659 68.9475 19.3909 69.6049 20.2406L70.1454 16.996H72.5403L70.6864 28.3908ZM67.1323 26.2278C68.2529 26.2278 69.0253 24.9144 69.0253 23.0987C69.0253 21.9013 68.5997 21.283 67.7501 21.283C66.6686 21.283 65.858 22.5577 65.858 24.3734C65.858 25.61 66.2826 26.2278 67.1323 26.2278ZM37.8149 28.1972C36.9648 28.4681 36.1924 28.5836 35.3041 28.5836C32.6001 28.5836 31.2095 27.1548 31.2095 24.4121C31.2095 21.2448 32.9865 18.8886 35.4201 18.8886C37.4285 18.8886 38.7028 20.2019 38.7028 22.2491C38.7028 22.9446 38.6255 23.6015 38.3937 24.5667H33.6048C33.5662 24.683 33.5662 24.7603 33.5662 24.8376C33.5662 25.9191 34.3004 26.4597 35.6906 26.4597C36.5789 26.4597 37.3512 26.3051 38.2014 25.88L37.8149 28.1972ZM36.4629 22.6737V22.2104C36.4629 21.438 36.0379 21.013 35.3041 21.013C34.5318 21.013 33.9908 21.5926 33.7589 22.6737H36.4629ZM11.8581 28.3908H9.46321L10.8539 19.6223L7.72524 28.3908H6.06409L5.87088 19.6996L4.4034 28.3908H2.16309L4.05563 16.996H7.53203L7.64795 24.0648L9.9651 16.996H13.7506L11.8581 28.3908ZM17.8453 24.2575C17.6135 24.2575 17.4975 24.2193 17.3043 24.2193C15.9523 24.2193 15.2572 24.7212 15.2572 25.6482C15.2572 26.2278 15.5663 26.5751 16.1069 26.5751C17.1111 26.5751 17.8067 25.6482 17.8453 24.2575ZM19.6219 28.3908H17.613L17.6516 27.4248C17.0334 28.1972 16.2223 28.5454 15.1022 28.5454C13.7888 28.5454 12.9005 27.5412 12.9005 26.0346C12.9005 23.7561 14.4453 22.4427 17.1493 22.4427C17.4198 22.4427 17.7676 22.4814 18.1535 22.5195C18.2308 22.2109 18.2308 22.0949 18.2308 21.9404C18.2308 21.3226 17.8058 21.0907 16.6856 21.0907C15.9905 21.0907 15.2177 21.168 14.6771 21.3226L14.3294 21.4385L14.0975 21.4771L14.4453 19.3914C15.6427 19.0436 16.4537 18.9277 17.3425 18.9277C19.4283 18.9277 20.5484 19.8546 20.5484 21.6312C20.5484 22.0949 20.5098 22.4427 20.3552 23.4856L19.8142 26.7692L19.7369 27.348L19.6983 27.8117L19.6597 28.1599L19.6219 28.3908ZM56.0857 24.2575C55.8148 24.2575 55.6993 24.2193 55.5452 24.2193C54.1545 24.2193 53.4585 24.7212 53.4585 25.6482C53.4585 26.2278 53.8067 26.5751 54.3473 26.5751C55.3133 26.5751 56.0466 25.6482 56.0857 24.2575ZM57.8623 28.3908H55.8539L55.892 27.4248C55.2742 28.1972 54.4632 28.5454 53.343 28.5454C52.0297 28.5454 51.1409 27.5412 51.1409 26.0346C51.1409 23.7561 52.6857 22.4427 55.3897 22.4427C55.6607 22.4427 56.0084 22.4814 56.3558 22.5195C56.433 22.2109 56.4721 22.0949 56.4721 21.9404C56.4721 21.3226 56.0466 21.0907 54.9274 21.0907C54.2314 21.0907 53.4208 21.168 52.8798 21.3226L52.5707 21.4385L52.3388 21.4771L52.6861 19.3914C53.884 19.0436 54.6946 18.9277 55.5834 18.9277C57.6691 18.9277 58.7506 19.8546 58.7506 21.6312C58.7506 22.0949 58.7506 22.4427 58.5579 23.4856L58.0555 26.7692L57.9782 27.348L57.901 27.8117L57.8628 28.1599L57.8623 28.3908ZM64.3514 19.0431H64.1196C63.309 19.0431 62.8453 19.4296 62.1111 20.5493L62.343 19.12H60.1408L58.6729 28.3904H61.0678C61.9565 22.7123 62.1884 21.7467 63.3472 21.7467H63.5018C63.7336 20.6266 64.0423 19.8151 64.4287 19.0813L64.3514 19.0431Z" fill="white"/>
</svg>
