<svg width="17" height="19" viewBox="0 0 17 19" fill="none" xmlns="http://www.w3.org/2000/svg">
<g clip-path="url(#clip0_3855_28881)">
<path d="M16.8958 8.95317C16.4603 3.11683 12.9126 2.12695 8.59668 2.12695C4.27288 2.12695 0.725143 3.05348 0.289595 8.95317H0.25V10.2123C0.25 14.6786 3.98779 18.2977 8.59668 18.2977C13.2056 18.2977 16.9434 14.6786 16.9434 10.2123V8.95317H16.8958Z" fill="#AA5900"/>
<path d="M8.59668 17.9277C4.01947 17.9277 0.305433 14.3008 0.25 9.81067C0.25 9.9057 0.25 10.0007 0.25 10.0958C0.25 14.6255 3.98779 18.2999 8.59668 18.2999C13.2056 18.2999 16.9434 14.6255 16.9434 10.0958C16.9434 10.0007 16.9434 9.9057 16.9434 9.81859C16.8879 14.3008 13.1739 17.9277 8.59668 17.9277Z" fill="#843614"/>
<path d="M16.9434 9.08109C16.9434 13.6108 13.2056 17.2852 8.59668 17.2852C3.98779 17.2852 0.25 13.6108 0.25 9.08109C0.25 4.55139 3.98779 0.876953 8.59668 0.876953C13.2056 0.876953 16.9434 4.55139 16.9434 9.08109Z" fill="#FEB826"/>
<path opacity="0.49" d="M8.59668 0.876953C3.98779 0.876953 0.25 4.55139 0.25 9.08109C0.25 9.18404 0.257919 9.27907 0.257919 9.38201C2.38814 11.2588 5.31027 12.415 8.54124 12.415C11.8277 12.415 14.8052 11.2113 16.9354 9.27907C16.9354 9.21571 16.9434 9.14444 16.9434 9.08109C16.9434 4.55139 13.2056 0.876953 8.59668 0.876953Z" fill="#FFF917"/>
<path opacity="0.49" d="M15.2573 4.11584C13.729 2.15192 11.3216 0.876953 8.61326 0.876953C5.88119 0.876953 3.45796 2.16776 1.9375 4.16336C3.82223 5.31162 6.10292 5.97682 8.56574 5.97682C11.0444 5.97682 13.3568 5.28786 15.2573 4.11584Z" fill="#FFF917"/>
<path opacity="0.49" d="M8.59668 1.34418C13.1264 1.34418 16.8087 4.89191 16.9354 9.31866C16.9354 9.23947 16.9434 9.16028 16.9434 9.08109C16.9434 4.55139 13.2056 0.876953 8.59668 0.876953C3.98779 0.876953 0.25 4.55139 0.25 9.08109C0.25 9.16028 0.25 9.23947 0.257919 9.31866C0.384624 4.89191 4.06698 1.34418 8.59668 1.34418Z" fill="#FFF917"/>
<path d="M8.59668 16.9379C4.04322 16.9379 0.345029 13.3585 0.257919 8.90796C0.257919 8.96339 0.25 9.02674 0.25 9.08218C0.25 13.6119 3.98779 17.2863 8.59668 17.2863C13.2056 17.2863 16.9434 13.6119 16.9434 9.08218C16.9434 9.02674 16.9434 8.96339 16.9354 8.90796C16.8404 13.3585 13.1422 16.9379 8.59668 16.9379Z" fill="#F7E494"/>
<path d="M15.404 9.08418C15.404 12.7824 12.3551 15.7758 8.59359 15.7758C4.83204 15.7758 1.7832 12.7824 1.7832 9.08418C1.7832 5.38598 4.83204 2.39258 8.59359 2.39258C12.3551 2.39258 15.404 5.38598 15.404 9.08418Z" fill="url(#paint0_linear_3855_28881)"/>
<path d="M8.59359 15.4095C4.89539 15.4095 1.89407 12.519 1.79112 8.90796C1.79112 8.97131 1.7832 9.03466 1.7832 9.09802C1.7832 12.7962 4.83204 15.7975 8.59359 15.7975C12.3551 15.7975 15.404 12.7962 15.404 9.09802C15.404 9.03466 15.404 8.97131 15.396 8.90796C15.2931 12.5111 12.2839 15.4095 8.59359 15.4095Z" fill="#F7E494"/>
<path d="M8.59359 3.23221C12.2047 3.23221 15.1664 6.00388 15.3881 9.49618C15.396 9.35364 15.404 9.21109 15.404 9.06855C15.404 5.37035 12.3551 2.37695 8.59359 2.37695C4.83204 2.37695 1.7832 5.37827 1.7832 9.06855C1.7832 9.21109 1.79112 9.35364 1.79904 9.49618C2.02077 5.99596 4.97458 3.23221 8.59359 3.23221Z" fill="#C45B28"/>
<path d="M2.27277 4.07056L1.94809 2.45508L2.37572 3.97554L4.63264 3.37369L2.44699 4.07848L2.92213 6.24038L2.28861 4.20519L0 4.59322L2.27277 4.07056Z" fill="white"/>
<path d="M2.33193 4.00227L2.92586 3.10742L2.42696 4.01019L3.74944 4.77834L2.41112 4.08938L1.62713 5.31684L2.27649 4.07355L1.0332 3.19453L2.33193 4.00227Z" fill="white"/>
<g style="mix-blend-mode:multiply">
<path d="M2.90408 3.67265C3.14957 3.94982 3.11789 4.36953 2.84073 4.61502C2.56356 4.86051 2.14385 4.82883 1.89836 4.55166C1.65287 4.2745 1.68454 3.85479 1.96171 3.6093C2.23888 3.36381 2.65859 3.39548 2.90408 3.67265Z" fill="url(#paint1_radial_3855_28881)"/>
</g>
<path d="M14.4916 14.5713L16.0833 14.1595L14.5945 14.6742L15.2993 16.8916L14.4916 14.7455L12.3613 15.3315L14.3569 14.5871L13.858 12.3223L14.4916 14.5713Z" fill="white"/>
<path d="M14.563 14.6412L15.4896 15.1876L14.563 14.7283L13.8582 16.0903L14.4759 14.7204L13.2168 13.9997L14.4918 14.5857L15.3074 13.2949L14.563 14.6412Z" fill="white"/>
<g style="mix-blend-mode:multiply">
<path d="M14.9176 15.1834C14.6563 15.4368 14.2286 15.4368 13.9752 15.1676C13.7218 14.9063 13.7218 14.4786 13.9911 14.2252C14.2524 13.9718 14.68 13.9718 14.9334 14.2411C15.1868 14.5024 15.1789 14.9221 14.9176 15.1834Z" fill="url(#paint2_radial_3855_28881)"/>
</g>
<path d="M13.9206 7.38168C14.2612 6.57393 12.226 6.36804 10.9668 6.36804C10.6738 5.82162 9.81857 4.30117 9.2484 3.88146C8.61488 3.41423 7.48245 5.24353 6.82517 6.36804C5.60564 6.34428 3.22992 6.50266 3.5942 7.38168C3.89512 8.10231 4.93252 9.19514 5.55812 9.81283C5.17801 10.8977 4.52865 13.4556 5.51853 13.3606C6.42922 13.2734 8.13181 12.3628 8.76534 12.0143C9.39886 12.3707 11.1015 13.2734 12.0121 13.3606C13.002 13.4556 12.3527 10.8977 11.9726 9.81283C12.5823 9.19514 13.6197 8.11023 13.9206 7.38168Z" fill="#EEC700"/>
<path d="M14.1101 6.86691C13.6983 6.24922 12.0749 6.13044 11.1167 6.1146C10.7049 5.36229 9.95258 4.08732 9.39825 3.67553C9.28738 3.59634 9.16068 3.54883 9.01813 3.54883C8.28958 3.54883 7.45808 4.77628 6.67409 6.10668C6.64242 6.10668 6.60282 6.10668 6.57115 6.10668C5.77132 6.10668 3.85491 6.17795 3.40353 6.85899C3.27682 7.04113 3.26098 7.25494 3.35601 7.47668C3.64902 8.17355 4.54387 9.16343 5.25658 9.87615C5.03485 10.5493 4.41716 12.6161 4.9319 13.3447C5.05861 13.5268 5.24075 13.6139 5.46248 13.6139C5.48624 13.6139 5.50999 13.6139 5.54167 13.6139C6.4286 13.5268 7.9253 12.7666 8.76472 12.2994C9.60414 12.7587 11.1008 13.5268 11.9878 13.6139C12.0115 13.6139 12.0432 13.6139 12.067 13.6139C12.2887 13.6139 12.4708 13.5189 12.5975 13.3447C13.1123 12.6161 12.4946 10.5493 12.2729 9.87615C12.9856 9.16343 13.8883 8.17355 14.1734 7.47668C14.2447 7.26286 14.2289 7.04905 14.1101 6.86691ZM5.78716 9.89991L5.84259 9.74944L5.72381 9.63066C5.1378 9.05257 4.10832 7.96766 3.82324 7.28662C3.79156 7.21535 3.8074 7.17575 3.82324 7.152C3.99745 6.89067 4.99526 6.62934 6.56323 6.62934C6.65034 6.62934 6.72953 6.62934 6.80872 6.62934H6.95918L7.03837 6.50263C8.21831 4.49119 8.76472 4.06357 9.01813 4.06357C9.04189 4.06357 9.06565 4.07149 9.0894 4.08732C9.6279 4.48328 10.4832 6.02749 10.7366 6.4868L10.8078 6.62142H10.9583C12.5184 6.62142 13.5003 6.88275 13.6745 7.14408C13.6904 7.16783 13.7062 7.20743 13.6745 7.2787C13.3894 7.96766 12.36 9.04465 11.774 9.62274L11.6552 9.74152L11.7106 9.89199C12.1382 11.1115 12.4233 12.6716 12.1541 13.0438C12.1224 13.0834 12.0986 13.0992 12.0432 13.0992C12.0353 13.0992 12.0274 13.0992 12.0195 13.0992C11.1404 13.0121 9.39033 12.0697 8.87559 11.7846L8.74888 11.7134L8.62218 11.7846C8.10744 12.0697 6.35733 13.02 5.47832 13.0992C5.4704 13.0992 5.46248 13.0992 5.45456 13.0992C5.40705 13.0992 5.37537 13.0834 5.34369 13.0438C5.07445 12.6795 5.35953 11.1194 5.78716 9.89991Z" fill="#AA5900"/>
<path d="M13.9187 7.38168C14.2592 6.57393 12.224 6.36804 10.9649 6.36804C10.6719 5.82162 9.81662 4.30117 9.24645 3.88146C8.61292 3.41423 7.4805 5.24353 6.82322 6.36804C5.60368 6.34428 3.22797 6.50266 3.59224 7.38168C3.89317 8.10231 4.93056 9.19514 5.55617 9.81283C5.17605 10.8977 4.52669 13.4556 5.51657 13.3606C6.42726 13.2734 8.12986 12.3628 8.76338 12.0143C9.39691 12.3707 11.0995 13.2734 12.0102 13.3606C13.0001 13.4556 12.3507 10.8977 11.9706 9.81283C12.5804 9.19514 13.6178 8.11023 13.9187 7.38168Z" fill="url(#paint3_linear_3855_28881)"/>
<path d="M13.0902 7.57584C13.3674 6.8948 11.6648 6.72851 10.6036 6.72851C10.3581 6.2692 9.63748 4.99423 9.16234 4.6458C8.63176 4.25776 7.68148 5.78614 7.12714 6.73642C6.10558 6.71267 4.10998 6.85521 4.41883 7.58376C4.67224 8.19353 5.53541 9.10422 6.06599 9.61896C5.74923 10.5296 5.20281 12.6757 6.03431 12.5965C6.80246 12.5253 8.22789 11.7571 8.75847 11.4641C9.28904 11.7571 10.7145 12.5253 11.4826 12.5965C12.3141 12.6757 11.7677 10.5296 11.4509 9.61896C11.9657 9.0963 12.8368 8.17769 13.0902 7.57584Z" fill="url(#paint4_linear_3855_28881)"/>
<g opacity="0.33">
<path d="M11.959 9.26733C11.9986 9.38612 12.0461 9.52866 12.0936 9.67912C12.7271 9.0456 13.6378 8.05572 13.9229 7.3826C13.9942 7.2163 13.9625 7.08168 13.8596 6.96289C13.5032 7.68352 12.5529 8.68924 11.959 9.26733Z" fill="#EE711F"/>
<path d="M5.54562 9.26733C4.95961 8.68132 4.00141 7.68352 3.64505 6.96289C3.55002 7.08168 3.51835 7.2163 3.58962 7.3826C3.86679 8.05572 4.7854 9.0456 5.411 9.67912C5.45852 9.52866 5.50603 9.38612 5.54562 9.26733Z" fill="#EE711F"/>
<path d="M11.996 12.813C11.0853 12.7259 9.38272 11.8152 8.74919 11.4668C8.11567 11.8232 6.41307 12.7259 5.50238 12.813C5.1777 12.8447 5.03516 12.5913 4.99556 12.2033C4.94013 12.8843 5.051 13.407 5.50238 13.3594C6.41307 13.2723 8.11567 12.3616 8.74919 12.0132C9.38272 12.3696 11.0853 13.2723 11.996 13.3594C12.4553 13.399 12.5583 12.8843 12.5028 12.2033C12.4711 12.5913 12.3207 12.8447 11.996 12.813Z" fill="#EE711F"/>
</g>
<path d="M6.6352 12.2763C6.69063 12.2525 8.06063 11.6744 8.43282 11.4289C8.80502 11.1834 8.81294 11.231 9.88201 11.8566C10.9511 12.4822 11.4975 12.5772 11.6876 12.4109C11.8776 12.2525 11.7509 12.6722 11.2441 12.5614C10.7373 12.4505 9.02675 11.6823 8.89213 11.5794C8.7575 11.4685 7.05491 12.5297 6.23924 12.5693C5.41566 12.601 6.01751 12.5218 6.6352 12.2763Z" fill="white"/>
<path opacity="0.49" d="M10.6036 6.73241C10.3581 6.27311 9.63748 4.99814 9.16234 4.6497C8.63176 4.26167 7.68148 5.79004 7.12714 6.74033C6.10558 6.71657 4.10998 6.85912 4.41883 7.58767C4.67224 8.19744 5.53541 9.10813 6.06599 9.62286C5.9868 9.85252 5.89177 10.1614 5.80466 10.494C6.7787 10.6365 8.12494 10.2643 9.1069 9.90795C10.762 9.29818 11.3163 9.16356 13.0427 7.69062C13.0585 7.65894 13.0743 7.61935 13.0902 7.58767C13.3674 6.89871 11.6648 6.73241 10.6036 6.73241Z" fill="white"/>
<path d="M5.75105 6.78402C5.21256 6.87905 4.53944 7.07703 4.484 7.30668C4.42857 7.53633 5.84608 7.29876 6.09157 7.05327C6.32914 6.80778 6.28955 6.68107 5.75105 6.78402Z" fill="white"/>
<path d="M8.96789 4.58016C8.71448 4.57224 8.08887 5.16617 7.62957 5.90264C7.17818 6.63911 8.57986 5.11865 8.96789 5.15033C9.36384 5.182 9.45887 4.59599 8.96789 4.58016Z" fill="white"/>
<path d="M7.17259 6.89112C7.17259 6.99407 7.03004 7.07326 6.85582 7.07326C6.68161 7.07326 6.53906 6.99407 6.53906 6.89112C6.53906 6.78818 6.68161 6.70898 6.85582 6.70898C7.03004 6.7169 7.17259 6.79609 7.17259 6.89112Z" fill="white"/>
<path d="M12.5104 6.98887C11.7898 6.79881 10.8395 6.61667 10.6653 6.79089C10.4832 6.96511 12.2729 7.16309 12.8114 7.40858C13.1994 7.59072 13.2311 7.17893 12.5104 6.98887Z" fill="white"/>
<path d="M9.29943 3.9779C9.29943 3.9779 9.244 4.62726 9.10938 4.55599C8.94308 4.46888 8.80053 4.58767 8.80053 4.58767L8.67383 3.9779C8.67383 3.9779 9.02227 3.6453 9.29943 3.9779Z" fill="white"/>
<path d="M3.7896 6.89258C3.7896 6.89258 4.10636 6.96385 4.2885 7.09055C4.47064 7.21726 4.47064 7.21726 4.47064 7.21726C4.47064 7.21726 4.35977 7.32021 4.35977 7.45483C4.35977 7.58945 4.38353 7.60529 4.38353 7.60529C4.38353 7.60529 3.6233 7.54194 3.55203 7.28853C3.4966 7.04304 3.71041 6.92425 3.7896 6.89258Z" fill="white"/>
<path d="M13.6695 6.83899C13.6695 6.83899 13.4636 6.91818 13.3131 7.02113C13.1626 7.12408 13.123 7.21119 13.123 7.21119C13.123 7.21119 13.1547 7.32997 13.1547 7.36957C13.1547 7.40916 13.1547 7.50419 13.1547 7.50419C13.1547 7.50419 13.6457 7.44876 13.7962 7.36957C13.9466 7.29038 13.9387 7.06864 13.8991 7.01321C13.8595 6.96569 13.717 6.82315 13.6695 6.83899Z" fill="#E3A22C"/>
<path d="M5.83768 12.5901C5.83768 12.5901 5.62386 13.2791 5.56843 13.3266C5.50508 13.3741 5.25167 13.4058 5.15664 13.2395C5.06161 13.0732 5.01409 12.9544 5.06161 12.8515C5.10912 12.7485 5.66346 12.4238 5.66346 12.4238C5.66346 12.4238 5.73473 12.5901 5.83768 12.5901Z" fill="#E3A22C"/>
<path d="M11.6328 12.5901C11.6328 12.5901 11.8466 13.2791 11.9021 13.3266C11.9654 13.3741 12.2188 13.4058 12.3139 13.2395C12.4089 13.0732 12.4564 12.9544 12.4089 12.8515C12.3614 12.7485 11.807 12.4238 11.807 12.4238C11.807 12.4238 11.7358 12.5901 11.6328 12.5901Z" fill="#E3A22C"/>
<path opacity="0.5" d="M8.80856 11.5723V12.0157C8.80856 12.0157 6.26655 13.2986 5.94187 13.3541C5.61719 13.4174 5.61719 13.4174 5.61719 13.4174L5.94187 12.7284C5.94187 12.7364 8.52348 11.8178 8.80856 11.5723Z" fill="#EE711F"/>
<path opacity="0.7" d="M7.13111 6.73231L6.82227 6.37595C6.82227 6.37595 7.63001 4.86341 8.22394 4.33283C8.81787 3.80226 9.12671 3.67555 9.11879 4.11902C9.11087 4.55457 8.98417 4.58624 8.98417 4.58624C8.98417 4.58624 8.31897 4.63376 7.13111 6.73231Z" fill="white"/>
<path d="M4.52017 7.13218L4.25885 5.87305L4.60728 7.0609L6.37323 6.59368L4.66272 7.14801L5.03491 8.84269L4.52809 7.24304L2.73047 7.55189L4.52017 7.13218Z" fill="white"/>
<path d="M4.57039 7.09357L5.04553 6.38086L4.64958 7.10149L5.68697 7.70334L4.63374 7.16485L4.01605 8.12305L4.53079 7.14901L3.54883 6.45213L4.57039 7.09357Z" fill="white"/>
<path d="M5.01774 6.83068C5.2078 7.05242 5.18404 7.3771 4.97023 7.57507C4.74849 7.76513 4.42381 7.74137 4.22584 7.52756C4.02786 7.31375 4.05954 6.98114 4.27335 6.78317C4.49508 6.59311 4.81977 6.61687 5.01774 6.83068Z" fill="url(#paint5_radial_3855_28881)"/>
</g>
<defs>
<linearGradient id="paint0_linear_3855_28881" x1="8.59131" y1="15.2386" x2="8.59131" y2="0.127943" gradientUnits="userSpaceOnUse">
<stop stop-color="#EBB43A"/>
<stop offset="1" stop-color="#C26B18"/>
</linearGradient>
<radialGradient id="paint1_radial_3855_28881" cx="0" cy="0" r="1" gradientUnits="userSpaceOnUse" gradientTransform="translate(2.3991 4.11296) rotate(-41.2781) scale(0.668496)">
<stop stop-color="white"/>
<stop offset="0.6364" stop-color="white"/>
<stop offset="1" stop-color="white"/>
</radialGradient>
<radialGradient id="paint2_radial_3855_28881" cx="0" cy="0" r="1" gradientUnits="userSpaceOnUse" gradientTransform="translate(14.4511 14.7029) rotate(45.8914) scale(0.668506)">
<stop stop-color="white"/>
<stop offset="0.6364" stop-color="white"/>
<stop offset="1" stop-color="white"/>
</radialGradient>
<linearGradient id="paint3_linear_3855_28881" x1="3.54574" y1="8.58874" x2="13.9546" y2="8.58874" gradientUnits="userSpaceOnUse">
<stop offset="0.2909" stop-color="#E07828"/>
<stop offset="1" stop-color="#EBB43A"/>
</linearGradient>
<linearGradient id="paint4_linear_3855_28881" x1="4.38733" y1="8.5851" x2="13.1189" y2="8.5851" gradientUnits="userSpaceOnUse">
<stop stop-color="#F7ED43"/>
<stop offset="0.5818" stop-color="#F7C843"/>
<stop offset="0.6346" stop-color="#F1BD3C"/>
<stop offset="0.7483" stop-color="#E8AA31"/>
<stop offset="0.8675" stop-color="#E2A02A"/>
<stop offset="1" stop-color="#E09C28"/>
</linearGradient>
<radialGradient id="paint5_radial_3855_28881" cx="0" cy="0" r="1" gradientUnits="userSpaceOnUse" gradientTransform="translate(4.62008 7.18018) rotate(-41.2781) scale(0.525283)">
<stop stop-color="white"/>
<stop offset="0.6364" stop-color="white"/>
<stop offset="1" stop-color="white"/>
</radialGradient>
<clipPath id="clip0_3855_28881">
<rect width="16.9468" height="18" fill="white" transform="translate(0 0.876953)"/>
</clipPath>
</defs>
</svg>
