<?xml version="1.0" encoding="UTF-8"?>
<svg id="Layer_1" data-name="Layer 1" xmlns="http://www.w3.org/2000/svg" viewBox="0 0 100 100">
  <defs>
    <style>
      .cls-1 {
        fill: #f5f5f5;
      }

      .cls-2 {
        fill: #00e653;
      }
    </style>
  </defs>
  <path class="cls-1" d="m71.58,28.42c3.9-2.64,8.23-1.11,10.06,1.97,1.69,2.85,1.35,7.5-3.25,9.84.16.28.3.56.46.84,2.61,4.52,5.24,9.02,7.83,13.56,2.15,3.76.11,8.14-4.1,8.78-1.9.29-3.52-.38-4.94-1.67-.4-.37-.99-.66-1.53-.73-8.51-1.05-16.82.11-25,2.41-2.33.66-4.62,1.5-6.91,2.28-.45.15-.73.23-1.03-.28-3.73-6.5-7.48-12.99-11.22-19.49-.01-.02,0-.06-.02-.18,1.04-.9,2.14-1.81,3.21-2.76,6.45-5.76,12-12.26,15.98-19.99.3-.59.57-1.19.86-1.78.53-1.1.87-2.12.55-3.47-.66-2.77.97-5.43,3.57-6.41,2.62-.99,5.54,0,7.01,2.51,2.67,4.55,5.29,9.13,7.93,13.7.16.28.34.55.54.89Z"/>
  <path class="cls-2" d="m28.34,46.9c4.17,7.22,8.25,14.3,12.37,21.42-.24.16-.43.3-.63.42-3.06,1.77-6.1,3.59-9.19,5.3-7.33,4.04-16.38,0-18.11-8.17-1.08-5.1.51-9.5,4.76-12.51,3.38-2.4,7.13-4.28,10.8-6.45Z"/>
  <path class="cls-2" d="m35.1,75.79c2.61-1.51,5.16-2.98,7.78-4.49,1.37,1.78,2.71,3.51,4.04,5.24,1.41,1.83,2.82,3.65,4.22,5.49,1.19,1.55,1.09,2.7-.33,4-.86.79-1.71,1.59-2.6,2.35-1.14.97-2.61.92-3.51-.23-3.2-4.07-6.36-8.19-9.59-12.36Z"/>
</svg>