<svg width="18" height="18" viewBox="0 0 18 18" fill="none" xmlns="http://www.w3.org/2000/svg">
<path d="M16.5923 17.6957C16.2229 17.534 15.9781 17.2245 15.7056 16.9519C14.3341 15.5843 12.9672 14.2166 11.6049 12.8444C11.5172 12.7566 11.471 12.752 11.3694 12.8259C7.33337 15.8014 1.62562 13.8424 0.263337 9.01878C-0.743369 5.44726 1.23772 1.64012 4.74271 0.411109C8.66333 -0.961127 12.8702 1.21505 13.9739 5.22549C14.5789 7.42014 14.1817 9.46233 12.861 11.3197C12.764 11.4583 12.7733 11.5184 12.8887 11.6385C14.3249 13.0662 15.7564 14.5031 17.1926 15.9354C17.4004 16.1433 17.6036 16.342 17.7006 16.6285C17.7006 16.7671 17.7006 16.9057 17.7006 17.0443C17.5482 17.3631 17.3265 17.6033 16.9756 17.7004C16.8463 17.6957 16.717 17.6957 16.5923 17.6957ZM1.76878 7.10596C1.75492 10.0491 4.16548 12.4655 7.12094 12.4748C10.0579 12.4794 12.4546 10.0953 12.4731 7.14292C12.4916 4.19516 10.0903 1.77411 7.13018 1.76486C4.19318 1.76024 1.77801 4.15819 1.76878 7.10596Z" fill="white"/>
</svg>
