<?xml version="1.0" encoding="UTF-8"?>
<svg id="Layer_1" data-name="Layer 1" xmlns="http://www.w3.org/2000/svg" viewBox="0 0 100 100">
  <defs>
    <style>
      .cls-1 {
        fill: #00e653;
      }
    </style>
  </defs>
  <path class="cls-1" d="m84.02,58.36c-3.46-6.08-8.8-9.45-15.69-10.47,0-4.45-.07-8.84.02-13.24.14-6.76,2.39-12.79,6.79-17.94,1.73-2.02,3.69-3.85,5.54-5.77h-7.93c-.5.06-1,.13-1.5.19-8.31.92-15.6,4.11-21.87,9.65-.58.51-1.15,1.05-1.73,1.58-.46-.4-.87-.78-1.3-1.13-4.1-3.36-8.69-5.58-14.07-5.69-7.78-.16-13.67,3.67-18.91,9.24,1.8,1.55,3.46,3.2,5.35,4.55,6.7,4.76,13.88,5.97,21.59,2.56.1-.05.23-.07.43-.13-.08.21-.13.32-.18.43-2.42,4.78-3.76,9.85-4.11,15.18-.03.47-.23.58-.64.63-11.27,1.51-19.21,11.9-17.63,23.11,1.67,11.82,12.71,19.56,23.69,17.63,2.3-.41,4.45-1.18,6.5-2.32-9.97-9.68-9.96-26.5,0-36.1-2.3-1.33-4.78-2.06-7.34-2.48.77-16.37,13.96-29.9,28.78-31.83-.08.15-.15.28-.24.41-3.98,5.88-5.88,12.37-5.83,19.46.03,3.74,0,7.48,0,11.22v.79c-10.84,1.32-18.93,10.63-18.27,21.61.63,10.5,8.91,18.8,19.35,19.51,9.96.67,19.26-6.45,21.33-16.36,1.05-5.02.41-9.83-2.13-14.3Zm-45.49,3.01c-4.35.37-6.65,3.35-6.87,6.89h-4.45c-.32-5.93,5.16-11.6,11.32-11.34v4.45Zm27.45.03c-4.1.41-6.46,2.77-6.84,6.84h-4.44c-.47-5.01,4.27-11.42,11.28-11.35v4.51Z"/>
</svg>