<?xml version="1.0" encoding="UTF-8"?>
<svg id="Layer_1" data-name="Layer 1" xmlns="http://www.w3.org/2000/svg" viewBox="0 0 100 100">
  <defs>
    <style>
      .cls-1 {
        fill: #f5f5f5;
      }

      .cls-2 {
        fill: #00e653;
      }
    </style>
  </defs>
  <g>
    <path class="cls-1" d="m23.91,35.5c.13-1,.23-2.01.41-3.01.74-4.26,2.47-8.09,5.12-11.5.06-.08.14-.15.17-.18-2.06,10.96,1.19,19.98,9.98,27.1-.89.37-1.75.79-2.65,1.1-3.1,1.06-6.27,1.27-9.48.56-.2-.04-.43-.21-.52-.38-1.67-3.14-2.65-6.48-2.94-10.03-.01-.17-.06-.33-.09-.49,0-1.05,0-2.11,0-3.16Z"/>
    <path class="cls-1" d="m51.74,10.94c.9.13,1.81.22,2.71.39,8.62,1.65,14.92,6.42,18.96,14.19.33.64.6,1.31.85,2-3.85-3.53-8.31-5.81-13.45-6.71-5.14-.9-10.1-.28-15.01,1.84.1-.89.16-1.69.29-2.47.59-3.45,2.07-6.48,4.42-9.07.04-.05.08-.11.11-.17.37,0,.75,0,1.12,0Z"/>
    <path class="cls-1" d="m46.34,11.21c-.72,1.48-1.59,2.9-2.14,4.43-2.8,7.84-1.53,15.01,3.78,21.44.18.21.32.37.21.7-1.12,3.22-2.98,5.92-5.61,8.09-.05.04-.11.08-.18.12-2.2-1.42-4.11-3.17-5.68-5.27-3.43-4.57-4.96-9.72-4.61-15.41.2-3.33,1.15-6.46,2.78-9.38.08-.14.19-.28.33-.37,3.33-2.3,7-3.77,11.02-4.34.06,0,.13-.01.12-.01Z"/>
    <path class="cls-1" d="m74.1,46.88c-1.15-2.4-2.65-4.48-4.56-6.26-3.42-3.19-7.45-5.09-12.1-5.64-2.21-.26-4.4-.16-6.58.27-.18.04-.47-.07-.6-.21-2.28-2.6-3.68-5.63-4.25-9.16,1.05-.42,2.09-.93,3.18-1.26,7.49-2.31,14.44-1.18,20.81,3.4,2.4,1.73,4.31,3.92,5.83,6.45.08.13.14.28.15.42.35,4.08-.26,8.01-1.77,11.82-.02.05-.06.08-.12.17Z"/>
    <path class="cls-1" d="m29.37,52.96c2.04.15,3.96.09,5.84-.34,7.73-1.74,13.03-6.3,15.8-13.74.16-.44.36-.65.82-.72,3.18-.53,6.29-.29,9.33.79.36.13.43.29.4.66-.55,6.45-3.33,11.75-8.28,15.89-3.29,2.76-7.09,4.4-11.36,4.97-.52.07-1.05.11-1.57.17-.87.11-1.64-.06-2.43-.49-3.08-1.67-5.77-3.82-8.01-6.51-.16-.19-.31-.39-.55-.69Z"/>
    <path class="cls-1" d="m46.14,62.8c10.53-3.7,16.73-11.02,18.5-22.21.8.62,1.6,1.18,2.34,1.82,2.43,2.12,4.15,4.73,5.15,7.8.07.22.03.55-.09.74-4.34,6.62-10.39,10.62-18.23,11.87-2.38.38-4.77.37-7.16.07-.18-.02-.36-.07-.51-.1Z"/>
  </g>
  <g>
    <path class="cls-2" d="m80.71,63.69c.4.48.81.95,1.19,1.44,1.82,2.35,1.7,5.46-.28,7.7-2.47,2.78-5.17,5.31-8.12,7.57-.1.08-.22.14-.28.18,0-7.84,0-15.68,0-23.58.85.69,1.73,1.39,2.61,2.1.61.5,1.2,1.01,1.81,1.52,1.03,1.03,2.05,2.05,3.08,3.08Z"/>
    <path class="cls-2" d="m22.3,60.69c.6-.51,1.19-1.03,1.8-1.53.83-.68,1.66-1.35,2.5-2.02.07-.06.16-.09.19-.1,0,7.84,0,15.69,0,23.57-.83-.66-1.68-1.32-2.51-2.02-2.08-1.73-3.99-3.64-5.8-5.65-2.22-2.47-2.22-5.86.03-8.31.32-.35.62-.72.93-1.08.96-.96,1.91-1.91,2.87-2.87Z"/>
    <path class="cls-2" d="m69.91,54.75c-.17-.1-.35-.21-.52-.31-2.57-1.54-5.25-2.83-8.06-3.81-.77-.27-1.55-.51-2.34-.74-.21-.06-.42-.12-.64-.18-4.77-1.27-9.57-1.56-14.46-.52-.28.06-.56.12-.84.18-3.41.8-6.66,1.99-9.75,3.58-.92.46-1.82.96-2.71,1.5-.08.05-.17.1-.26.15-.47.28-.62.58-.62,1.12.02,7.3.01,14.6.01,21.91v4.6c0,.16.03.31.04.41.15.1.23.16.31.21,3.53,2.19,7.28,3.9,11.3,4.99,4.5,1.22,9.05,1.64,13.7.8,5.35-.98,10.3-2.95,14.91-5.8.26-.16.29-.34.29-.6,0-8.93,0-17.87.01-26.8,0-.33-.1-.5-.37-.67Zm-5.84,14.6c-.23.55-.68.85-1.27.86-.72.02-1.45-.02-2.25-.03,0,.94.04,1.82,0,2.7-.02.36-.13.76-.31,1.06-.31.49-.94.65-1.49.48-.57-.17-.99-.7-1-1.33-.02-.94,0-1.88.02-2.77h-3.31c0,.82.01,1.73.02,2.62,0,.47-.13.89-.49,1.19-.44.37-.95.46-1.48.23-.53-.23-.83-.66-.84-1.23-.03-.77-.01-1.55-.02-2.32,0-.18,0-.36-.01-.49h-3.29c.01.88.03,1.81.03,2.75,0,.6-.28,1.05-.84,1.29-.53.23-1.03.16-1.48-.21-.37-.31-.5-.72-.5-1.19.01-.89,0-1.78,0-2.61-1.1,0-2.17,0-3.29-.01,0,.79.02,1.66.02,2.53,0,.96-.59,1.61-1.43,1.61-.82,0-1.39-.64-1.4-1.58,0-.87.01-1.75.02-2.74-.72.02-1.41.04-2.09.06-.49.01-.91-.13-1.23-.52-.35-.44-.43-.93-.21-1.44.24-.55.68-.85,1.27-.86.72-.02,1.45.02,2.28.03-.01-.99-.02-1.89-.03-2.8,0-.57.21-1.03.72-1.32.95-.53,2.06.13,2.1,1.26.02.46.01.92,0,1.38s-.02.92-.03,1.34c1.11,0,2.17,0,3.33,0-.01-.85-.04-1.79-.03-2.72.02-1.07,1.02-1.74,1.96-1.33.6.26.86.74.86,1.38,0,.9-.01,1.81-.02,2.66,1.11,0,2.18,0,3.32,0-.01-.88-.04-1.81-.03-2.75,0-.59.28-1.05.83-1.29.53-.23,1.03-.16,1.48.21.37.31.5.71.5,1.19,0,.89,0,1.78,0,2.6,1.1.01,2.17.02,3.29.03,0-.8-.02-1.67-.01-2.55,0-.96.58-1.61,1.43-1.61.82,0,1.39.64,1.39,1.58,0,.88,0,1.75-.02,2.74.73-.02,1.41-.04,2.1-.06.48,0,.91.14,1.23.52.35.44.43.93.21,1.44Z"/>
  </g>
</svg>