<?xml version="1.0" encoding="UTF-8"?>
<svg id="Layer_1" data-name="Layer 1" xmlns="http://www.w3.org/2000/svg" viewBox="0 0 100 100">
  <defs>
    <style>
      .cls-1 {
        fill: #00e653;
      }
    </style>
  </defs>
  <path class="cls-1" d="m89.03,19.06c-.01-2.71-1.42-4.15-4.13-4.17-3.49-.03-6.97,0-10.45,0h-.97v-3.92H26.49v3.92h-10.85c-2.87,0-3.64.51-4.71,3.1v11.74c.3,1.33.48,2.71.93,3.98,2.34,6.61,7.06,10.5,13.88,11.86.63.13.83.34.84.96.06,3.67.87,7.15,2.57,10.4,3.21,6.13,8.17,10.12,14.84,11.99.22.06.44.12.66.18.05.02.09.05.17.1-.04.18-.07.37-.14.56-.78,2.33-1.57,4.66-2.32,7.01-.14.44-.35.58-.8.58-2.64-.03-5.29-.02-7.93-.01-2.07,0-3.32.89-4,2.86-.94,2.68-1.88,5.37-2.81,8.05-.09.24-.15.48-.23.78h46.78c-.23-.64-.43-1.23-.63-1.82-.82-2.37-1.65-4.75-2.47-7.12-.63-1.81-1.92-2.74-3.86-2.74-2.59,0-5.19,0-7.78,0h-.86c-.91-2.74-1.8-5.43-2.68-8.06,1.61-.6,3.21-1.05,4.68-1.76,6.97-3.34,11.35-8.81,13.04-16.35.36-1.57.42-3.22.56-4.83.04-.47.2-.64.65-.73,7.07-1.35,11.89-5.36,14.15-12.22.56-1.68.72-3.53.8-5.32.13-3,.04-6,.03-9Zm-62.53,18.79c-2.33-.66-4.18-1.91-5.63-3.76-1.49-1.9-2.17-4.09-2.13-6.51.02-1.59,0-3.19,0-4.83h7.76v15.1Zm37.81-3.71l-5.83,4.24c-.69.5-.98,1.38-.71,2.19l2.22,6.85c.59,1.8-1.48,3.31-3.01,2.19l-5.83-4.23c-.69-.5-1.61-.5-2.3,0l-5.83,4.23c-1.54,1.12-3.6-.39-3.01-2.19l2.22-6.85c.26-.81-.03-1.69-.71-2.19l-5.83-4.24c-1.54-1.11-.74-3.54,1.15-3.54h7.2c.85,0,1.6-.55,1.87-1.35l2.22-6.85c.59-1.81,3.14-1.81,3.73,0l2.23,6.85c.26.81,1.01,1.35,1.86,1.35h7.2c1.9,0,2.68,2.43,1.15,3.54Zm16.91-7.31c-.1,1.48-.15,3.02-.59,4.41-.95,3.08-3.05,5.21-6.09,6.37-.23.09-.48.14-.73.19-.1.03-.2,0-.35,0v-15.09h7.77c0,1.38.07,2.75-.02,4.11Z"/>
</svg>