<svg width="140" height="46" viewBox="0 0 140 46" fill="none" xmlns="http://www.w3.org/2000/svg">
<g clip-path="url(#clip0_2546_2549)">
<path d="M90.9378 0.554871C81.1004 0.554871 72.3093 5.65378 72.3093 15.0744C72.3093 25.878 87.9008 26.6241 87.9008 32.0516C87.9008 34.3368 85.2818 36.3826 80.8088 36.3826C74.4607 36.3826 69.7162 33.5242 69.7162 33.5242L67.6861 43.0306C67.6861 43.0306 73.1517 45.4451 80.4083 45.4451C91.1636 45.4451 99.6267 40.0958 99.6267 30.5143C99.6267 19.0982 83.9705 18.3742 83.9705 13.3367C83.9705 11.5462 86.1203 9.58482 90.5806 9.58482C95.6129 9.58482 99.7188 11.6637 99.7188 11.6637L101.706 2.48218C101.706 2.48218 97.2382 0.554871 90.9378 0.554871ZM0.935527 1.24788L0.697266 2.63377C0.697266 2.63377 4.83592 3.39113 8.56337 4.90211C13.3627 6.63456 13.7047 7.64322 14.513 10.7759L23.3209 44.7305H35.1283L53.3183 1.24788H41.5381L29.8499 30.8119L25.0805 5.75197C24.6431 2.88395 22.4275 1.24788 19.7155 1.24788H0.935527ZM58.0552 1.24788L48.8141 44.7304H60.0474L69.2562 1.24774H58.0552V1.24788ZM120.708 1.24788C117.999 1.24788 116.564 2.69812 115.511 5.23232L99.0529 44.7304H110.833L113.112 38.1472H127.464L128.85 44.7304H139.244L130.176 1.24788H120.708ZM122.24 12.9955L125.732 29.3123H116.377L122.24 12.9955Z" fill="#1434CB"/>
</g>
<defs>
<clipPath id="clip0_2546_2549">
<rect width="138.547" height="45" fill="white" transform="translate(0.697266 0.5)"/>
</clipPath>
</defs>
</svg>
