<svg width="30" height="30" viewBox="0 0 30 30" fill="none" xmlns="http://www.w3.org/2000/svg">
<rect width="30" height="30" rx="4" fill="#7BB77E"/>
<g clip-path="url(#clip0_3319_1690)">
<path fill-rule="evenodd" clip-rule="evenodd" d="M17.106 16.0314C16.772 16.1679 16.5587 16.6907 16.3422 16.9579C16.2312 17.0947 16.0989 17.1161 15.9283 17.0475C14.6747 16.5481 13.7138 15.7115 13.022 14.5579C12.9048 14.379 12.9259 14.2377 13.0672 14.0716C13.2761 13.8255 13.5387 13.546 13.5952 13.2144C13.7207 12.481 12.7618 10.2058 11.4955 11.2367C7.85165 14.206 17.5741 22.0814 19.3288 17.8219C19.8251 16.6146 17.6596 15.8046 17.106 16.0314ZM14.9994 22.282C13.7107 22.282 12.4426 21.9394 11.3325 21.2907C11.1543 21.1863 10.9389 21.1587 10.7396 21.2128L8.3273 21.8749L9.1676 20.0237C9.28203 19.7717 9.25273 19.4784 9.09108 19.2544C8.19219 18.0084 7.71689 16.5374 7.71689 14.9998C7.71689 10.9841 10.9837 7.71729 14.9994 7.71729C19.0151 7.71729 22.2816 10.9841 22.2816 14.9998C22.2816 19.0152 19.0148 22.282 14.9994 22.282ZM14.9994 6.17627C10.1341 6.17627 6.17587 10.1344 6.17587 14.9998C6.17587 16.7114 6.66186 18.3552 7.58523 19.7817L6.24481 22.7338C6.12107 23.0065 6.16622 23.3256 6.35993 23.5528C6.50882 23.7268 6.72424 23.8233 6.94655 23.8233C7.44357 23.8233 10.1537 22.9717 10.8434 22.7824C12.1183 23.4645 13.5483 23.8233 14.9994 23.8233C19.8644 23.8233 23.8229 19.8648 23.8229 14.9998C23.8229 10.1344 19.8644 6.17627 14.9994 6.17627Z" fill="white"/>
</g>
<defs>
<clipPath id="clip0_3319_1690">
<rect width="17.6471" height="17.6471" fill="white" transform="translate(6.17578 6.17627)"/>
</clipPath>
</defs>
</svg>
